STARTFONT 2.1
COMMENT 16x16 kanji font
COMMENT from Japanese Industrial Standard, JIS X 9051-1984
COMMENT named "16-dots Matrix Character Patterns for Display Devices"
FONT -JIS-Fixed-Medium-R-Normal--16-150-75-75-C-160-JISX0208.1983-0
SIZE 6 78 78
FONTBOUNDINGBOX 16 16 0 2
STARTPROPERTIES 19
FONT_ASCENT 14
FONT_DESCENT 2
DEFAULT_CHAR 8481
COPYRIGHT "from JIS X 9051-1984, by permission to use"
FONTNAME_REGISTRY ""
FOUNDRY "JIS"
FAMILY_NAME "Fixed"
WEIGHT_NAME "Medium"
SLANT "R"
SETWIDTH_NAME "Normal"
ADD_STYLE_NAME ""
PIXEL_SIZE 16
POINT_SIZE 150
RESOLUTION_X 75
RESOLUTION_Y 75
SPACING "C"
AVERAGE_WIDTH 160
CHARSET_REGISTRY "JISX0208.1983"
CHARSET_ENCODING "0"
ENDPROPERTIES
CHARS 6877
STARTCHAR 2121
ENCODING 12288
SWIDTH 96 0
DWIDTH 16 0
BBX 16 16 0 -2
BITMAP
0000
0000
0000
0000
0000
0000
0000
0000
0000
0000
0000
0000
0000
0000
0000
0000
ENDCHAR
STARTCHAR 2122
ENCODING 12289
SWIDTH 96 0
DWIDTH 16 0
BBX 16 16 0 -2
BITMAP
0000
0000
0000
0000
0000
0000
0000
0000
0000
0000
0000
0000
0000
6000
3000
1000
ENDCHAR
STARTCHAR 2123
ENCODING 12290
SWIDTH 96 0
DWIDTH 16 0
BBX 16 16 0 -2
BITMAP
0000
0000
0000
0000
0000
0000
0000
0000
0000
0000
0000
0000
6000
9000
9000
6000
ENDCHAR
STARTCHAR 2124
ENCODING 65292
SWIDTH 96 0
DWIDTH 16 0
BBX 16 16 0 -2
BITMAP
0000
0000
0000
0000
0000
0000
0000
0000
0000
0000
0000
0000
6000
6000
2000
4000
ENDCHAR
STARTCHAR 2125
ENCODING 65294
SWIDTH 96 0
DWIDTH 16 0
BBX 16 16 0 -2
BITMAP
0000
0000
0000
0000
0000
0000
0000
0000
0000
0000
0000
0000
6000
6000
0000
0000
ENDCHAR
STARTCHAR 2126
ENCODING 12539
SWIDTH 96 0
DWIDTH 16 0
BBX 16 16 0 -2
BITMAP
0000
0000
0000
0000
0000
0000
0000
0180
0180
0000
0000
0000
0000
0000
0000
0000
ENDCHAR
STARTCHAR 2127
ENCODING 65306
SWIDTH 96 0
DWIDTH 16 0
BBX 16 16 0 -2
BITMAP
0000
0000
0000
0000
0000
0000
0180
0180
0000
0000
0000
0000
0180
0180
0000
0000
ENDCHAR
STARTCHAR 2128
ENCODING 65307
SWIDTH 96 0
DWIDTH 16 0
BBX 16 16 0 -2
BITMAP
0000
0000
0000
0000
0000
0000
0180
0180
0000
0000
0000
0000
0180
0180
0080
0100
ENDCHAR
STARTCHAR 2129
ENCODING 65311
SWIDTH 96 0
DWIDTH 16 0
BBX 16 16 0 -2
BITMAP
0000
07E0
0810
1008
1008
0808
0030
00C0
0100
0100
0000
0000
0180
0180
0000
0000
ENDCHAR
STARTCHAR 212a
ENCODING 65281
SWIDTH 96 0
DWIDTH 16 0
BBX 16 16 0 -2
BITMAP
0000
0180
0180
0180
0180
0180
0100
0100
0100
0100
0000
0000
0180
0180
0000
0000
ENDCHAR
STARTCHAR 212b
ENCODING 12443
SWIDTH 96 0
DWIDTH 16 0
BBX 16 16 0 -2
BITMAP
5000
5000
0000
0000
0000
0000
0000
0000
0000
0000
0000
0000
0000
0000
0000
0000
ENDCHAR
STARTCHAR 212c
ENCODING 12444
SWIDTH 96 0
DWIDTH 16 0
BBX 16 16 0 -2
BITMAP
0000
0000
6000
9000
9000
6000
0000
0000
0000
0000
0000
0000
0000
0000
0000
0000
ENDCHAR
STARTCHAR 212d
ENCODING 180
SWIDTH 96 0
DWIDTH 16 0
BBX 16 16 0 -2
BITMAP
00C0
0300
0000
0000
0000
0000
0000
0000
0000
0000
0000
0000
0000
0000
0000
0000
ENDCHAR
STARTCHAR 212e
ENCODING 65344
SWIDTH 96 0
DWIDTH 16 0
BBX 16 16 0 -2
BITMAP
0300
00C0
0000
0000
0000
0000
0000
0000
0000
0000
0000
0000
0000
0000
0000
0000
ENDCHAR
STARTCHAR 212f
ENCODING 168
SWIDTH 96 0
DWIDTH 16 0
BBX 16 16 0 -2
BITMAP
0660
0660
0000
0000
0000
0000
0000
0000
0000
0000
0000
0000
0000
0000
0000
0000
ENDCHAR
STARTCHAR 2130
ENCODING 65342
SWIDTH 96 0
DWIDTH 16 0
BBX 16 16 0 -2
BITMAP
0180
0660
0000
0000
0000
0000
0000
0000
0000
0000
0000
0000
0000
0000
0000
0000
ENDCHAR
STARTCHAR 2131
ENCODING 65507
SWIDTH 96 0
DWIDTH 16 0
BBX 16 16 0 -2
BITMAP
FFFF
0000
0000
0000
0000
0000
0000
0000
0000
0000
0000
0000
0000
0000
0000
0000
ENDCHAR
STARTCHAR 2132
ENCODING 65343
SWIDTH 96 0
DWIDTH 16 0
BBX 16 16 0 -2
BITMAP
0000
0000
0000
0000
0000
0000
0000
0000
0000
0000
0000
0000
0000
0000
0000
FFFF
ENDCHAR
STARTCHAR 2133
ENCODING 12541
SWIDTH 96 0
DWIDTH 16 0
BBX 16 16 0 -2
BITMAP
0000
0000
0000
0000
0600
0300
0180
00C0
0060
0020
0030
0010
0000
0000
0000
0000
ENDCHAR
STARTCHAR 2134
ENCODING 12542
SWIDTH 96 0
DWIDTH 16 0
BBX 16 16 0 -2
BITMAP
0000
0000
0000
0050
0C50
0600
0300
0180
00C0
0040
0060
0020
0000
0000
0000
0000
ENDCHAR
STARTCHAR 2135
ENCODING 12445
SWIDTH 96 0
DWIDTH 16 0
BBX 16 16 0 -2
BITMAP
0000
0000
0000
0800
0C00
0600
0300
01C0
0060
0030
0060
01C0
0300
0000
0000
0000
ENDCHAR
STARTCHAR 2136
ENCODING 12446
SWIDTH 96 0
DWIDTH 16 0
BBX 16 16 0 -2
BITMAP
0000
0000
0000
0828
0C28
0600
0300
01C0
0060
0030
0060
01C0
0300
0000
0000
0000
ENDCHAR
STARTCHAR 2137
ENCODING 12291
SWIDTH 96 0
DWIDTH 16 0
BBX 16 16 0 -2
BITMAP
0000
0000
0000
0420
0420
0420
0420
0420
0420
0420
0840
0840
1080
0000
0000
0000
ENDCHAR
STARTCHAR 2138
ENCODING 20189
SWIDTH 96 0
DWIDTH 16 0
BBX 16 16 0 -2
BITMAP
0100
0380
06C0
0C60
1830
301C
E007
0000
3FFC
0100
0100
0100
0100
0100
FFFF
0000
ENDCHAR
STARTCHAR 2139
ENCODING 12293
SWIDTH 96 0
DWIDTH 16 0
BBX 16 16 0 -2
BITMAP
0000
0200
0200
0200
07F8
0408
0C18
0810
1830
3360
01C0
0060
0030
0010
0000
0000
ENDCHAR
STARTCHAR 213a
ENCODING 12294
SWIDTH 96 0
DWIDTH 16 0
BBX 16 16 0 -2
BITMAP
0000
0006
000C
0018
0730
09E0
10C0
11E0
3330
2600
2C00
2800
3800
3000
6000
0000
ENDCHAR
STARTCHAR 213b
ENCODING 12295
SWIDTH 96 0
DWIDTH 16 0
BBX 16 16 0 -2
BITMAP
0000
0000
07E0
1C38
300C
2004
6006
4002
4002
6006
2004
300C
1C38
07E0
0000
0000
ENDCHAR
STARTCHAR 213c
ENCODING 12540
SWIDTH 96 0
DWIDTH 16 0
BBX 16 16 0 -2
BITMAP
0000
0000
0000
0000
0000
0000
4000
3FFE
0000
0000
0000
0000
0000
0000
0000
0000
ENDCHAR
STARTCHAR 213d
ENCODING 8213
SWIDTH 96 0
DWIDTH 16 0
BBX 16 16 0 -2
BITMAP
0000
0000
0000
0000
0000
0000
0000
FFFF
0000
0000
0000
0000
0000
0000
0000
0000
ENDCHAR
STARTCHAR 213e
ENCODING 8208
SWIDTH 96 0
DWIDTH 16 0
BBX 16 16 0 -2
BITMAP
0000
0000
0000
0000
0000
0000
0000
07E0
0000
0000
0000
0000
0000
0000
0000
0000
ENDCHAR
STARTCHAR 213f
ENCODING 65295
SWIDTH 96 0
DWIDTH 16 0
BBX 16 16 0 -2
BITMAP
0001
0002
0004
0008
0010
0020
0040
0080
0100
0200
0400
0800
1000
2000
4000
8000
ENDCHAR
STARTCHAR 2140
ENCODING 92
SWIDTH 96 0
DWIDTH 16 0
BBX 16 16 0 -2
BITMAP
8000
4000
2000
1000
0800
0400
0200
0100
0080
0040
0020
0010
0008
0004
0002
0001
ENDCHAR
STARTCHAR 2141
ENCODING 12316
SWIDTH 96 0
DWIDTH 16 0
BBX 16 16 0 -2
BITMAP
0000
0000
0000
0000
0000
0000
3C00
4301
80C2
003C
0000
0000
0000
0000
0000
0000
ENDCHAR
STARTCHAR 2142
ENCODING 8214
SWIDTH 96 0
DWIDTH 16 0
BBX 16 16 0 -2
BITMAP
0440
0440
0440
0440
0440
0440
0440
0440
0440
0440
0440
0440
0440
0440
0440
0440
ENDCHAR
STARTCHAR 2143
ENCODING 65372
SWIDTH 96 0
DWIDTH 16 0
BBX 16 16 0 -2
BITMAP
0100
0100
0100
0100
0100
0100
0100
0100
0100
0100
0100
0100
0100
0100
0100
0100
ENDCHAR
STARTCHAR 2144
ENCODING 8230
SWIDTH 96 0
DWIDTH 16 0
BBX 16 16 0 -2
BITMAP
0000
0000
0000
0000
0000
0000
0000
6186
6186
0000
0000
0000
0000
0000
0000
0000
ENDCHAR
STARTCHAR 2145
ENCODING 8229
SWIDTH 96 0
DWIDTH 16 0
BBX 16 16 0 -2
BITMAP
0000
0000
0000
0000
0000
0000
0000
1818
1818
0000
0000
0000
0000
0000
0000
0000
ENDCHAR
STARTCHAR 2146
ENCODING 8216
SWIDTH 96 0
DWIDTH 16 0
BBX 16 16 0 -2
BITMAP
0008
0010
0018
0018
0000
0000
0000
0000
0000
0000
0000
0000
0000
0000
0000
0000
ENDCHAR
STARTCHAR 2147
ENCODING 8217
SWIDTH 96 0
DWIDTH 16 0
BBX 16 16 0 -2
BITMAP
1800
1800
0800
1000
0000
0000
0000
0000
0000
0000
0000
0000
0000
0000
0000
0000
ENDCHAR
STARTCHAR 2148
ENCODING 8220
SWIDTH 96 0
DWIDTH 16 0
BBX 16 16 0 -2
BITMAP
0024
0048
006C
006C
0000
0000
0000
0000
0000
0000
0000
0000
0000
0000
0000
0000
ENDCHAR
STARTCHAR 2149
ENCODING 8221
SWIDTH 96 0
DWIDTH 16 0
BBX 16 16 0 -2
BITMAP
3600
3600
1200
2400
0000
0000
0000
0000
0000
0000
0000
0000
0000
0000
0000
0000
ENDCHAR
STARTCHAR 214a
ENCODING 65288
SWIDTH 96 0
DWIDTH 16 0
BBX 16 16 0 -2
BITMAP
0008
0010
0030
0020
0060
0040
0040
0040
0040
0040
0040
0060
0020
0030
0010
0008
ENDCHAR
STARTCHAR 214b
ENCODING 65289
SWIDTH 96 0
DWIDTH 16 0
BBX 16 16 0 -2
BITMAP
1000
0800
0C00
0400
0600
0200
0200
0200
0200
0200
0200
0600
0400
0C00
0800
1000
ENDCHAR
STARTCHAR 214c
ENCODING 12308
SWIDTH 96 0
DWIDTH 16 0
BBX 16 16 0 -2
BITMAP
0008
0030
00C0
0080
0080
0080
0080
0080
0080
0080
0080
0080
0080
00C0
0030
0008
ENDCHAR
STARTCHAR 214d
ENCODING 12309
SWIDTH 96 0
DWIDTH 16 0
BBX 16 16 0 -2
BITMAP
1000
0C00
0300
0100
0100
0100
0100
0100
0100
0100
0100
0100
0100
0300
0C00
1000
ENDCHAR
STARTCHAR 214e
ENCODING 65339
SWIDTH 96 0
DWIDTH 16 0
BBX 16 16 0 -2
BITMAP
00F8
0080
0080
0080
0080
0080
0080
0080
0080
0080
0080
0080
0080
0080
0080
00F8
ENDCHAR
STARTCHAR 214f
ENCODING 65341
SWIDTH 96 0
DWIDTH 16 0
BBX 16 16 0 -2
BITMAP
1F00
0100
0100
0100
0100
0100
0100
0100
0100
0100
0100
0100
0100
0100
0100
1F00
ENDCHAR
STARTCHAR 2150
ENCODING 65371
SWIDTH 96 0
DWIDTH 16 0
BBX 16 16 0 -2
BITMAP
0008
0010
0020
0020
0020
0020
0020
0040
0020
0020
0020
0020
0020
0020
0010
0008
ENDCHAR
STARTCHAR 2151
ENCODING 65373
SWIDTH 96 0
DWIDTH 16 0
BBX 16 16 0 -2
BITMAP
1000
0800
0400
0400
0400
0400
0400
0200
0400
0400
0400
0400
0400
0400
0800
1000
ENDCHAR
STARTCHAR 2152
ENCODING 12296
SWIDTH 96 0
DWIDTH 16 0
BBX 16 16 0 -2
BITMAP
0008
0010
0010
0020
0040
0040
0080
0100
0100
0080
0040
0040
0020
0010
0010
0008
ENDCHAR
STARTCHAR 2153
ENCODING 12297
SWIDTH 96 0
DWIDTH 16 0
BBX 16 16 0 -2
BITMAP
1000
0800
0800
0400
0200
0200
0100
0080
0080
0100
0200
0200
0400
0800
0800
1000
ENDCHAR
STARTCHAR 2154
ENCODING 12298
SWIDTH 96 0
DWIDTH 16 0
BBX 16 16 0 -2
BITMAP
0012
0024
0024
0048
0090
0090
0120
0240
0240
0120
0090
0090
0048
0024
0024
0012
ENDCHAR
STARTCHAR 2155
ENCODING 12299
SWIDTH 96 0
DWIDTH 16 0
BBX 16 16 0 -2
BITMAP
4800
2400
2400
1200
0900
0900
0480
0240
0240
0480
0900
0900
1200
2400
2400
4800
ENDCHAR
STARTCHAR 2156
ENCODING 12300
SWIDTH 96 0
DWIDTH 16 0
BBX 16 16 0 -2
BITMAP
00F8
0080
0080
0080
0080
0080
0080
0080
0080
0080
0080
0000
0000
0000
0000
0000
ENDCHAR
STARTCHAR 2157
ENCODING 12301
SWIDTH 96 0
DWIDTH 16 0
BBX 16 16 0 -2
BITMAP
0000
0000
0000
0000
0000
0100
0100
0100
0100
0100
0100
0100
0100
0100
0100
1F00
ENDCHAR
STARTCHAR 2158
ENCODING 12302
SWIDTH 96 0
DWIDTH 16 0
BBX 16 16 0 -2
BITMAP
01F8
0108
0178
0140
0140
0140
0140
0140
0140
0140
01C0
0000
0000
0000
0000
0000
ENDCHAR
STARTCHAR 2159
ENCODING 12303
SWIDTH 96 0
DWIDTH 16 0
BBX 16 16 0 -2
BITMAP
0000
0000
0000
0000
0000
0380
0280
0280
0280
0280
0280
0280
0280
1E80
1080
1F80
ENDCHAR
STARTCHAR 215a
ENCODING 12304
SWIDTH 96 0
DWIDTH 16 0
BBX 16 16 0 -2
BITMAP
00F8
00F0
00E0
00C0
00C0
0080
0080
0080
0080
0080
0080
00C0
00C0
00E0
00F0
00F8
ENDCHAR
STARTCHAR 215b
ENCODING 12305
SWIDTH 96 0
DWIDTH 16 0
BBX 16 16 0 -2
BITMAP
1F00
0F00
0700
0300
0300
0100
0100
0100
0100
0100
0100
0300
0300
0700
0F00
1F00
ENDCHAR
STARTCHAR 215c
ENCODING 65291
SWIDTH 96 0
DWIDTH 16 0
BBX 16 16 0 -2
BITMAP
0000
0000
0100
0100
0100
0100
0100
3FFC
0100
0100
0100
0100
0100
0100
0000
0000
ENDCHAR
STARTCHAR 215d
ENCODING 8722
SWIDTH 96 0
DWIDTH 16 0
BBX 16 16 0 -2
BITMAP
0000
0000
0000
0000
0000
0000
0000
3FFC
0000
0000
0000
0000
0000
0000
0000
0000
ENDCHAR
STARTCHAR 215e
ENCODING 177
SWIDTH 96 0
DWIDTH 16 0
BBX 16 16 0 -2
BITMAP
0000
0000
0100
0100
0100
0100
3FFC
0100
0100
0100
0100
0000
0000
3FFC
0000
0000
ENDCHAR
STARTCHAR 215f
ENCODING 215
SWIDTH 96 0
DWIDTH 16 0
BBX 16 16 0 -2
BITMAP
0000
0000
0000
1008
0810
0420
0240
0180
0180
0240
0420
0810
1008
0000
0000
0000
ENDCHAR
STARTCHAR 2160
ENCODING 247
SWIDTH 96 0
DWIDTH 16 0
BBX 16 16 0 -2
BITMAP
0000
0000
0000
0180
0180
0000
0000
3FFC
0000
0000
0180
0180
0000
0000
0000
0000
ENDCHAR
STARTCHAR 2161
ENCODING 65309
SWIDTH 96 0
DWIDTH 16 0
BBX 16 16 0 -2
BITMAP
0000
0000
0000
0000
0000
3FFC
0000
0000
0000
3FFC
0000
0000
0000
0000
0000
0000
ENDCHAR
STARTCHAR 2162
ENCODING 8800
SWIDTH 96 0
DWIDTH 16 0
BBX 16 16 0 -2
BITMAP
0000
0000
0040
0040
0080
3FFC
0080
0100
0100
3FFC
0100
0200
0200
0000
0000
0000
ENDCHAR
STARTCHAR 2163
ENCODING 65308
SWIDTH 96 0
DWIDTH 16 0
BBX 16 16 0 -2
BITMAP
0000
0006
0018
0060
0180
0600
1800
6000
1800
0400
0300
00C0
0020
0018
0006
0000
ENDCHAR
STARTCHAR 2164
ENCODING 65310
SWIDTH 96 0
DWIDTH 16 0
BBX 16 16 0 -2
BITMAP
0000
6000
1800
0600
0180
0060
0018
0006
0018
0020
00C0
0300
0400
1800
6000
0000
ENDCHAR
STARTCHAR 2165
ENCODING 8806
SWIDTH 96 0
DWIDTH 16 0
BBX 16 16 0 -2
BITMAP
0000
0000
001C
00E0
0700
3800
0700
00E0
001C
0000
3FFC
0000
0000
3FFC
0000
0000
ENDCHAR
STARTCHAR 2166
ENCODING 8807
SWIDTH 96 0
DWIDTH 16 0
BBX 16 16 0 -2
BITMAP
0000
0000
3800
0700
00E0
001C
00E0
0700
3800
0000
3FFC
0000
0000
3FFC
0000
0000
ENDCHAR
STARTCHAR 2167
ENCODING 8734
SWIDTH 96 0
DWIDTH 16 0
BBX 16 16 0 -2
BITMAP
0000
0000
0000
0000
1C38
2244
4182
4182
4182
4182
2244
1C38
0000
0000
0000
0000
ENDCHAR
STARTCHAR 2168
ENCODING 8756
SWIDTH 96 0
DWIDTH 16 0
BBX 16 16 0 -2
BITMAP
0000
0000
0000
0180
0180
0000
0000
0000
0000
0000
0000
300C
300C
0000
0000
0000
ENDCHAR
STARTCHAR 2169
ENCODING 9794
SWIDTH 96 0
DWIDTH 16 0
BBX 16 16 0 -2
BITMAP
0000
00FE
0006
000A
0012
0022
0042
1E82
2100
4080
4080
4080
4080
2100
1E00
0000
ENDCHAR
STARTCHAR 216a
ENCODING 9792
SWIDTH 96 0
DWIDTH 16 0
BBX 16 16 0 -2
BITMAP
0000
03C0
0420
0810
0810
0810
0810
0420
03C0
0100
1FF8
0100
0100
0100
0100
0100
ENDCHAR
STARTCHAR 216b
ENCODING 176
SWIDTH 96 0
DWIDTH 16 0
BBX 16 16 0 -2
BITMAP
0000
3000
4800
4800
3000
0000
0000
0000
0000
0000
0000
0000
0000
0000
0000
0000
ENDCHAR
STARTCHAR 216c
ENCODING 8242
SWIDTH 96 0
DWIDTH 16 0
BBX 16 16 0 -2
BITMAP
0000
0800
1800
3000
2000
0000
0000
0000
0000
0000
0000
0000
0000
0000
0000
0000
ENDCHAR
STARTCHAR 216d
ENCODING 8243
SWIDTH 96 0
DWIDTH 16 0
BBX 16 16 0 -2
BITMAP
0000
1100
3300
6600
4400
0000
0000
0000
0000
0000
0000
0000
0000
0000
0000
0000
ENDCHAR
STARTCHAR 216e
ENCODING 8451
SWIDTH 96 0
DWIDTH 16 0
BBX 16 16 0 -2
BITMAP
0000
60F2
930A
9606
6402
0C02
0800
0800
0800
0C00
0402
0606
030C
00F0
0000
0000
ENDCHAR
STARTCHAR 216f
ENCODING 65509
SWIDTH 96 0
DWIDTH 16 0
BBX 16 16 0 -2
BITMAP
0000
7C3E
1008
1008
0810
7FFE
0420
0440
0280
7FFE
0100
0100
0100
0100
07C0
0000
ENDCHAR
STARTCHAR 2170
ENCODING 65284
SWIDTH 96 0
DWIDTH 16 0
BBX 16 16 0 -2
BITMAP
0000
0100
07E0
0930
1118
1100
0900
0700
01E0
0110
0108
1108
1910
0FE0
0100
0000
ENDCHAR
STARTCHAR 2171
ENCODING 162
SWIDTH 96 0
DWIDTH 16 0
BBX 16 16 0 -2
BITMAP
0000
0000
0000
0000
0000
0020
03C0
0460
0890
0880
0900
0900
0610
03E0
0400
0000
ENDCHAR
STARTCHAR 2172
ENCODING 163
SWIDTH 96 0
DWIDTH 16 0
BBX 16 16 0 -2
BITMAP
0000
01F0
0208
0404
0400
0400
0400
0400
7FF0
0200
0200
3A00
4602
4584
3878
0000
ENDCHAR
STARTCHAR 2173
ENCODING 65285
SWIDTH 96 0
DWIDTH 16 0
BBX 16 16 0 -2
BITMAP
0000
3802
4404
4408
4410
4420
4440
3880
011C
0222
0422
0822
1022
2022
401C
0000
ENDCHAR
STARTCHAR 2174
ENCODING 65283
SWIDTH 96 0
DWIDTH 16 0
BBX 16 16 0 -2
BITMAP
0210
0210
0210
0210
1FFC
1FFC
0420
0420
0420
0420
3FF8
3FF8
0840
0840
0840
0840
ENDCHAR
STARTCHAR 2175
ENCODING 65286
SWIDTH 96 0
DWIDTH 16 0
BBX 16 16 0 -2
BITMAP
0000
0F00
1880
1080
1180
1B00
0E7C
0C10
1E30
3320
61E0
40C0
41E2
2336
1E1C
0000
ENDCHAR
STARTCHAR 2176
ENCODING 65290
SWIDTH 96 0
DWIDTH 16 0
BBX 16 16 0 -2
BITMAP
0000
0000
0000
0000
0100
1930
0D60
07C0
0100
07C0
0D60
1930
0100
0000
0000
0000
ENDCHAR
STARTCHAR 2177
ENCODING 65312
SWIDTH 96 0
DWIDTH 16 0
BBX 16 16 0 -2
BITMAP
0000
0000
03C0
0C30
1008
11A8
2264
2444
2444
24C8
1370
1004
0C18
03E0
0000
0000
ENDCHAR
STARTCHAR 2178
ENCODING 167
SWIDTH 96 0
DWIDTH 16 0
BBX 16 16 0 -2
BITMAP
0000
07C0
0C70
0C30
0E00
0780
0CE0
0830
0C10
0730
01E0
0070
0C30
0E30
03E0
0000
ENDCHAR
STARTCHAR 2179
ENCODING 9734
SWIDTH 96 0
DWIDTH 16 0
BBX 16 16 0 -2
BITMAP
0000
0100
0280
0280
0440
0440
7C7C
2008
1010
0820
0820
1110
1290
2C68
3018
0000
ENDCHAR
STARTCHAR 217a
ENCODING 9733
SWIDTH 96 0
DWIDTH 16 0
BBX 16 16 0 -2
BITMAP
0000
0100
0100
0380
0380
07C0
7FFC
3FF8
1FF0
0FE0
0FE0
1EF0
1C70
3838
2008
0000
ENDCHAR
STARTCHAR 217b
ENCODING 9675
SWIDTH 96 0
DWIDTH 16 0
BBX 16 16 0 -2
BITMAP
0000
03C0
0C30
1008
2004
2004
4002
4002
4002
4002
2004
2004
1008
0C30
03C0
0000
ENDCHAR
STARTCHAR 217c
ENCODING 9679
SWIDTH 96 0
DWIDTH 16 0
BBX 16 16 0 -2
BITMAP
0000
03C0
0FF0
1FF8
3FFC
3FFC
7FFE
7FFE
7FFE
7FFE
3FFC
3FFC
1FF8
0FF0
03C0
0000
ENDCHAR
STARTCHAR 217d
ENCODING 9678
SWIDTH 96 0
DWIDTH 16 0
BBX 16 16 0 -2
BITMAP
0000
03C0
0C30
1008
23C4
2424
4812
4812
4812
4812
2424
23C4
1008
0C30
03C0
0000
ENDCHAR
STARTCHAR 217e
ENCODING 9671
SWIDTH 96 0
DWIDTH 16 0
BBX 16 16 0 -2
BITMAP
0180
0240
0420
0810
1008
2004
4002
8001
8001
4002
2004
1008
0810
0420
0240
0180
ENDCHAR
STARTCHAR 2221
ENCODING 9670
SWIDTH 96 0
DWIDTH 16 0
BBX 16 16 0 -2
BITMAP
0180
03C0
07E0
0FF0
1FF8
3FFC
7FFE
FFFF
FFFF
7FFE
3FFC
1FF8
0FF0
07E0
03C0
0180
ENDCHAR
STARTCHAR 2222
ENCODING 9633
SWIDTH 96 0
DWIDTH 16 0
BBX 16 16 0 -2
BITMAP
0000
7FFE
4002
4002
4002
4002
4002
4002
4002
4002
4002
4002
4002
4002
7FFE
0000
ENDCHAR
STARTCHAR 2223
ENCODING 9632
SWIDTH 96 0
DWIDTH 16 0
BBX 16 16 0 -2
BITMAP
0000
7FFE
7FFE
7FFE
7FFE
7FFE
7FFE
7FFE
7FFE
7FFE
7FFE
7FFE
7FFE
7FFE
7FFE
0000
ENDCHAR
STARTCHAR 2224
ENCODING 9651
SWIDTH 96 0
DWIDTH 16 0
BBX 16 16 0 -2
BITMAP
0000
0000
0100
0280
0280
0440
0440
0820
0810
1010
1008
2008
2004
7FFE
0000
0000
ENDCHAR
STARTCHAR 2225
ENCODING 9650
SWIDTH 96 0
DWIDTH 16 0
BBX 16 16 0 -2
BITMAP
0000
0000
0100
0380
0380
07C0
07E0
0FE0
0FF0
1FF0
1FF8
3FFC
3FFC
7FFE
0000
0000
ENDCHAR
STARTCHAR 2226
ENCODING 9661
SWIDTH 96 0
DWIDTH 16 0
BBX 16 16 0 -2
BITMAP
0000
0000
7FFE
2004
2008
1008
1010
0810
0820
0440
0440
0280
0280
0100
0000
0000
ENDCHAR
STARTCHAR 2227
ENCODING 9660
SWIDTH 96 0
DWIDTH 16 0
BBX 16 16 0 -2
BITMAP
0000
0000
7FFE
3FFC
3FFC
1FF8
1FF0
0FF0
0FE0
07E0
07C0
0380
0380
0100
0000
0000
ENDCHAR
STARTCHAR 2228
ENCODING 8251
SWIDTH 96 0
DWIDTH 16 0
BBX 16 16 0 -2
BITMAP
0000
0000
2184
1188
0810
0420
0240
318C
318C
0240
0420
0810
1188
2184
0000
0000
ENDCHAR
STARTCHAR 2229
ENCODING 12306
SWIDTH 96 0
DWIDTH 16 0
BBX 16 16 0 -2
BITMAP
0000
7FFE
7FFE
0000
0000
7FFE
7FFE
0180
0180
0180
0180
0180
0180
0180
0180
0000
ENDCHAR
STARTCHAR 222a
ENCODING 8594
SWIDTH 96 0
DWIDTH 16 0
BBX 16 16 0 -2
BITMAP
0000
0000
0000
0000
0000
0008
0004
FFFF
0004
0008
0000
0000
0000
0000
0000
0000
ENDCHAR
STARTCHAR 222b
ENCODING 8592
SWIDTH 96 0
DWIDTH 16 0
BBX 16 16 0 -2
BITMAP
0000
0000
0000
0000
0000
1000
2000
FFFF
2000
1000
0000
0000
0000
0000
0000
0000
ENDCHAR
STARTCHAR 222c
ENCODING 8593
SWIDTH 96 0
DWIDTH 16 0
BBX 16 16 0 -2
BITMAP
0100
0100
0380
0540
0100
0100
0100
0100
0100
0100
0100
0100
0100
0100
0100
0100
ENDCHAR
STARTCHAR 222d
ENCODING 8595
SWIDTH 96 0
DWIDTH 16 0
BBX 16 16 0 -2
BITMAP
0100
0100
0100
0100
0100
0100
0100
0100
0100
0100
0100
0100
0540
0380
0100
0100
ENDCHAR
STARTCHAR 222e
ENCODING 12307
SWIDTH 96 0
DWIDTH 16 0
BBX 16 16 0 -2
BITMAP
0000
0000
7FFE
7FFE
7FFE
7FFE
0000
0000
0000
7FFE
7FFE
7FFE
7FFE
0000
0000
0000
ENDCHAR
STARTCHAR 223a
ENCODING 8712
SWIDTH 96 0
DWIDTH 16 0
BBX 16 16 0 -2
BITMAP
0000
0000
0000
07F8
0800
1000
1000
1FF8
1000
1000
0800
07F8
0000
0000
0000
0000
ENDCHAR
STARTCHAR 223b
ENCODING 8715
SWIDTH 96 0
DWIDTH 16 0
BBX 16 16 0 -2
BITMAP
0000
0000
0000
1FE0
0010
0008
0008
1FF8
0008
0008
0010
1FE0
0000
0000
0000
0000
ENDCHAR
STARTCHAR 223c
ENCODING 8838
SWIDTH 96 0
DWIDTH 16 0
BBX 16 16 0 -2
BITMAP
0000
0000
0FFC
1000
2000
2000
2000
2000
1000
0FFC
0000
0000
3FFC
0000
0000
0000
ENDCHAR
STARTCHAR 223d
ENCODING 8839
SWIDTH 96 0
DWIDTH 16 0
BBX 16 16 0 -2
BITMAP
0000
0000
3FF0
0008
0004
0004
0004
0004
0008
3FF0
0000
0000
3FFC
0000
0000
0000
ENDCHAR
STARTCHAR 223e
ENCODING 8834
SWIDTH 96 0
DWIDTH 16 0
BBX 16 16 0 -2
BITMAP
0000
0000
0000
07FC
0800
1000
2000
2000
2000
2000
1000
0800
07FC
0000
0000
0000
ENDCHAR
STARTCHAR 223f
ENCODING 8835
SWIDTH 96 0
DWIDTH 16 0
BBX 16 16 0 -2
BITMAP
0000
0000
0000
3FE0
0010
0008
0004
0004
0004
0004
0008
0010
3FE0
0000
0000
0000
ENDCHAR
STARTCHAR 2240
ENCODING 8746
SWIDTH 96 0
DWIDTH 16 0
BBX 16 16 0 -2
BITMAP
0000
0000
1008
1008
1008
1008
1008
1008
1008
1008
1008
0810
0420
03C0
0000
0000
ENDCHAR
STARTCHAR 2241
ENCODING 8745
SWIDTH 96 0
DWIDTH 16 0
BBX 16 16 0 -2
BITMAP
0000
0000
03C0
0420
0810
1008
1008
1008
1008
1008
1008
1008
1008
1008
0000
0000
ENDCHAR
STARTCHAR 224a
ENCODING 8743
SWIDTH 96 0
DWIDTH 16 0
BBX 16 16 0 -2
BITMAP
0000
0000
0100
0100
0280
0280
0440
0440
0820
0820
1010
1010
2008
2008
0000
0000
ENDCHAR
STARTCHAR 224b
ENCODING 8744
SWIDTH 96 0
DWIDTH 16 0
BBX 16 16 0 -2
BITMAP
0000
0000
2008
2008
1010
1010
0820
0820
0440
0440
0280
0280
0100
0100
0000
0000
ENDCHAR
STARTCHAR 224c
ENCODING 172
SWIDTH 96 0
DWIDTH 16 0
BBX 16 16 0 -2
BITMAP
0000
0000
0000
0000
0000
0000
3FFC
0004
0004
0004
0004
0000
0000
0000
0000
0000
ENDCHAR
STARTCHAR 224d
ENCODING 8658
SWIDTH 96 0
DWIDTH 16 0
BBX 16 16 0 -2
BITMAP
0000
0000
0000
0010
0008
FFFC
0002
0001
0002
FFFC
0008
0010
0000
0000
0000
0000
ENDCHAR
STARTCHAR 224e
ENCODING 8660
SWIDTH 96 0
DWIDTH 16 0
BBX 16 16 0 -2
BITMAP
0000
0000
0000
0810
1008
3FFC
4002
8001
4002
3FFC
1008
0810
0000
0000
0000
0000
ENDCHAR
STARTCHAR 224f
ENCODING 8704
SWIDTH 96 0
DWIDTH 16 0
BBX 16 16 0 -2
BITMAP
0000
4004
4004
2008
2008
1FF0
1010
0820
0820
0440
0440
0280
0280
0100
0100
0000
ENDCHAR
STARTCHAR 2250
ENCODING 8707
SWIDTH 96 0
DWIDTH 16 0
BBX 16 16 0 -2
BITMAP
0000
0000
1FF0
0010
0010
0010
0010
1FF0
0010
0010
0010
0010
1FF0
0000
0000
0000
ENDCHAR
STARTCHAR 225c
ENCODING 8736
SWIDTH 96 0
DWIDTH 16 0
BBX 16 16 0 -2
BITMAP
0000
0000
0008
0010
0020
0040
0080
0100
0200
0400
0800
1000
3FFC
0000
0000
0000
ENDCHAR
STARTCHAR 225d
ENCODING 8869
SWIDTH 96 0
DWIDTH 16 0
BBX 16 16 0 -2
BITMAP
0000
0000
0100
0100
0100
0100
0100
0100
0100
0100
0100
0100
3FFC
0000
0000
0000
ENDCHAR
STARTCHAR 225e
ENCODING 8978
SWIDTH 96 0
DWIDTH 16 0
BBX 16 16 0 -2
BITMAP
07E0
381C
C003
0000
0000
0000
0000
0000
0000
0000
0000
0000
0000
0000
0000
0000
ENDCHAR
STARTCHAR 225f
ENCODING 8706
SWIDTH 96 0
DWIDTH 16 0
BBX 16 16 0 -2
BITMAP
0000
01E0
0330
0410
0010
0010
03B0
0460
0820
1860
1040
10C0
1980
0F00
0000
0000
ENDCHAR
STARTCHAR 2260
ENCODING 8711
SWIDTH 96 0
DWIDTH 16 0
BBX 16 16 0 -2
BITMAP
0000
7FFE
3004
300C
1808
1818
0C10
0C30
0620
0660
0340
03C0
0180
0180
0000
0000
ENDCHAR
STARTCHAR 2261
ENCODING 8801
SWIDTH 96 0
DWIDTH 16 0
BBX 16 16 0 -2
BITMAP
0000
0000
0000
3FFC
0000
0000
0000
3FFC
0000
0000
0000
3FFC
0000
0000
0000
0000
ENDCHAR
STARTCHAR 2262
ENCODING 8786
SWIDTH 96 0
DWIDTH 16 0
BBX 16 16 0 -2
BITMAP
0000
0000
1800
1800
0000
3FFC
0000
0000
0000
3FFC
0000
0018
0018
0000
0000
0000
ENDCHAR
STARTCHAR 2263
ENCODING 8810
SWIDTH 96 0
DWIDTH 16 0
BBX 16 16 0 -2
BITMAP
0000
0042
0084
0318
0420
18C0
2100
4200
2100
1080
0840
0630
0108
0084
0042
0000
ENDCHAR
STARTCHAR 2264
ENCODING 8811
SWIDTH 96 0
DWIDTH 16 0
BBX 16 16 0 -2
BITMAP
0000
4200
2100
18C0
0420
0318
0084
0042
0084
0108
0210
0C60
1080
2100
4200
0000
ENDCHAR
STARTCHAR 2265
ENCODING 8730
SWIDTH 96 0
DWIDTH 16 0
BBX 16 16 0 -2
BITMAP
00FF
0080
0080
0100
0100
0100
0100
0200
0200
0200
2200
7400
B400
1C00
1800
0800
ENDCHAR
STARTCHAR 2266
ENCODING 8765
SWIDTH 96 0
DWIDTH 16 0
BBX 16 16 0 -2
BITMAP
0000
0000
0000
0000
1C38
2044
4082
4082
4102
4102
2204
1C38
0000
0000
0000
0000
ENDCHAR
STARTCHAR 2267
ENCODING 8733
SWIDTH 96 0
DWIDTH 16 0
BBX 16 16 0 -2
BITMAP
0000
0000
0000
0000
1C38
2244
4180
4180
4180
4180
2244
1C38
0000
0000
0000
0000
ENDCHAR
STARTCHAR 2268
ENCODING 8757
SWIDTH 96 0
DWIDTH 16 0
BBX 16 16 0 -2
BITMAP
0000
0000
0000
300C
300C
0000
0000
0000
0000
0000
0000
0180
0180
0000
0000
0000
ENDCHAR
STARTCHAR 2269
ENCODING 8747
SWIDTH 96 0
DWIDTH 16 0
BBX 16 16 0 -2
BITMAP
01C0
0240
0200
0200
0300
0300
0100
0180
0180
0080
00C0
00C0
0040
0040
0240
0380
ENDCHAR
STARTCHAR 226a
ENCODING 8748
SWIDTH 96 0
DWIDTH 16 0
BBX 16 16 0 -2
BITMAP
0E38
1248
1040
1040
1860
1860
0820
0C30
0C30
0410
0618
0618
0208
0208
1248
1C70
ENDCHAR
STARTCHAR 2272
ENCODING 8491
SWIDTH 96 0
DWIDTH 16 0
BBX 16 16 0 -2
BITMAP
0180
0240
0240
0180
0000
0100
0280
0280
0440
0420
0FF0
0810
1008
7C3E
0000
0000
ENDCHAR
STARTCHAR 2273
ENCODING 8240
SWIDTH 96 0
DWIDTH 16 0
BBX 16 16 0 -2
BITMAP
0000
3040
4840
4880
4900
4900
4A00
3400
058C
0A52
1252
1252
2252
4252
418C
0000
ENDCHAR
STARTCHAR 2274
ENCODING 9839
SWIDTH 96 0
DWIDTH 16 0
BBX 16 16 0 -2
BITMAP
0020
0420
0420
043C
07FC
3FE0
3C20
0420
0420
043C
07FC
3FE0
3C20
0420
0420
0400
ENDCHAR
STARTCHAR 2275
ENCODING 9837
SWIDTH 96 0
DWIDTH 16 0
BBX 16 16 0 -2
BITMAP
0400
0400
0400
0400
0400
0400
05E0
0630
0430
0430
0430
0460
04C0
0500
0600
0400
ENDCHAR
STARTCHAR 2276
ENCODING 9834
SWIDTH 96 0
DWIDTH 16 0
BBX 16 16 0 -2
BITMAP
0080
0080
00C0
00E0
00B0
0098
008C
0084
0084
0088
0090
0080
0F80
1F80
1F00
0E00
ENDCHAR
STARTCHAR 2277
ENCODING 8224
SWIDTH 96 0
DWIDTH 16 0
BBX 16 16 0 -2
BITMAP
0100
0380
0920
1FF0
0920
0100
07C0
0380
0380
0380
0380
0380
0100
0100
0100
0100
ENDCHAR
STARTCHAR 2278
ENCODING 8225
SWIDTH 96 0
DWIDTH 16 0
BBX 16 16 0 -2
BITMAP
0100
0380
0920
1FF0
0920
0380
0380
0100
0100
0380
0380
0920
1FF0
0920
0380
0100
ENDCHAR
STARTCHAR 2279
ENCODING 182
SWIDTH 96 0
DWIDTH 16 0
BBX 16 16 0 -2
BITMAP
0000
07E0
0F20
1F20
1F20
1F20
0F20
0720
0120
0120
0120
0120
0120
0120
0120
0120
ENDCHAR
STARTCHAR 227e
ENCODING 9711
SWIDTH 96 0
DWIDTH 16 0
BBX 16 16 0 -2
BITMAP
03C0
0C30
1008
2004
4002
4002
8001
8001
8001
8001
4002
4002
2004
1008
0C30
03C0
ENDCHAR
STARTCHAR 2330
ENCODING 65296
SWIDTH 96 0
DWIDTH 16 0
BBX 16 16 0 -2
BITMAP
0000
03C0
0420
0810
0810
1818
1008
1008
1008
1008
1818
0810
0810
0420
03C0
0000
ENDCHAR
STARTCHAR 2331
ENCODING 65297
SWIDTH 96 0
DWIDTH 16 0
BBX 16 16 0 -2
BITMAP
0000
0100
0300
0500
0900
0100
0100
0100
0100
0100
0100
0100
0100
0100
07C0
0000
ENDCHAR
STARTCHAR 2332
ENCODING 65298
SWIDTH 96 0
DWIDTH 16 0
BBX 16 16 0 -2
BITMAP
0000
07E0
0C10
1808
1008
0008
0018
0030
0060
00C0
0180
0300
0600
0C00
1FF8
0000
ENDCHAR
STARTCHAR 2333
ENCODING 65299
SWIDTH 96 0
DWIDTH 16 0
BBX 16 16 0 -2
BITMAP
0000
03E0
0E10
1808
0008
0008
0010
07E0
0010
0008
0008
0008
0018
0070
1FC0
0000
ENDCHAR
STARTCHAR 2334
ENCODING 65300
SWIDTH 96 0
DWIDTH 16 0
BBX 16 16 0 -2
BITMAP
0000
0060
00E0
01A0
0320
0620
0C20
1820
3020
2020
3FFC
0020
0020
0020
00F8
0000
ENDCHAR
STARTCHAR 2335
ENCODING 65301
SWIDTH 96 0
DWIDTH 16 0
BBX 16 16 0 -2
BITMAP
0000
1FF8
1000
1000
1000
1000
17E0
1810
1008
0008
0008
0018
0030
00E0
1F80
0000
ENDCHAR
STARTCHAR 2336
ENCODING 65302
SWIDTH 96 0
DWIDTH 16 0
BBX 16 16 0 -2
BITMAP
0000
00F0
0380
0600
0C00
0800
1BC0
1430
1818
1008
1008
1808
0818
0C30
03C0
0000
ENDCHAR
STARTCHAR 2337
ENCODING 65303
SWIDTH 96 0
DWIDTH 16 0
BBX 16 16 0 -2
BITMAP
0000
1FFC
1008
1018
1010
0030
0020
0060
0040
00C0
0080
0080
0180
0100
0100
0000
ENDCHAR
STARTCHAR 2338
ENCODING 65304
SWIDTH 96 0
DWIDTH 16 0
BBX 16 16 0 -2
BITMAP
0000
03C0
0C30
1818
1008
1008
0810
07E0
0810
1008
1008
1008
1818
0C30
03C0
0000
ENDCHAR
STARTCHAR 2339
ENCODING 65305
SWIDTH 96 0
DWIDTH 16 0
BBX 16 16 0 -2
BITMAP
0000
03C0
0C30
1810
1018
1008
1008
1818
0C28
03D8
0010
0030
0060
01C0
0F00
0000
ENDCHAR
STARTCHAR 2341
ENCODING 65313
SWIDTH 96 0
DWIDTH 16 0
BBX 16 16 0 -2
BITMAP
0000
0100
0380
0280
06C0
0440
0C60
0820
0FE0
1830
1010
3018
2008
F83E
0000
0000
ENDCHAR
STARTCHAR 2342
ENCODING 65314
SWIDTH 96 0
DWIDTH 16 0
BBX 16 16 0 -2
BITMAP
0000
3FE0
0810
0808
0808
0808
0810
0FE0
0818
0804
0804
0804
0808
3FF0
0000
0000
ENDCHAR
STARTCHAR 2343
ENCODING 65315
SWIDTH 96 0
DWIDTH 16 0
BBX 16 16 0 -2
BITMAP
0000
03C8
0C28
1818
1008
3008
2000
2000
2000
3000
1008
1818
0C30
03C0
0000
0000
ENDCHAR
STARTCHAR 2344
ENCODING 65316
SWIDTH 96 0
DWIDTH 16 0
BBX 16 16 0 -2
BITMAP
0000
3FC0
0830
0818
0808
080C
0804
0804
0804
080C
0808
0818
0830
3FC0
0000
0000
ENDCHAR
STARTCHAR 2345
ENCODING 65317
SWIDTH 96 0
DWIDTH 16 0
BBX 16 16 0 -2
BITMAP
0000
3FF8
0808
0804
0800
0840
0840
0FC0
0840
0840
0800
0804
0808
3FF8
0000
0000
ENDCHAR
STARTCHAR 2346
ENCODING 65318
SWIDTH 96 0
DWIDTH 16 0
BBX 16 16 0 -2
BITMAP
0000
1FFC
0404
0404
0400
0420
0420
07E0
0420
0420
0400
0400
0400
1F00
0000
0000
ENDCHAR
STARTCHAR 2347
ENCODING 65319
SWIDTH 96 0
DWIDTH 16 0
BBX 16 16 0 -2
BITMAP
0000
03C8
0C38
1808
1008
3000
2000
2000
203E
3008
1008
1818
0C28
03C8
0000
0000
ENDCHAR
STARTCHAR 2348
ENCODING 65320
SWIDTH 96 0
DWIDTH 16 0
BBX 16 16 0 -2
BITMAP
0000
7C3E
1008
1008
1008
1008
1008
1FF8
1008
1008
1008
1008
1008
7C3E
0000
0000
ENDCHAR
STARTCHAR 2349
ENCODING 65321
SWIDTH 96 0
DWIDTH 16 0
BBX 16 16 0 -2
BITMAP
0000
07C0
0100
0100
0100
0100
0100
0100
0100
0100
0100
0100
0100
07C0
0000
0000
ENDCHAR
STARTCHAR 234a
ENCODING 65322
SWIDTH 96 0
DWIDTH 16 0
BBX 16 16 0 -2
BITMAP
0000
00F8
0020
0020
0020
0020
0020
0020
0020
0020
0020
1020
1840
0F80
0000
0000
ENDCHAR
STARTCHAR 234b
ENCODING 65323
SWIDTH 96 0
DWIDTH 16 0
BBX 16 16 0 -2
BITMAP
0000
3E7C
0830
0860
08C0
0980
0B00
0F00
0980
08C0
0860
0830
0818
3E3E
0000
0000
ENDCHAR
STARTCHAR 234c
ENCODING 65324
SWIDTH 96 0
DWIDTH 16 0
BBX 16 16 0 -2
BITMAP
0000
1F00
0400
0400
0400
0400
0400
0400
0400
0400
0404
0404
0404
1FFC
0000
0000
ENDCHAR
STARTCHAR 234d
ENCODING 65325
SWIDTH 96 0
DWIDTH 16 0
BBX 16 16 0 -2
BITMAP
0000
F01E
3018
3838
2828
2828
2C68
2448
2448
26C8
2288
2388
2108
F11E
0000
0000
ENDCHAR
STARTCHAR 234e
ENCODING 65326
SWIDTH 96 0
DWIDTH 16 0
BBX 16 16 0 -2
BITMAP
0000
783E
1C08
1408
1608
1308
1108
1188
10C8
1048
1068
1038
1018
7808
0000
0000
ENDCHAR
STARTCHAR 234f
ENCODING 65327
SWIDTH 96 0
DWIDTH 16 0
BBX 16 16 0 -2
BITMAP
0000
03C0
0C30
1818
1008
300C
2004
2004
2004
300C
1008
1818
0C30
03C0
0000
0000
ENDCHAR
STARTCHAR 2350
ENCODING 65328
SWIDTH 96 0
DWIDTH 16 0
BBX 16 16 0 -2
BITMAP
0000
1FF0
0408
0404
0404
0404
0408
07F0
0400
0400
0400
0400
0400
1F00
0000
0000
ENDCHAR
STARTCHAR 2351
ENCODING 65329
SWIDTH 96 0
DWIDTH 16 0
BBX 16 16 0 -2
BITMAP
0000
03C0
0C30
1818
1008
300C
2004
2004
2004
300C
1188
1A58
0C30
03D2
000C
0000
ENDCHAR
STARTCHAR 2352
ENCODING 65330
SWIDTH 96 0
DWIDTH 16 0
BBX 16 16 0 -2
BITMAP
0000
3FE0
0810
0808
0808
0808
0810
0FE0
0820
0830
0810
0818
0808
3E3E
0000
0000
ENDCHAR
STARTCHAR 2353
ENCODING 65331
SWIDTH 96 0
DWIDTH 16 0
BBX 16 16 0 -2
BITMAP
0000
07C8
0828
1018
1008
1008
0C00
03C0
0030
1008
1008
1808
1410
13E0
0000
0000
ENDCHAR
STARTCHAR 2354
ENCODING 65332
SWIDTH 96 0
DWIDTH 16 0
BBX 16 16 0 -2
BITMAP
0000
7FFC
4104
4104
0100
0100
0100
0100
0100
0100
0100
0100
0100
07C0
0000
0000
ENDCHAR
STARTCHAR 2355
ENCODING 65333
SWIDTH 96 0
DWIDTH 16 0
BBX 16 16 0 -2
BITMAP
0000
7C3E
1008
1008
1008
1008
1008
1008
1008
1008
1008
1818
0C30
03C0
0000
0000
ENDCHAR
STARTCHAR 2356
ENCODING 65334
SWIDTH 96 0
DWIDTH 16 0
BBX 16 16 0 -2
BITMAP
0000
7C3E
1008
1818
0810
0830
0C20
0420
0460
0640
02C0
0280
0380
0100
0000
0000
ENDCHAR
STARTCHAR 2357
ENCODING 65335
SWIDTH 96 0
DWIDTH 16 0
BBX 16 16 0 -2
BITMAP
0000
F99F
2184
2184
23C4
324C
1248
1668
1428
1428
1C38
0C30
0810
0810
0000
0000
ENDCHAR
STARTCHAR 2358
ENCODING 65336
SWIDTH 96 0
DWIDTH 16 0
BBX 16 16 0 -2
BITMAP
0000
7C7C
1010
1830
0C60
06C0
0380
0100
0380
06C0
0C60
1830
1010
787C
0000
0000
ENDCHAR
STARTCHAR 2359
ENCODING 65337
SWIDTH 96 0
DWIDTH 16 0
BBX 16 16 0 -2
BITMAP
0000
7C7C
1010
1830
0820
0C60
0440
06C0
0380
0100
0100
0100
0100
07C0
0000
0000
ENDCHAR
STARTCHAR 235a
ENCODING 65338
SWIDTH 96 0
DWIDTH 16 0
BBX 16 16 0 -2
BITMAP
0000
1FF8
1030
1060
0040
00C0
0180
0100
0300
0600
0400
0C08
1808
3FF8
0000
0000
ENDCHAR
STARTCHAR 2361
ENCODING 65345
SWIDTH 96 0
DWIDTH 16 0
BBX 16 16 0 -2
BITMAP
0000
0000
0000
0000
0000
0000
07C0
0020
0020
07E0
0820
0820
0868
0798
0000
0000
ENDCHAR
STARTCHAR 2362
ENCODING 65346
SWIDTH 96 0
DWIDTH 16 0
BBX 16 16 0 -2
BITMAP
0000
1C00
0400
0400
0400
0400
05E0
0610
0408
0408
0408
0408
0610
05E0
0000
0000
ENDCHAR
STARTCHAR 2363
ENCODING 65347
SWIDTH 96 0
DWIDTH 16 0
BBX 16 16 0 -2
BITMAP
0000
0000
0000
0000
0000
0000
03E0
0410
0800
0800
0800
0800
0410
03E0
0000
0000
ENDCHAR
STARTCHAR 2364
ENCODING 65348
SWIDTH 96 0
DWIDTH 16 0
BBX 16 16 0 -2
BITMAP
0000
00E0
0020
0020
0020
0020
07A0
0860
1020
1020
1020
1020
0860
07B8
0000
0000
ENDCHAR
STARTCHAR 2365
ENCODING 65349
SWIDTH 96 0
DWIDTH 16 0
BBX 16 16 0 -2
BITMAP
0000
0000
0000
0000
0000
0000
03C0
0420
0810
0FF0
0800
0800
0410
03E0
0000
0000
ENDCHAR
STARTCHAR 2366
ENCODING 65350
SWIDTH 96 0
DWIDTH 16 0
BBX 16 16 0 -2
BITMAP
0000
0078
0088
0100
0100
0100
0FE0
0100
0100
0100
0100
0100
0100
07C0
0000
0000
ENDCHAR
STARTCHAR 2367
ENCODING 65351
SWIDTH 96 0
DWIDTH 16 0
BBX 16 16 0 -2
BITMAP
0000
0000
0000
0000
0000
0000
07D8
0820
0820
0820
07C0
0800
0FF0
1008
1008
0FF0
ENDCHAR
STARTCHAR 2368
ENCODING 65352
SWIDTH 96 0
DWIDTH 16 0
BBX 16 16 0 -2
BITMAP
0000
1C00
0400
0400
0400
0400
05E0
0630
0410
0410
0410
0410
0410
1E3C
0000
0000
ENDCHAR
STARTCHAR 2369
ENCODING 65353
SWIDTH 96 0
DWIDTH 16 0
BBX 16 16 0 -2
BITMAP
0000
0000
0180
0180
0000
0000
0380
0080
0080
0080
0080
0080
0080
03E0
0000
0000
ENDCHAR
STARTCHAR 236a
ENCODING 65354
SWIDTH 96 0
DWIDTH 16 0
BBX 16 16 0 -2
BITMAP
0000
0000
00C0
00C0
0000
0000
01C0
0040
0040
0040
0040
0040
0040
0040
1080
1F00
ENDCHAR
STARTCHAR 236b
ENCODING 65355
SWIDTH 96 0
DWIDTH 16 0
BBX 16 16 0 -2
BITMAP
0000
3800
0800
0800
0800
0800
08F8
0860
0980
0E00
0900
08C0
0830
3E7C
0000
0000
ENDCHAR
STARTCHAR 236c
ENCODING 65356
SWIDTH 96 0
DWIDTH 16 0
BBX 16 16 0 -2
BITMAP
0000
0700
0100
0100
0100
0100
0100
0100
0100
0100
0100
0100
0100
07C0
0000
0000
ENDCHAR
STARTCHAR 236d
ENCODING 65357
SWIDTH 96 0
DWIDTH 16 0
BBX 16 16 0 -2
BITMAP
0000
0000
0000
0000
0000
0000
3738
18C4
1084
1084
1084
1084
1084
39CE
0000
0000
ENDCHAR
STARTCHAR 236e
ENCODING 65358
SWIDTH 96 0
DWIDTH 16 0
BBX 16 16 0 -2
BITMAP
0000
0000
0000
0000
0000
0000
1DE0
0630
0410
0410
0410
0410
0410
1E3C
0000
0000
ENDCHAR
STARTCHAR 236f
ENCODING 65359
SWIDTH 96 0
DWIDTH 16 0
BBX 16 16 0 -2
BITMAP
0000
0000
0000
0000
0000
0000
03C0
0420
0810
0810
0810
0810
0420
03C0
0000
0000
ENDCHAR
STARTCHAR 2370
ENCODING 65360
SWIDTH 96 0
DWIDTH 16 0
BBX 16 16 0 -2
BITMAP
0000
0000
0000
0000
0000
0000
1DE0
0610
0408
0408
0408
0610
05E0
0400
0400
1F00
ENDCHAR
STARTCHAR 2371
ENCODING 65361
SWIDTH 96 0
DWIDTH 16 0
BBX 16 16 0 -2
BITMAP
0000
0000
0000
0000
0000
0000
07A0
0860
1020
1020
1020
0860
07A0
0020
0020
00F8
ENDCHAR
STARTCHAR 2372
ENCODING 65362
SWIDTH 96 0
DWIDTH 16 0
BBX 16 16 0 -2
BITMAP
0000
0000
0000
0000
0000
0000
0E70
0290
0300
0200
0200
0200
0200
0F80
0000
0000
ENDCHAR
STARTCHAR 2373
ENCODING 65363
SWIDTH 96 0
DWIDTH 16 0
BBX 16 16 0 -2
BITMAP
0000
0000
0000
0000
0000
0000
07D0
0830
0810
0780
0060
0810
0C10
0BE0
0000
0000
ENDCHAR
STARTCHAR 2374
ENCODING 65364
SWIDTH 96 0
DWIDTH 16 0
BBX 16 16 0 -2
BITMAP
0000
0000
0200
0200
0200
0200
1FE0
0200
0200
0200
0200
0200
0110
00F0
0000
0000
ENDCHAR
STARTCHAR 2375
ENCODING 65365
SWIDTH 96 0
DWIDTH 16 0
BBX 16 16 0 -2
BITMAP
0000
0000
0000
0000
0000
0000
1C70
0410
0410
0410
0410
0410
0630
03DC
0000
0000
ENDCHAR
STARTCHAR 2376
ENCODING 65366
SWIDTH 96 0
DWIDTH 16 0
BBX 16 16 0 -2
BITMAP
0000
0000
0000
0000
0000
0000
3C78
0820
0C60
0440
06C0
0280
0380
0100
0000
0000
ENDCHAR
STARTCHAR 2377
ENCODING 65367
SWIDTH 96 0
DWIDTH 16 0
BBX 16 16 0 -2
BITMAP
0000
0000
0000
0000
0000
0000
799E
1188
1BD8
0A50
0A50
0E70
0420
0420
0000
0000
ENDCHAR
STARTCHAR 2378
ENCODING 65368
SWIDTH 96 0
DWIDTH 16 0
BBX 16 16 0 -2
BITMAP
0000
0000
0000
0000
0000
0000
1E78
0420
0240
0180
0240
0420
0810
3E7C
0000
0000
ENDCHAR
STARTCHAR 2379
ENCODING 65369
SWIDTH 96 0
DWIDTH 16 0
BBX 16 16 0 -2
BITMAP
0000
0000
0000
0000
0000
0000
1E3C
0410
0630
0220
0360
0140
00C0
0180
1300
1E00
ENDCHAR
STARTCHAR 237a
ENCODING 65370
SWIDTH 96 0
DWIDTH 16 0
BBX 16 16 0 -2
BITMAP
0000
0000
0000
0000
0000
0000
0FF0
0820
0840
0080
0100
0210
0410
0FF0
0000
0000
ENDCHAR
STARTCHAR 2421
ENCODING 12353
SWIDTH 96 0
DWIDTH 16 0
BBX 16 16 0 -2
BITMAP
0000
0000
0000
0000
0100
0100
1FF8
0240
03F0
0658
0A4C
1284
1284
110C
0E18
0060
ENDCHAR
STARTCHAR 2422
ENCODING 12354
SWIDTH 96 0
DWIDTH 16 0
BBX 16 16 0 -2
BITMAP
0200
0200
3FF8
0400
0440
07F0
1C5C
3444
2446
6482
4482
4506
4604
381C
0070
0000
ENDCHAR
STARTCHAR 2423
ENCODING 12355
SWIDTH 96 0
DWIDTH 16 0
BBX 16 16 0 -2
BITMAP
0000
0000
0000
0000
0000
0000
1000
1030
1018
1008
100C
1804
0A04
0E00
0400
0000
ENDCHAR
STARTCHAR 2424
ENCODING 12356
SWIDTH 96 0
DWIDTH 16 0
BBX 16 16 0 -2
BITMAP
0000
0000
2000
2010
2018
200C
2004
2006
2002
2002
3202
1600
1C00
0800
0000
0000
ENDCHAR
STARTCHAR 2425
ENCODING 12357
SWIDTH 96 0
DWIDTH 16 0
BBX 16 16 0 -2
BITMAP
0000
0000
0000
0000
0600
0380
00E0
0000
0FE0
0010
0010
0010
0030
0060
01C0
0700
ENDCHAR
STARTCHAR 2426
ENCODING 12358
SWIDTH 96 0
DWIDTH 16 0
BBX 16 16 0 -2
BITMAP
0600
0380
00E0
0000
0000
1FF0
0018
0008
0008
0008
0018
0030
0060
01C0
0F00
0000
ENDCHAR
STARTCHAR 2427
ENCODING 12359
SWIDTH 96 0
DWIDTH 16 0
BBX 16 16 0 -2
BITMAP
0000
0000
0000
0000
0600
0380
00E0
0000
0FE0
0040
0080
0100
0780
0C80
1880
0078
ENDCHAR
STARTCHAR 2428
ENCODING 12360
SWIDTH 96 0
DWIDTH 16 0
BBX 16 16 0 -2
BITMAP
0600
0380
00E0
0000
1FF0
0020
0040
0080
0100
03C0
0640
0C40
1840
3060
003E
0000
ENDCHAR
STARTCHAR 2429
ENCODING 12361
SWIDTH 96 0
DWIDTH 16 0
BBX 16 16 0 -2
BITMAP
0000
0000
0000
0000
0200
0210
03D8
1E08
0200
03E0
0610
0A08
1208
1218
0C70
0000
ENDCHAR
STARTCHAR 242a
ENCODING 12362
SWIDTH 96 0
DWIDTH 16 0
BBX 16 16 0 -2
BITMAP
0400
0400
040C
07C6
7C02
0400
0400
05F8
070C
1C06
3402
6402
4406
4C0C
3838
0000
ENDCHAR
STARTCHAR 242b
ENCODING 12363
SWIDTH 96 0
DWIDTH 16 0
BBX 16 16 0 -2
BITMAP
0400
0400
0408
040C
7F86
0442
0443
0C41
0841
0840
1840
1040
30C0
6080
0380
0000
ENDCHAR
STARTCHAR 242c
ENCODING 12364
SWIDTH 96 0
DWIDTH 16 0
BBX 16 16 0 -2
BITMAP
0405
0405
0410
0418
7F8C
0444
0446
0C42
0842
0840
1840
1040
30C0
6080
0380
0000
ENDCHAR
STARTCHAR 242d
ENCODING 12365
SWIDTH 96 0
DWIDTH 16 0
BBX 16 16 0 -2
BITMAP
0200
0200
3FF8
0100
0100
3FFC
0080
0040
0FF0
1018
2000
2000
3000
1C00
07F0
0000
ENDCHAR
STARTCHAR 242e
ENCODING 12366
SWIDTH 96 0
DWIDTH 16 0
BBX 16 16 0 -2
BITMAP
0205
0205
3FF0
0100
0100
3FF8
0080
0040
0FF0
1018
2000
2000
3000
1C00
07F0
0000
ENDCHAR
STARTCHAR 242f
ENCODING 12367
SWIDTH 96 0
DWIDTH 16 0
BBX 16 16 0 -2
BITMAP
0010
0030
0060
00C0
0180
0300
0C00
1800
0C00
0600
0300
0180
00C0
0060
0030
0010
ENDCHAR
STARTCHAR 2430
ENCODING 12368
SWIDTH 96 0
DWIDTH 16 0
BBX 16 16 0 -2
BITMAP
0010
0035
0065
00C0
0180
0300
0C00
1800
0C00
0600
0300
0180
00C0
0060
0030
0010
ENDCHAR
STARTCHAR 2431
ENCODING 12369
SWIDTH 96 0
DWIDTH 16 0
BBX 16 16 0 -2
BITMAP
0010
2010
2010
6010
47FF
4010
4010
4010
4010
4010
5010
6030
2020
0060
00C0
0000
ENDCHAR
STARTCHAR 2432
ENCODING 12370
SWIDTH 96 0
DWIDTH 16 0
BBX 16 16 0 -2
BITMAP
0025
2025
2020
6020
47FE
4020
4020
4020
4020
4020
5020
6060
2040
00C0
0180
0000
ENDCHAR
STARTCHAR 2433
ENCODING 12371
SWIDTH 96 0
DWIDTH 16 0
BBX 16 16 0 -2
BITMAP
0000
0000
1FF8
0000
0000
0000
0000
0000
0000
0000
2000
3000
1C00
07FC
0000
0000
ENDCHAR
STARTCHAR 2434
ENCODING 12372
SWIDTH 96 0
DWIDTH 16 0
BBX 16 16 0 -2
BITMAP
0005
0005
1FF0
0000
0000
0000
0000
0000
0000
0000
2000
3000
1C00
07FC
0000
0000
ENDCHAR
STARTCHAR 2435
ENCODING 12373
SWIDTH 96 0
DWIDTH 16 0
BBX 16 16 0 -2
BITMAP
0400
0600
0200
7FFC
0100
0180
00C0
0060
0FF8
100C
2000
2000
3000
1C00
07F0
0000
ENDCHAR
STARTCHAR 2436
ENCODING 12374
SWIDTH 96 0
DWIDTH 16 0
BBX 16 16 0 -2
BITMAP
0405
0605
0200
7FFC
0100
0180
00C0
0060
0FF8
100C
2000
2000
3000
1C00
07F0
0000
ENDCHAR
STARTCHAR 2437
ENCODING 12375
SWIDTH 96 0
DWIDTH 16 0
BBX 16 16 0 -2
BITMAP
0000
0800
0800
0800
0800
0800
0800
0800
0800
0800
0804
080C
0818
0470
03C0
0000
ENDCHAR
STARTCHAR 2438
ENCODING 12376
SWIDTH 96 0
DWIDTH 16 0
BBX 16 16 0 -2
BITMAP
0000
0800
0850
0850
0800
0800
0800
0800
0800
0800
0804
080C
0818
0470
03C0
0000
ENDCHAR
STARTCHAR 2439
ENCODING 12377
SWIDTH 96 0
DWIDTH 16 0
BBX 16 16 0 -2
BITMAP
0080
0080
0080
FFFF
0080
0080
0780
0CC0
0840
0840
0C40
07C0
0080
0180
0300
0E00
ENDCHAR
STARTCHAR 243a
ENCODING 12378
SWIDTH 96 0
DWIDTH 16 0
BBX 16 16 0 -2
BITMAP
0085
0085
0080
FFFF
0080
0080
0780
0CC0
0840
0840
0C40
07C0
0080
0180
0300
0E00
ENDCHAR
STARTCHAR 243b
ENCODING 12379
SWIDTH 96 0
DWIDTH 16 0
BBX 16 16 0 -2
BITMAP
0000
0810
0810
0810
0810
FFFF
0810
0810
0810
0810
0860
0800
0800
0400
03FC
0000
ENDCHAR
STARTCHAR 243c
ENCODING 12380
SWIDTH 96 0
DWIDTH 16 0
BBX 16 16 0 -2
BITMAP
0005
0825
0820
0820
0820
FFFF
0820
0820
0820
0820
08C0
0800
0800
0400
03FC
0000
ENDCHAR
STARTCHAR 243d
ENCODING 12381
SWIDTH 96 0
DWIDTH 16 0
BBX 16 16 0 -2
BITMAP
0000
1FF8
0030
00C0
0180
0300
0C00
7FFE
0180
0300
0600
0400
0400
0600
0380
00F0
ENDCHAR
STARTCHAR 243e
ENCODING 12382
SWIDTH 96 0
DWIDTH 16 0
BBX 16 16 0 -2
BITMAP
0000
1FF0
0065
00C5
0180
0300
0C00
7FFE
0180
0300
0600
0400
0400
0600
0380
00F0
ENDCHAR
STARTCHAR 243f
ENCODING 12383
SWIDTH 96 0
DWIDTH 16 0
BBX 16 16 0 -2
BITMAP
0400
0400
0400
7F80
0800
087C
0800
1800
1000
1000
3000
2000
2080
60C0
407E
0000
ENDCHAR
STARTCHAR 2440
ENCODING 12384
SWIDTH 96 0
DWIDTH 16 0
BBX 16 16 0 -2
BITMAP
040A
040A
0400
7F80
0800
087C
0800
1800
1000
1000
3000
2000
2080
60C0
407E
0000
ENDCHAR
STARTCHAR 2441
ENCODING 12385
SWIDTH 96 0
DWIDTH 16 0
BBX 16 16 0 -2
BITMAP
0100
0100
0100
7FFC
0200
0600
0400
0FF0
1808
3004
0004
0004
000C
0038
07E0
0000
ENDCHAR
STARTCHAR 2442
ENCODING 12386
SWIDTH 96 0
DWIDTH 16 0
BBX 16 16 0 -2
BITMAP
0105
0105
0100
7FFC
0200
0600
0400
0FF0
1808
3004
0004
0004
000C
0038
07E0
0000
ENDCHAR
STARTCHAR 2443
ENCODING 12387
SWIDTH 96 0
DWIDTH 16 0
BBX 16 16 0 -2
BITMAP
0000
0000
0000
0000
0000
0000
0000
01E0
0710
1C08
0008
0008
0018
0030
00E0
0000
ENDCHAR
STARTCHAR 2444
ENCODING 12388
SWIDTH 96 0
DWIDTH 16 0
BBX 16 16 0 -2
BITMAP
0000
0000
0000
03F8
1E04
7002
0002
0002
0002
0006
000C
0038
00E0
0000
0000
0000
ENDCHAR
STARTCHAR 2445
ENCODING 12389
SWIDTH 96 0
DWIDTH 16 0
BBX 16 16 0 -2
BITMAP
0005
0005
0000
03F8
1E04
7002
0002
0002
0002
0006
000C
0038
00E0
0000
0000
0000
ENDCHAR
STARTCHAR 2446
ENCODING 12390
SWIDTH 96 0
DWIDTH 16 0
BBX 16 16 0 -2
BITMAP
0000
0000
7FFE
0060
00C0
0180
0100
0300
0200
0200
0200
0300
0180
00E0
0038
0000
ENDCHAR
STARTCHAR 2447
ENCODING 12391
SWIDTH 96 0
DWIDTH 16 0
BBX 16 16 0 -2
BITMAP
0000
0000
7FFC
0060
00C5
0185
0100
0300
0200
0200
0200
0300
0180
00E0
0038
0000
ENDCHAR
STARTCHAR 2448
ENCODING 12392
SWIDTH 96 0
DWIDTH 16 0
BBX 16 16 0 -2
BITMAP
0000
1000
1800
0800
0C0C
0438
06E0
0380
0600
0C00
1800
1000
1000
1800
0FFC
0000
ENDCHAR
STARTCHAR 2449
ENCODING 12393
SWIDTH 96 0
DWIDTH 16 0
BBX 16 16 0 -2
BITMAP
0005
1005
1800
0800
0C0C
0438
06E0
0380
0600
0C00
1800
1000
1000
1800
0FFC
0000
ENDCHAR
STARTCHAR 244a
ENCODING 12394
SWIDTH 96 0
DWIDTH 16 0
BBX 16 16 0 -2
BITMAP
0800
0800
0818
7F0C
0806
1800
1020
1020
3020
2020
6020
03E0
0438
046C
03C0
0000
ENDCHAR
STARTCHAR 244b
ENCODING 12395
SWIDTH 96 0
DWIDTH 16 0
BBX 16 16 0 -2
BITMAP
0000
1000
1000
31FC
2000
2000
2000
2000
2000
2000
2200
2200
2B00
31FE
1000
0000
ENDCHAR
STARTCHAR 244c
ENCODING 12396
SWIDTH 96 0
DWIDTH 16 0
BBX 16 16 0 -2
BITMAP
0080
0080
2080
2080
37F0
1C9C
1084
3986
2902
6D02
4702
423A
4744
4D4E
383B
0000
ENDCHAR
STARTCHAR 244d
ENCODING 12397
SWIDTH 96 0
DWIDTH 16 0
BBX 16 16 0 -2
BITMAP
0800
0800
0800
08F8
798C
0B06
0E02
0C02
0802
1802
383A
6844
084E
083B
0800
0000
ENDCHAR
STARTCHAR 244e
ENCODING 12398
SWIDTH 96 0
DWIDTH 16 0
BBX 16 16 0 -2
BITMAP
0000
0000
03E0
0EB8
188C
3084
2186
6102
4302
4202
4606
4C04
381C
0070
0000
0000
ENDCHAR
STARTCHAR 244f
ENCODING 12399
SWIDTH 96 0
DWIDTH 16 0
BBX 16 16 0 -2
BITMAP
0000
2020
2020
6020
47FE
4020
4020
4020
4020
4020
43E0
4438
542C
6466
23C0
0000
ENDCHAR
STARTCHAR 2450
ENCODING 12400
SWIDTH 96 0
DWIDTH 16 0
BBX 16 16 0 -2
BITMAP
0005
2025
2020
6020
47FE
4020
4020
4020
4020
4020
43E0
4438
542C
6466
23C0
0000
ENDCHAR
STARTCHAR 2451
ENCODING 12401
SWIDTH 96 0
DWIDTH 16 0
BBX 16 16 0 -2
BITMAP
0000
2040
2046
6049
47F9
4046
4040
4040
4040
4040
43C0
4470
5458
64CC
2380
0000
ENDCHAR
STARTCHAR 2452
ENCODING 12402
SWIDTH 96 0
DWIDTH 16 0
BBX 16 16 0 -2
BITMAP
0000
0210
7E10
0418
0C1C
1816
1013
3010
2010
2010
2010
2030
3020
18E0
0F80
0000
ENDCHAR
STARTCHAR 2453
ENCODING 12403
SWIDTH 96 0
DWIDTH 16 0
BBX 16 16 0 -2
BITMAP
0005
0215
7E10
0418
0C1C
1816
1013
3010
2010
2010
2010
2030
3020
18E0
0F80
0000
ENDCHAR
STARTCHAR 2454
ENCODING 12404
SWIDTH 96 0
DWIDTH 16 0
BBX 16 16 0 -2
BITMAP
0000
0840
F846
1049
3069
2076
2058
6040
4040
4040
4040
4040
60C0
3180
1F00
0000
ENDCHAR
STARTCHAR 2455
ENCODING 12405
SWIDTH 96 0
DWIDTH 16 0
BBX 16 16 0 -2
BITMAP
0000
0400
0600
0380
00C0
0000
0600
0300
018C
4086
40C2
5843
7041
20C0
0380
0000
ENDCHAR
STARTCHAR 2456
ENCODING 12406
SWIDTH 96 0
DWIDTH 16 0
BBX 16 16 0 -2
BITMAP
0000
040A
060A
0380
00C0
0000
0600
0300
018C
4086
40C2
5843
7041
20C0
0380
0000
ENDCHAR
STARTCHAR 2457
ENCODING 12407
SWIDTH 96 0
DWIDTH 16 0
BBX 16 16 0 -2
BITMAP
0000
0400
060C
0392
00D2
000C
0600
0300
018C
4086
40C2
5843
7041
20C0
0380
0000
ENDCHAR
STARTCHAR 2458
ENCODING 12408
SWIDTH 96 0
DWIDTH 16 0
BBX 16 16 0 -2
BITMAP
0000
0000
0000
0600
0900
1980
1080
30C0
6060
0030
0018
000C
0006
0000
0000
0000
ENDCHAR
STARTCHAR 2459
ENCODING 12409
SWIDTH 96 0
DWIDTH 16 0
BBX 16 16 0 -2
BITMAP
0000
0028
0028
0600
0900
1980
1080
30C0
6060
0030
0018
000C
0006
0000
0000
0000
ENDCHAR
STARTCHAR 245a
ENCODING 12410
SWIDTH 96 0
DWIDTH 16 0
BBX 16 16 0 -2
BITMAP
0000
0000
0000
0618
0924
19A4
1098
30C0
6060
0030
0018
000C
0006
0000
0000
0000
ENDCHAR
STARTCHAR 245b
ENCODING 12411
SWIDTH 96 0
DWIDTH 16 0
BBX 16 16 0 -2
BITMAP
0000
2000
27FE
6020
4020
4020
47FE
4020
4020
4020
43E0
4438
542C
6466
23C0
0000
ENDCHAR
STARTCHAR 245c
ENCODING 12412
SWIDTH 96 0
DWIDTH 16 0
BBX 16 16 0 -2
BITMAP
0005
2005
27F8
6020
4020
4020
47FC
4020
4020
4020
43E0
4438
542C
6466
23C0
0000
ENDCHAR
STARTCHAR 245d
ENCODING 12413
SWIDTH 96 0
DWIDTH 16 0
BBX 16 16 0 -2
BITMAP
0000
2000
27F6
6049
4049
4046
47F8
4040
4040
4040
43C0
4470
5458
64CC
2380
0000
ENDCHAR
STARTCHAR 245e
ENCODING 12414
SWIDTH 96 0
DWIDTH 16 0
BBX 16 16 0 -2
BITMAP
0080
0080
0080
3FFC
0080
0080
3FFC
0080
0080
0080
1F80
20E0
20B8
218C
1F00
0000
ENDCHAR
STARTCHAR 245f
ENCODING 12415
SWIDTH 96 0
DWIDTH 16 0
BBX 16 16 0 -2
BITMAP
0000
0000
1F00
0100
0108
0108
0108
1FF8
320E
660B
4418
4C10
5830
3060
00C0
0000
ENDCHAR
STARTCHAR 2460
ENCODING 12416
SWIDTH 96 0
DWIDTH 16 0
BBX 16 16 0 -2
BITMAP
0800
0800
0800
7F18
080C
0806
0802
3800
4800
4800
4800
4808
3808
0C18
07F0
0000
ENDCHAR
STARTCHAR 2461
ENCODING 12417
SWIDTH 96 0
DWIDTH 16 0
BBX 16 16 0 -2
BITMAP
0040
0040
2040
2040
37F0
1C9C
1084
3886
2D82
6502
4702
4206
4F04
391C
0070
0000
ENDCHAR
STARTCHAR 2462
ENCODING 12418
SWIDTH 96 0
DWIDTH 16 0
BBX 16 16 0 -2
BITMAP
0200
0200
0200
3FE0
0200
0200
3FE0
0400
0400
0404
0404
0404
060C
0318
01F0
0000
ENDCHAR
STARTCHAR 2463
ENCODING 12419
SWIDTH 96 0
DWIDTH 16 0
BBX 16 16 0 -2
BITMAP
0000
0000
0000
0000
00C0
0860
0C20
04F8
0784
1E04
3304
0118
0100
0180
0080
0080
ENDCHAR
STARTCHAR 2464
ENCODING 12420
SWIDTH 96 0
DWIDTH 16 0
BBX 16 16 0 -2
BITMAP
0000
10C0
1860
0820
0CFC
0782
3C02
E606
021C
0200
0300
0100
0100
0180
0080
0080
ENDCHAR
STARTCHAR 2465
ENCODING 12421
SWIDTH 96 0
DWIDTH 16 0
BBX 16 16 0 -2
BITMAP
0000
0000
0000
0000
0040
0840
09F0
1248
1444
1444
1844
0A48
09F0
0040
00C0
0180
ENDCHAR
STARTCHAR 2466
ENCODING 12422
SWIDTH 96 0
DWIDTH 16 0
BBX 16 16 0 -2
BITMAP
0000
0040
2040
23F8
664C
4C46
4842
5042
5042
6046
264C
23F8
0040
00C0
0180
0000
ENDCHAR
STARTCHAR 2467
ENCODING 12423
SWIDTH 96 0
DWIDTH 16 0
BBX 16 16 0 -2
BITMAP
0000
0000
0000
0000
0100
0100
0100
01F0
0100
0100
0100
0100
0F00
11E0
1130
0E00
ENDCHAR
STARTCHAR 2468
ENCODING 12424
SWIDTH 96 0
DWIDTH 16 0
BBX 16 16 0 -2
BITMAP
0080
0080
0080
0080
00FC
0080
0080
0080
0080
0080
1F80
20E0
20B8
218C
1F00
0000
ENDCHAR
STARTCHAR 2469
ENCODING 12425
SWIDTH 96 0
DWIDTH 16 0
BBX 16 16 0 -2
BITMAP
0180
00C0
0860
0800
1800
1000
1000
13F8
1E0C
3004
0004
0004
000C
0038
01E0
0000
ENDCHAR
STARTCHAR 246a
ENCODING 12426
SWIDTH 96 0
DWIDTH 16 0
BBX 16 16 0 -2
BITMAP
0000
0808
0808
0808
0808
0808
0808
0A08
0C08
0808
0018
0010
0030
0060
01C0
0000
ENDCHAR
STARTCHAR 246b
ENCODING 12427
SWIDTH 96 0
DWIDTH 16 0
BBX 16 16 0 -2
BITMAP
0000
1FF0
0060
00C0
0180
0300
07F0
0C18
180C
3004
0704
0984
088C
0C98
07F0
0000
ENDCHAR
STARTCHAR 246c
ENCODING 12428
SWIDTH 96 0
DWIDTH 16 0
BBX 16 16 0 -2
BITMAP
0800
0800
0800
08E0
7990
0B10
0E10
0C10
0810
1810
3810
6811
0813
080E
0800
0000
ENDCHAR
STARTCHAR 246d
ENCODING 12429
SWIDTH 96 0
DWIDTH 16 0
BBX 16 16 0 -2
BITMAP
0000
1FF0
0060
00C0
0180
0300
07F0
0C18
180C
3004
0004
000C
0018
0070
03C0
0000
ENDCHAR
STARTCHAR 246e
ENCODING 12430
SWIDTH 96 0
DWIDTH 16 0
BBX 16 16 0 -2
BITMAP
0000
0000
0000
0000
0400
0400
0400
3C70
0588
0604
0404
0C04
1C04
3408
0430
0400
ENDCHAR
STARTCHAR 246f
ENCODING 12431
SWIDTH 96 0
DWIDTH 16 0
BBX 16 16 0 -2
BITMAP
0800
0800
0800
08F8
798C
0B06
0E02
0C02
0802
1802
3802
6806
080C
0838
0800
0000
ENDCHAR
STARTCHAR 2470
ENCODING 12432
SWIDTH 96 0
DWIDTH 16 0
BBX 16 16 0 -2
BITMAP
0000
0F80
0080
0080
0080
03F8
0D0C
1906
3302
2602
6462
4CB2
5896
30CC
0078
0000
ENDCHAR
STARTCHAR 2471
ENCODING 12433
SWIDTH 96 0
DWIDTH 16 0
BBX 16 16 0 -2
BITMAP
0000
1FF0
00C0
0300
0FF0
3818
0008
0E08
1318
1930
0FE0
0800
3E7C
63C6
C083
0000
ENDCHAR
STARTCHAR 2472
ENCODING 12434
SWIDTH 96 0
DWIDTH 16 0
BBX 16 16 0 -2
BITMAP
0200
0200
03E0
3E00
0400
0406
0F9C
1870
31C0
0340
0640
0C40
0800
0C00
07FC
0000
ENDCHAR
STARTCHAR 2473
ENCODING 12435
SWIDTH 96 0
DWIDTH 16 0
BBX 16 16 0 -2
BITMAP
0200
0200
0600
0400
0C00
0800
0800
1B80
1440
1840
3040
2042
2046
604C
4038
0000
ENDCHAR
STARTCHAR 2521
ENCODING 12449
SWIDTH 96 0
DWIDTH 16 0
BBX 16 16 0 -2
BITMAP
0000
0000
0000
0000
0000
0000
1FFC
000C
0118
0130
0100
0100
0300
0200
0600
0C00
ENDCHAR
STARTCHAR 2522
ENCODING 12450
SWIDTH 96 0
DWIDTH 16 0
BBX 16 16 0 -2
BITMAP
0000
0000
7FFE
0006
010C
0118
0130
0100
0100
0100
0300
0200
0600
0C00
3800
0000
ENDCHAR
STARTCHAR 2523
ENCODING 12451
SWIDTH 96 0
DWIDTH 16 0
BBX 16 16 0 -2
BITMAP
0000
0000
0000
0000
0000
0008
0018
0030
00E0
0380
1E80
0080
0080
0080
0080
0080
ENDCHAR
STARTCHAR 2524
ENCODING 12452
SWIDTH 96 0
DWIDTH 16 0
BBX 16 16 0 -2
BITMAP
0000
0004
000C
0018
0030
00E0
0380
0E80
7880
0080
0080
0080
0080
0080
0080
0000
ENDCHAR
STARTCHAR 2525
ENCODING 12453
SWIDTH 96 0
DWIDTH 16 0
BBX 16 16 0 -2
BITMAP
0000
0000
0000
0000
0000
0100
0100
1FF8
1008
1008
0018
0010
0030
0060
01C0
0700
ENDCHAR
STARTCHAR 2526
ENCODING 12454
SWIDTH 96 0
DWIDTH 16 0
BBX 16 16 0 -2
BITMAP
0100
0100
0100
3FFC
2004
2004
2004
2004
000C
0008
0018
0030
0060
01C0
0700
0000
ENDCHAR
STARTCHAR 2527
ENCODING 12455
SWIDTH 96 0
DWIDTH 16 0
BBX 16 16 0 -2
BITMAP
0000
0000
0000
0000
0000
0000
0000
0FF0
0100
0100
0100
0100
0100
0100
1FF8
0000
ENDCHAR
STARTCHAR 2528
ENCODING 12456
SWIDTH 96 0
DWIDTH 16 0
BBX 16 16 0 -2
BITMAP
0000
0000
0000
3FFC
0100
0100
0100
0100
0100
0100
0100
0100
7FFE
0000
0000
0000
ENDCHAR
STARTCHAR 2529
ENCODING 12457
SWIDTH 96 0
DWIDTH 16 0
BBX 16 16 0 -2
BITMAP
0000
0000
0000
0000
0000
0040
0040
0040
1FFC
0140
0340
0640
0C40
3840
0040
01C0
ENDCHAR
STARTCHAR 252a
ENCODING 12458
SWIDTH 96 0
DWIDTH 16 0
BBX 16 16 0 -2
BITMAP
0040
0040
0040
0040
7FFE
0140
0340
0240
0640
0C40
1840
3040
6040
0040
01C0
0000
ENDCHAR
STARTCHAR 252b
ENCODING 12459
SWIDTH 96 0
DWIDTH 16 0
BBX 16 16 0 -2
BITMAP
0100
0100
0100
0100
3FFC
0104
0104
0304
0204
0204
0604
040C
0C08
1808
3078
0000
ENDCHAR
STARTCHAR 252c
ENCODING 12460
SWIDTH 96 0
DWIDTH 16 0
BBX 16 16 0 -2
BITMAP
0105
0105
0100
0100
3FFC
0104
0104
0304
0204
0204
0604
040C
0C08
1808
3078
0000
ENDCHAR
STARTCHAR 252d
ENCODING 12461
SWIDTH 96 0
DWIDTH 16 0
BBX 16 16 0 -2
BITMAP
0400
0400
0600
0238
03E0
0F00
7900
011E
01F0
0780
3C80
00C0
0040
0040
0060
0020
ENDCHAR
STARTCHAR 252e
ENCODING 12462
SWIDTH 96 0
DWIDTH 16 0
BBX 16 16 0 -2
BITMAP
0405
0405
0600
0238
03E0
0F00
7900
011E
01F0
0780
3C80
00C0
0040
0040
0060
0020
ENDCHAR
STARTCHAR 252f
ENCODING 12463
SWIDTH 96 0
DWIDTH 16 0
BBX 16 16 0 -2
BITMAP
0100
0100
0100
03F8
0208
0608
0C18
1810
0030
0020
0060
00C0
0180
0700
1C00
0000
ENDCHAR
STARTCHAR 2530
ENCODING 12464
SWIDTH 96 0
DWIDTH 16 0
BBX 16 16 0 -2
BITMAP
0105
0105
0100
03F8
0208
0608
0C18
1810
0030
0020
0060
00C0
0180
0700
1C00
0000
ENDCHAR
STARTCHAR 2531
ENCODING 12465
SWIDTH 96 0
DWIDTH 16 0
BBX 16 16 0 -2
BITMAP
0400
0400
0C00
0800
1FFE
1020
3020
6020
0020
0060
0040
00C0
0180
0300
0E00
0000
ENDCHAR
STARTCHAR 2532
ENCODING 12466
SWIDTH 96 0
DWIDTH 16 0
BBX 16 16 0 -2
BITMAP
0405
0405
0C00
0800
1FFE
1020
3020
6020
0020
0060
0040
00C0
0180
0300
0E00
0000
ENDCHAR
STARTCHAR 2533
ENCODING 12467
SWIDTH 96 0
DWIDTH 16 0
BBX 16 16 0 -2
BITMAP
0000
0000
0000
3FFC
0004
0004
0004
0004
0004
0004
0004
0004
0004
3FFC
0000
0000
ENDCHAR
STARTCHAR 2534
ENCODING 12468
SWIDTH 96 0
DWIDTH 16 0
BBX 16 16 0 -2
BITMAP
0005
0005
0000
3FFC
0004
0004
0004
0004
0004
0004
0004
0004
0004
3FFC
0000
0000
ENDCHAR
STARTCHAR 2535
ENCODING 12469
SWIDTH 96 0
DWIDTH 16 0
BBX 16 16 0 -2
BITMAP
0000
0810
0810
0810
FFFF
0810
0810
0810
0810
0030
0020
0060
00C0
0180
0700
0000
ENDCHAR
STARTCHAR 2536
ENCODING 12470
SWIDTH 96 0
DWIDTH 16 0
BBX 16 16 0 -2
BITMAP
0005
0815
0810
0810
FFFF
0810
0810
0810
0810
0030
0020
0060
00C0
0180
0700
0000
ENDCHAR
STARTCHAR 2537
ENCODING 12471
SWIDTH 96 0
DWIDTH 16 0
BBX 16 16 0 -2
BITMAP
0000
0000
0C00
0600
0200
0000
3002
1806
080C
0018
0030
0060
01C0
0700
3C00
0000
ENDCHAR
STARTCHAR 2538
ENCODING 12472
SWIDTH 96 0
DWIDTH 16 0
BBX 16 16 0 -2
BITMAP
0000
000A
0C0A
0600
0200
0000
3002
1806
080C
0018
0030
0060
01C0
0700
3C00
0000
ENDCHAR
STARTCHAR 2539
ENCODING 12473
SWIDTH 96 0
DWIDTH 16 0
BBX 16 16 0 -2
BITMAP
0000
0000
3FF0
0010
0010
0030
0020
0060
00C0
01C0
0360
0630
0C18
180C
7006
0000
ENDCHAR
STARTCHAR 253a
ENCODING 12474
SWIDTH 96 0
DWIDTH 16 0
BBX 16 16 0 -2
BITMAP
0005
0005
3FF0
0010
0010
0030
0020
0060
00C0
01C0
0360
0630
0C18
180C
7006
0000
ENDCHAR
STARTCHAR 253b
ENCODING 12475
SWIDTH 96 0
DWIDTH 16 0
BBX 16 16 0 -2
BITMAP
0000
0800
0800
0800
08FC
0F8C
F818
0830
0800
0800
0800
0800
0C00
07FC
0000
0000
ENDCHAR
STARTCHAR 253c
ENCODING 12476
SWIDTH 96 0
DWIDTH 16 0
BBX 16 16 0 -2
BITMAP
0005
0805
0800
0800
08FC
0F8C
F818
0830
0800
0800
0800
0800
0C00
07FC
0000
0000
ENDCHAR
STARTCHAR 253d
ENCODING 12477
SWIDTH 96 0
DWIDTH 16 0
BBX 16 16 0 -2
BITMAP
0000
0000
2004
3004
1004
1804
080C
0008
0018
0010
0030
0060
00C0
0380
0E00
0000
ENDCHAR
STARTCHAR 253e
ENCODING 12478
SWIDTH 96 0
DWIDTH 16 0
BBX 16 16 0 -2
BITMAP
0005
0005
2000
3008
1008
1808
0818
0010
0030
0020
0060
00C0
0180
0700
1C00
0000
ENDCHAR
STARTCHAR 253f
ENCODING 12479
SWIDTH 96 0
DWIDTH 16 0
BBX 16 16 0 -2
BITMAP
0100
0100
0100
03FC
0204
060C
0D88
18D8
0050
0030
0060
00C0
0180
0700
1C00
0000
ENDCHAR
STARTCHAR 2540
ENCODING 12480
SWIDTH 96 0
DWIDTH 16 0
BBX 16 16 0 -2
BITMAP
0205
0205
0200
07F8
0408
0C18
1B10
31B0
00A0
0060
00C0
0180
0300
0E00
3800
0000
ENDCHAR
STARTCHAR 2541
ENCODING 12481
SWIDTH 96 0
DWIDTH 16 0
BBX 16 16 0 -2
BITMAP
0000
0018
00F0
1F80
0080
0080
0080
7FFE
0080
0080
0180
0100
0300
0600
1C00
0000
ENDCHAR
STARTCHAR 2542
ENCODING 12482
SWIDTH 96 0
DWIDTH 16 0
BBX 16 16 0 -2
BITMAP
0005
0035
00E0
1F80
0080
0080
0080
7FFE
0080
0080
0180
0100
0300
0600
1C00
0000
ENDCHAR
STARTCHAR 2543
ENCODING 12483
SWIDTH 96 0
DWIDTH 16 0
BBX 16 16 0 -2
BITMAP
0000
0000
0000
0000
0000
0000
0200
1308
1908
0818
0010
0030
0060
00C0
0180
0700
ENDCHAR
STARTCHAR 2544
ENCODING 12484
SWIDTH 96 0
DWIDTH 16 0
BBX 16 16 0 -2
BITMAP
0000
0000
0400
4602
6202
2306
3104
100C
0008
0018
0030
0060
00C0
0380
0E00
0000
ENDCHAR
STARTCHAR 2545
ENCODING 12485
SWIDTH 96 0
DWIDTH 16 0
BBX 16 16 0 -2
BITMAP
0005
0005
0400
4604
6204
2304
310C
1008
0018
0010
0030
0060
00C0
0380
0E00
0000
ENDCHAR
STARTCHAR 2546
ENCODING 12486
SWIDTH 96 0
DWIDTH 16 0
BBX 16 16 0 -2
BITMAP
0000
0000
3FFC
0000
0000
0000
7FFE
0080
0080
0080
0180
0100
0300
0600
1C00
0000
ENDCHAR
STARTCHAR 2547
ENCODING 12487
SWIDTH 96 0
DWIDTH 16 0
BBX 16 16 0 -2
BITMAP
0005
0005
3FF8
0000
0000
0000
7FFC
0080
0080
0080
0180
0100
0300
0600
1C00
0000
ENDCHAR
STARTCHAR 2548
ENCODING 12488
SWIDTH 96 0
DWIDTH 16 0
BBX 16 16 0 -2
BITMAP
0000
0200
0200
0200
0200
0200
03C0
0270
021C
0200
0200
0200
0200
0200
0200
0000
ENDCHAR
STARTCHAR 2549
ENCODING 12489
SWIDTH 96 0
DWIDTH 16 0
BBX 16 16 0 -2
BITMAP
0000
020A
020A
0200
0200
0200
03C0
0270
021C
0200
0200
0200
0200
0200
0200
0000
ENDCHAR
STARTCHAR 254a
ENCODING 12490
SWIDTH 96 0
DWIDTH 16 0
BBX 16 16 0 -2
BITMAP
0000
0080
0080
0080
0080
7FFE
0080
0080
0080
0080
0180
0100
0300
0600
1C00
0000
ENDCHAR
STARTCHAR 254b
ENCODING 12491
SWIDTH 96 0
DWIDTH 16 0
BBX 16 16 0 -2
BITMAP
0000
0000
0000
0000
1FF8
0000
0000
0000
0000
0000
0000
0000
7FFE
0000
0000
0000
ENDCHAR
STARTCHAR 254c
ENCODING 12492
SWIDTH 96 0
DWIDTH 16 0
BBX 16 16 0 -2
BITMAP
0000
0000
1FF8
0008
0018
0010
0C30
0760
01C0
00E0
01B0
0318
0608
0C00
3800
0000
ENDCHAR
STARTCHAR 254d
ENCODING 12493
SWIDTH 96 0
DWIDTH 16 0
BBX 16 16 0 -2
BITMAP
0100
0100
0100
3FF8
0030
0060
00C0
0180
0730
1D1C
7106
0100
0100
0100
0100
0000
ENDCHAR
STARTCHAR 254e
ENCODING 12494
SWIDTH 96 0
DWIDTH 16 0
BBX 16 16 0 -2
BITMAP
0000
0000
0008
0008
0018
0010
0030
0060
0040
00C0
0180
0300
0600
0C00
3800
0000
ENDCHAR
STARTCHAR 254f
ENCODING 12495
SWIDTH 96 0
DWIDTH 16 0
BBX 16 16 0 -2
BITMAP
0000
0000
0000
0420
0430
0410
0C18
0808
080C
0804
1804
1006
3002
6002
0000
0000
ENDCHAR
STARTCHAR 2550
ENCODING 12496
SWIDTH 96 0
DWIDTH 16 0
BBX 16 16 0 -2
BITMAP
0005
0005
0000
0420
0430
0410
0C18
0808
080C
0804
1804
1006
3002
6002
0000
0000
ENDCHAR
STARTCHAR 2551
ENCODING 12497
SWIDTH 96 0
DWIDTH 16 0
BBX 16 16 0 -2
BITMAP
0000
0000
0006
0849
0869
0826
1830
1010
1018
1008
3008
200C
6004
C004
0000
0000
ENDCHAR
STARTCHAR 2552
ENCODING 12498
SWIDTH 96 0
DWIDTH 16 0
BBX 16 16 0 -2
BITMAP
0000
1000
1000
1000
1018
10F0
1F80
1000
1000
1000
1000
1000
1800
0FFC
0000
0000
ENDCHAR
STARTCHAR 2553
ENCODING 12499
SWIDTH 96 0
DWIDTH 16 0
BBX 16 16 0 -2
BITMAP
0005
1005
1000
1000
1018
10F0
1F80
1000
1000
1000
1000
1000
1800
0FFC
0000
0000
ENDCHAR
STARTCHAR 2554
ENCODING 12500
SWIDTH 96 0
DWIDTH 16 0
BBX 16 16 0 -2
BITMAP
0000
2000
2006
2009
2069
23C6
3E00
2000
2000
2000
2000
2000
3000
1FF8
0000
0000
ENDCHAR
STARTCHAR 2555
ENCODING 12501
SWIDTH 96 0
DWIDTH 16 0
BBX 16 16 0 -2
BITMAP
0000
0000
3FFC
0004
000C
0008
0018
0010
0030
0060
00C0
0180
0700
1C00
0000
0000
ENDCHAR
STARTCHAR 2556
ENCODING 12502
SWIDTH 96 0
DWIDTH 16 0
BBX 16 16 0 -2
BITMAP
0005
0005
7FF8
0008
0018
0010
0030
0020
0060
00C0
0180
0300
0E00
3800
0000
0000
ENDCHAR
STARTCHAR 2557
ENCODING 12503
SWIDTH 96 0
DWIDTH 16 0
BBX 16 16 0 -2
BITMAP
0000
0000
FFE6
0029
0029
0066
0040
00C0
0080
0180
0300
0600
1C00
7000
0000
0000
ENDCHAR
STARTCHAR 2558
ENCODING 12504
SWIDTH 96 0
DWIDTH 16 0
BBX 16 16 0 -2
BITMAP
0000
0000
0000
0400
0E00
0B00
1980
10C0
3060
6030
0018
000C
0006
0000
0000
0000
ENDCHAR
STARTCHAR 2559
ENCODING 12505
SWIDTH 96 0
DWIDTH 16 0
BBX 16 16 0 -2
BITMAP
0000
0050
0050
0400
0E00
0B00
1980
10C0
3060
6030
0018
000C
0006
0000
0000
0000
ENDCHAR
STARTCHAR 255a
ENCODING 12506
SWIDTH 96 0
DWIDTH 16 0
BBX 16 16 0 -2
BITMAP
0000
0000
0000
0430
0E48
0B48
19B0
10C0
3060
6030
0018
000C
0006
0000
0000
0000
ENDCHAR
STARTCHAR 255b
ENCODING 12507
SWIDTH 96 0
DWIDTH 16 0
BBX 16 16 0 -2
BITMAP
0000
0100
0100
0100
7FFE
0100
0100
0910
0918
190C
1104
3106
6102
0100
0700
0000
ENDCHAR
STARTCHAR 255c
ENCODING 12508
SWIDTH 96 0
DWIDTH 16 0
BBX 16 16 0 -2
BITMAP
000A
010A
0100
0100
7FFE
0100
0100
0910
0918
190C
1104
3106
6102
0100
0700
0000
ENDCHAR
STARTCHAR 255d
ENCODING 12509
SWIDTH 96 0
DWIDTH 16 0
BBX 16 16 0 -2
BITMAP
0000
0100
0106
0109
7FF9
0106
0100
0920
0930
1918
1108
310C
6104
0100
0700
0000
ENDCHAR
STARTCHAR 255e
ENCODING 12510
SWIDTH 96 0
DWIDTH 16 0
BBX 16 16 0 -2
BITMAP
0000
0000
0000
7FFE
000C
0018
0030
0C60
06C0
0380
0180
00C0
0060
0020
0000
0000
ENDCHAR
STARTCHAR 255f
ENCODING 12511
SWIDTH 96 0
DWIDTH 16 0
BBX 16 16 0 -2
BITMAP
0000
0700
01E0
0030
0000
0000
0700
01C0
0060
0000
0000
0E00
0380
00E0
0030
0000
ENDCHAR
STARTCHAR 2560
ENCODING 12512
SWIDTH 96 0
DWIDTH 16 0
BBX 16 16 0 -2
BITMAP
0000
0100
0100
0300
0200
0200
0600
0410
0410
0C18
0808
08FC
1F84
7006
0000
0000
ENDCHAR
STARTCHAR 2561
ENCODING 12513
SWIDTH 96 0
DWIDTH 16 0
BBX 16 16 0 -2
BITMAP
0000
0008
0008
0018
0010
0C30
0760
01C0
00E0
01B0
0318
0608
0C00
1800
7000
0000
ENDCHAR
STARTCHAR 2562
ENCODING 12514
SWIDTH 96 0
DWIDTH 16 0
BBX 16 16 0 -2
BITMAP
0000
0000
3FF8
0200
0200
0200
0200
7FFC
0200
0200
0200
0200
0300
01FC
0000
0000
ENDCHAR
STARTCHAR 2563
ENCODING 12515
SWIDTH 96 0
DWIDTH 16 0
BBX 16 16 0 -2
BITMAP
0000
0000
0000
0000
0000
0400
0600
023C
03E4
0F0C
3908
0180
0080
00C0
0040
0040
ENDCHAR
STARTCHAR 2564
ENCODING 12516
SWIDTH 96 0
DWIDTH 16 0
BBX 16 16 0 -2
BITMAP
0000
0800
0C00
041E
05F2
1F06
F20C
0308
0100
0180
0080
0080
00C0
0040
0040
0000
ENDCHAR
STARTCHAR 2565
ENCODING 12517
SWIDTH 96 0
DWIDTH 16 0
BBX 16 16 0 -2
BITMAP
0000
0000
0000
0000
0000
0000
0000
0FC0
0040
0040
0040
0040
0040
0040
1FF8
0000
ENDCHAR
STARTCHAR 2566
ENCODING 12518
SWIDTH 96 0
DWIDTH 16 0
BBX 16 16 0 -2
BITMAP
0000
0000
0000
1FE0
0020
0020
0020
0020
0020
0020
0020
0020
7FFE
0000
0000
0000
ENDCHAR
STARTCHAR 2567
ENCODING 12519
SWIDTH 96 0
DWIDTH 16 0
BBX 16 16 0 -2
BITMAP
0000
0000
0000
0000
0000
0000
0FF0
0010
0010
0010
0FF0
0010
0010
0010
0FF0
0000
ENDCHAR
STARTCHAR 2568
ENCODING 12520
SWIDTH 96 0
DWIDTH 16 0
BBX 16 16 0 -2
BITMAP
0000
0000
1FF8
0008
0008
0008
0008
1FF8
0008
0008
0008
0008
0008
1FF8
0000
0000
ENDCHAR
STARTCHAR 2569
ENCODING 12521
SWIDTH 96 0
DWIDTH 16 0
BBX 16 16 0 -2
BITMAP
0000
0000
1FF8
0000
0000
0000
3FFC
0004
000C
0008
0018
0030
0060
01C0
0F00
0000
ENDCHAR
STARTCHAR 256a
ENCODING 12522
SWIDTH 96 0
DWIDTH 16 0
BBX 16 16 0 -2
BITMAP
0000
0808
0808
0808
0808
0808
0808
0808
0808
0008
0018
0010
0030
0060
01C0
0000
ENDCHAR
STARTCHAR 256b
ENCODING 12523
SWIDTH 96 0
DWIDTH 16 0
BBX 16 16 0 -2
BITMAP
0000
0040
0840
0840
0840
0840
0840
0841
0843
0846
184C
1058
3070
6060
0000
0000
ENDCHAR
STARTCHAR 256c
ENCODING 12524
SWIDTH 96 0
DWIDTH 16 0
BBX 16 16 0 -2
BITMAP
0000
0000
0800
0800
0800
0800
0800
0802
0806
080C
0818
0870
09C0
0F00
0000
0000
ENDCHAR
STARTCHAR 256d
ENCODING 12525
SWIDTH 96 0
DWIDTH 16 0
BBX 16 16 0 -2
BITMAP
0000
0000
0000
1FF8
1008
1008
1008
1008
1008
1008
1008
1008
1FF8
0000
0000
0000
ENDCHAR
STARTCHAR 256e
ENCODING 12526
SWIDTH 96 0
DWIDTH 16 0
BBX 16 16 0 -2
BITMAP
0000
0000
0000
0000
0000
0000
1FF8
1008
1008
1008
0018
0010
0030
0060
01C0
0700
ENDCHAR
STARTCHAR 256f
ENCODING 12527
SWIDTH 96 0
DWIDTH 16 0
BBX 16 16 0 -2
BITMAP
0000
0000
3FFC
2004
2004
2004
0004
000C
0008
0018
0030
0060
01C0
0700
0000
0000
ENDCHAR
STARTCHAR 2570
ENCODING 12528
SWIDTH 96 0
DWIDTH 16 0
BBX 16 16 0 -2
BITMAP
0000
0040
0040
0040
3FFC
0840
0840
0840
0840
0840
7FFE
0040
0040
0040
0040
0000
ENDCHAR
STARTCHAR 2571
ENCODING 12529
SWIDTH 96 0
DWIDTH 16 0
BBX 16 16 0 -2
BITMAP
0000
0000
0000
3FFC
000C
0018
0130
0100
0100
0100
0100
0100
7FFE
0000
0000
0000
ENDCHAR
STARTCHAR 2572
ENCODING 12530
SWIDTH 96 0
DWIDTH 16 0
BBX 16 16 0 -2
BITMAP
0000
0000
1FFC
0004
0004
0004
1FFC
0008
0018
0030
0060
00C0
0380
0E00
0000
0000
ENDCHAR
STARTCHAR 2573
ENCODING 12531
SWIDTH 96 0
DWIDTH 16 0
BBX 16 16 0 -2
BITMAP
0000
0000
3000
1C00
0600
0002
0006
000C
0018
0030
0060
01C0
0700
3C00
0000
0000
ENDCHAR
STARTCHAR 2574
ENCODING 12532
SWIDTH 96 0
DWIDTH 16 0
BBX 16 16 0 -2
BITMAP
0105
0105
0100
3FFC
2004
2004
2004
2004
000C
0008
0018
0030
0060
01C0
0700
0000
ENDCHAR
STARTCHAR 2575
ENCODING 12533
SWIDTH 96 0
DWIDTH 16 0
BBX 16 16 0 -2
BITMAP
0000
0000
0000
0000
0000
0100
0100
0100
1FF8
0108
0108
0308
0208
0618
0C10
1870
ENDCHAR
STARTCHAR 2576
ENCODING 12534
SWIDTH 96 0
DWIDTH 16 0
BBX 16 16 0 -2
BITMAP
0000
0000
0000
0000
0000
0400
0400
0400
0FFC
0820
1820
3060
0040
00C0
0180
0300
ENDCHAR
STARTCHAR 2621
ENCODING 913
SWIDTH 96 0
DWIDTH 16 0
BBX 16 16 0 -2
BITMAP
0000
0100
0100
0380
0280
06C0
0440
0C60
0820
1FF0
1010
3018
2008
F83E
0000
0000
ENDCHAR
STARTCHAR 2622
ENCODING 914
SWIDTH 96 0
DWIDTH 16 0
BBX 16 16 0 -2
BITMAP
0000
3FE0
0810
0808
0808
0808
0810
0FE0
0818
0804
0804
0804
0808
3FF0
0000
0000
ENDCHAR
STARTCHAR 2623
ENCODING 915
SWIDTH 96 0
DWIDTH 16 0
BBX 16 16 0 -2
BITMAP
0000
1FFC
0404
0404
0400
0400
0400
0400
0400
0400
0400
0400
0400
1F00
0000
0000
ENDCHAR
STARTCHAR 2624
ENCODING 916
SWIDTH 96 0
DWIDTH 16 0
BBX 16 16 0 -2
BITMAP
0000
0100
0380
0280
06C0
0440
0C60
0820
0820
1830
1010
3018
2008
7FFC
0000
0000
ENDCHAR
STARTCHAR 2625
ENCODING 917
SWIDTH 96 0
DWIDTH 16 0
BBX 16 16 0 -2
BITMAP
0000
3FF8
0808
0808
0800
0840
0840
0FC0
0840
0840
0800
0808
0808
3FF8
0000
0000
ENDCHAR
STARTCHAR 2626
ENCODING 918
SWIDTH 96 0
DWIDTH 16 0
BBX 16 16 0 -2
BITMAP
0000
1FF8
1030
1060
0040
00C0
0180
0100
0300
0600
0400
0C08
1808
3FF8
0000
0000
ENDCHAR
STARTCHAR 2627
ENCODING 919
SWIDTH 96 0
DWIDTH 16 0
BBX 16 16 0 -2
BITMAP
0000
7C3E
1008
1008
1008
1008
1008
1FF8
1008
1008
1008
1008
1008
7C3E
0000
0000
ENDCHAR
STARTCHAR 2628
ENCODING 920
SWIDTH 96 0
DWIDTH 16 0
BBX 16 16 0 -2
BITMAP
0000
03C0
0C30
1818
1008
300C
2424
27E4
2424
300C
1008
1818
0C30
03C0
0000
0000
ENDCHAR
STARTCHAR 2629
ENCODING 921
SWIDTH 96 0
DWIDTH 16 0
BBX 16 16 0 -2
BITMAP
0000
07C0
0100
0100
0100
0100
0100
0100
0100
0100
0100
0100
0100
07C0
0000
0000
ENDCHAR
STARTCHAR 262a
ENCODING 922
SWIDTH 96 0
DWIDTH 16 0
BBX 16 16 0 -2
BITMAP
0000
3E7C
0830
0860
08C0
0980
0B00
0F00
0980
08C0
0860
0830
0818
3E3E
0000
0000
ENDCHAR
STARTCHAR 262b
ENCODING 923
SWIDTH 96 0
DWIDTH 16 0
BBX 16 16 0 -2
BITMAP
0000
0100
0380
0280
06C0
0440
0C60
0820
0820
1830
1010
3018
2008
F83E
0000
0000
ENDCHAR
STARTCHAR 262c
ENCODING 924
SWIDTH 96 0
DWIDTH 16 0
BBX 16 16 0 -2
BITMAP
0000
F01E
3018
3838
2828
2828
2C68
2448
2448
26C8
2288
2388
2108
F11E
0000
0000
ENDCHAR
STARTCHAR 262d
ENCODING 925
SWIDTH 96 0
DWIDTH 16 0
BBX 16 16 0 -2
BITMAP
0000
783E
1C08
1408
1608
1308
1108
1188
10C8
1048
1068
1038
1018
7808
0000
0000
ENDCHAR
STARTCHAR 262e
ENCODING 926
SWIDTH 96 0
DWIDTH 16 0
BBX 16 16 0 -2
BITMAP
0000
3FFC
2004
0000
0000
0000
1008
1FF8
1008
0000
0000
0000
2004
3FFC
0000
0000
ENDCHAR
STARTCHAR 262f
ENCODING 927
SWIDTH 96 0
DWIDTH 16 0
BBX 16 16 0 -2
BITMAP
0000
03C0
0C30
1818
1008
300C
2004
2004
2004
300C
1008
1818
0C30
03C0
0000
0000
ENDCHAR
STARTCHAR 2630
ENCODING 928
SWIDTH 96 0
DWIDTH 16 0
BBX 16 16 0 -2
BITMAP
0000
3FFC
0810
0810
0810
0810
0810
0810
0810
0810
0810
0810
0810
3E7C
0000
0000
ENDCHAR
STARTCHAR 2631
ENCODING 929
SWIDTH 96 0
DWIDTH 16 0
BBX 16 16 0 -2
BITMAP
0000
1FF0
0408
0404
0404
0404
0408
07F0
0400
0400
0400
0400
0400
1F00
0000
0000
ENDCHAR
STARTCHAR 2632
ENCODING 931
SWIDTH 96 0
DWIDTH 16 0
BBX 16 16 0 -2
BITMAP
0000
3FF8
1808
0C08
0600
0300
0180
00C0
0180
0300
0600
0C08
1808
3FF8
0000
0000
ENDCHAR
STARTCHAR 2633
ENCODING 932
SWIDTH 96 0
DWIDTH 16 0
BBX 16 16 0 -2
BITMAP
0000
7FFC
4104
4104
0100
0100
0100
0100
0100
0100
0100
0100
0100
07C0
0000
0000
ENDCHAR
STARTCHAR 2634
ENCODING 933
SWIDTH 96 0
DWIDTH 16 0
BBX 16 16 0 -2
BITMAP
0000
1EF0
3398
610C
0100
0100
0100
0100
0100
0100
0100
0100
0100
07C0
0000
0000
ENDCHAR
STARTCHAR 2635
ENCODING 934
SWIDTH 96 0
DWIDTH 16 0
BBX 16 16 0 -2
BITMAP
0000
07C0
0100
0FE0
3118
610C
4104
4104
4104
610C
3118
0FE0
0100
07C0
0000
0000
ENDCHAR
STARTCHAR 2636
ENCODING 935
SWIDTH 96 0
DWIDTH 16 0
BBX 16 16 0 -2
BITMAP
0000
7C7C
1010
1830
0C60
06C0
0380
0100
0380
06C0
0C60
1830
1010
787C
0000
0000
ENDCHAR
STARTCHAR 2637
ENCODING 936
SWIDTH 96 0
DWIDTH 16 0
BBX 16 16 0 -2
BITMAP
0000
07C0
610C
9112
1110
1110
1110
1110
1930
0920
07C0
0100
0100
07C0
0000
0000
ENDCHAR
STARTCHAR 2638
ENCODING 937
SWIDTH 96 0
DWIDTH 16 0
BBX 16 16 0 -2
BITMAP
0000
03C0
0C30
1818
1008
2004
2004
2004
1008
1818
0C30
2244
2244
3E7C
0000
0000
ENDCHAR
STARTCHAR 2641
ENCODING 945
SWIDTH 96 0
DWIDTH 16 0
BBX 16 16 0 -2
BITMAP
0000
0000
0000
0000
0000
0000
0388
0448
0850
0860
1040
10C0
1148
0E30
0000
0000
ENDCHAR
STARTCHAR 2642
ENCODING 946
SWIDTH 96 0
DWIDTH 16 0
BBX 16 16 0 -2
BITMAP
0000
00F0
0188
0308
0208
0608
0410
04E0
0C30
0810
0810
0810
1A30
11E0
1000
3000
ENDCHAR
STARTCHAR 2643
ENCODING 947
SWIDTH 96 0
DWIDTH 16 0
BBX 16 16 0 -2
BITMAP
0000
0000
0000
0000
0000
0000
0E18
1930
3160
01C0
0180
0100
0300
0200
0600
0400
ENDCHAR
STARTCHAR 2644
ENCODING 948
SWIDTH 96 0
DWIDTH 16 0
BBX 16 16 0 -2
BITMAP
0000
03C0
0470
0218
0108
0080
0340
0420
0820
1020
1060
1040
0880
0700
0000
0000
ENDCHAR
STARTCHAR 2645
ENCODING 949
SWIDTH 96 0
DWIDTH 16 0
BBX 16 16 0 -2
BITMAP
0000
0000
0000
0000
0000
0000
03E0
0410
0400
03C0
0400
0800
0820
07C0
0000
0000
ENDCHAR
STARTCHAR 2646
ENCODING 950
SWIDTH 96 0
DWIDTH 16 0
BBX 16 16 0 -2
BITMAP
0200
0418
0430
03E0
00C0
0180
0300
0600
0C00
0800
0C00
0700
0180
0040
0040
0380
ENDCHAR
STARTCHAR 2647
ENCODING 951
SWIDTH 96 0
DWIDTH 16 0
BBX 16 16 0 -2
BITMAP
0000
0000
0000
0000
0000
0000
0EF0
1318
0208
0608
0418
0410
0C10
0830
0020
0060
ENDCHAR
STARTCHAR 2648
ENCODING 952
SWIDTH 96 0
DWIDTH 16 0
BBX 16 16 0 -2
BITMAP
0000
00E0
0310
0608
0C08
0808
1FF8
1008
1018
1010
1030
1060
08C0
0700
0000
0000
ENDCHAR
STARTCHAR 2649
ENCODING 953
SWIDTH 96 0
DWIDTH 16 0
BBX 16 16 0 -2
BITMAP
0000
0000
0000
0000
0000
0000
0200
0200
0600
0400
0C00
0810
08E0
0780
0000
0000
ENDCHAR
STARTCHAR 264a
ENCODING 954
SWIDTH 96 0
DWIDTH 16 0
BBX 16 16 0 -2
BITMAP
0000
0000
0000
0000
0000
0000
0438
0448
0580
0E00
0900
1900
1110
30E0
0000
0000
ENDCHAR
STARTCHAR 264b
ENCODING 955
SWIDTH 96 0
DWIDTH 16 0
BBX 16 16 0 -2
BITMAP
0000
0180
00C0
0040
0040
0040
0040
00C0
0140
0240
0660
0420
0C30
1818
0000
0000
ENDCHAR
STARTCHAR 264c
ENCODING 956
SWIDTH 96 0
DWIDTH 16 0
BBX 16 16 0 -2
BITMAP
0000
0000
0000
0000
0000
0000
0420
0420
0C60
0840
0840
0840
1CC8
1730
1000
3000
ENDCHAR
STARTCHAR 264d
ENCODING 957
SWIDTH 96 0
DWIDTH 16 0
BBX 16 16 0 -2
BITMAP
0000
0000
0000
0000
0000
0000
1808
0408
0410
0430
0C60
08C0
0B80
1E00
0000
0000
ENDCHAR
STARTCHAR 264e
ENCODING 958
SWIDTH 96 0
DWIDTH 16 0
BBX 16 16 0 -2
BITMAP
0000
00F0
0100
0080
03F0
0400
0400
0200
0FF0
1000
1000
0E00
01C0
0020
0020
0FC0
ENDCHAR
STARTCHAR 264f
ENCODING 959
SWIDTH 96 0
DWIDTH 16 0
BBX 16 16 0 -2
BITMAP
0000
0000
0000
0000
0000
0000
01C0
0620
0C10
0810
0810
0830
0460
0380
0000
0000
ENDCHAR
STARTCHAR 2650
ENCODING 960
SWIDTH 96 0
DWIDTH 16 0
BBX 16 16 0 -2
BITMAP
0000
0000
0000
0000
0000
0008
0FF0
1240
0240
0240
0480
0480
0C90
1860
0000
0000
ENDCHAR
STARTCHAR 2651
ENCODING 961
SWIDTH 96 0
DWIDTH 16 0
BBX 16 16 0 -2
BITMAP
0000
0000
0000
0000
0000
0000
01C0
0220
0410
0410
0C10
0810
0A20
19C0
1000
1000
ENDCHAR
STARTCHAR 2652
ENCODING 963
SWIDTH 96 0
DWIDTH 16 0
BBX 16 16 0 -2
BITMAP
0000
0000
0000
0000
0000
0008
01F8
0620
0C10
0810
0810
0830
0460
0380
0000
0000
ENDCHAR
STARTCHAR 2653
ENCODING 964
SWIDTH 96 0
DWIDTH 16 0
BBX 16 16 0 -2
BITMAP
0000
0000
0000
0000
0000
0008
0FF0
1100
0300
0200
0600
0420
0440
0380
0000
0000
ENDCHAR
STARTCHAR 2654
ENCODING 965
SWIDTH 96 0
DWIDTH 16 0
BBX 16 16 0 -2
BITMAP
0000
0000
0000
0000
0000
0000
0430
0410
0410
0C30
0820
0860
08C0
0700
0000
0000
ENDCHAR
STARTCHAR 2655
ENCODING 966
SWIDTH 96 0
DWIDTH 16 0
BBX 16 16 0 -2
BITMAP
0000
0020
0020
0060
0040
0040
03E0
0C90
1088
1188
1108
0930
07C0
0200
0200
0600
ENDCHAR
STARTCHAR 2656
ENCODING 967
SWIDTH 96 0
DWIDTH 16 0
BBX 16 16 0 -2
BITMAP
0000
0000
0000
0000
0000
0000
0618
0930
0160
01C0
0180
0300
0700
0D00
1890
3060
ENDCHAR
STARTCHAR 2657
ENCODING 968
SWIDTH 96 0
DWIDTH 16 0
BBX 16 16 0 -2
BITMAP
0000
0020
0020
0060
0040
0040
0CC8
1488
0488
0D98
0910
0920
07C0
0200
0200
0600
ENDCHAR
STARTCHAR 2658
ENCODING 969
SWIDTH 96 0
DWIDTH 16 0
BBX 16 16 0 -2
BITMAP
0000
0000
0000
0000
0000
0000
0408
0884
1084
1184
2104
2104
2388
1CF0
0000
0000
ENDCHAR
STARTCHAR 2721
ENCODING 1040
SWIDTH 96 0
DWIDTH 16 0
BBX 16 16 0 -2
BITMAP
0000
0100
0700
0380
0280
06C0
0440
0C60
0820
1FF0
1010
3018
2008
F83E
0000
0000
ENDCHAR
STARTCHAR 2722
ENCODING 1041
SWIDTH 96 0
DWIDTH 16 0
BBX 16 16 0 -2
BITMAP
0000
3FF8
0808
0808
0800
0800
0800
0FF0
0808
0804
0804
0804
0808
3FF0
0000
0000
ENDCHAR
STARTCHAR 2723
ENCODING 1042
SWIDTH 96 0
DWIDTH 16 0
BBX 16 16 0 -2
BITMAP
0000
3FE0
0810
0808
0808
0808
0810
0FE0
0818
0804
0804
0804
0808
3FF0
0000
0000
ENDCHAR
STARTCHAR 2724
ENCODING 1043
SWIDTH 96 0
DWIDTH 16 0
BBX 16 16 0 -2
BITMAP
0000
1FF8
0408
0404
0400
0400
0400
0400
0400
0400
0400
0400
0400
1F00
0000
0000
ENDCHAR
STARTCHAR 2725
ENCODING 1044
SWIDTH 96 0
DWIDTH 16 0
BBX 16 16 0 -2
BITMAP
0000
0FFC
0210
0210
0210
0210
0210
0210
0210
0210
0410
0410
0810
3FFC
2004
2004
ENDCHAR
STARTCHAR 2726
ENCODING 1045
SWIDTH 96 0
DWIDTH 16 0
BBX 16 16 0 -2
BITMAP
0000
3FF8
0808
0804
0840
0840
0FC0
0840
0840
0800
0800
0804
0808
3FF8
0000
0000
ENDCHAR
STARTCHAR 2727
ENCODING 1025
SWIDTH 96 0
DWIDTH 16 0
BBX 16 16 0 -2
BITMAP
0C30
0C30
0000
3FF8
0808
0808
0840
0840
0FC0
0840
0840
0808
0808
3FF8
0000
0000
ENDCHAR
STARTCHAR 2728
ENCODING 1046
SWIDTH 96 0
DWIDTH 16 0
BBX 16 16 0 -2
BITMAP
0000
67CC
9112
1110
1110
1110
0920
1FF0
1110
3118
2108
610C
4104
E7CE
0000
0000
ENDCHAR
STARTCHAR 2729
ENCODING 1047
SWIDTH 96 0
DWIDTH 16 0
BBX 16 16 0 -2
BITMAP
0000
07C0
1C30
1018
0008
0008
0010
03E0
0010
0008
0008
1018
1C30
07C0
0000
0000
ENDCHAR
STARTCHAR 272a
ENCODING 1048
SWIDTH 96 0
DWIDTH 16 0
BBX 16 16 0 -2
BITMAP
0000
7C3E
1008
1018
1038
1068
10C8
1188
1308
1608
1C08
1808
1008
7C3E
0000
0000
ENDCHAR
STARTCHAR 272b
ENCODING 1049
SWIDTH 96 0
DWIDTH 16 0
BBX 16 16 0 -2
BITMAP
0660
0420
03C0
7C3E
1008
1038
1068
10C8
1188
1308
1608
1C08
1008
7C3E
0000
0000
ENDCHAR
STARTCHAR 272c
ENCODING 1050
SWIDTH 96 0
DWIDTH 16 0
BBX 16 16 0 -2
BITMAP
0000
3E3C
0864
0840
08C0
0880
0980
0F00
0980
08C0
0860
0830
0818
3E3E
0000
0000
ENDCHAR
STARTCHAR 272d
ENCODING 1051
SWIDTH 96 0
DWIDTH 16 0
BBX 16 16 0 -2
BITMAP
0000
0FFC
0210
0210
0210
0210
0210
0210
0210
0610
0410
0C10
5810
707C
0000
0000
ENDCHAR
STARTCHAR 272e
ENCODING 1052
SWIDTH 96 0
DWIDTH 16 0
BBX 16 16 0 -2
BITMAP
0000
783C
1830
1C70
1450
1450
16D0
1290
3298
2388
2108
2108
2008
F83E
0000
0000
ENDCHAR
STARTCHAR 272f
ENCODING 1053
SWIDTH 96 0
DWIDTH 16 0
BBX 16 16 0 -2
BITMAP
0000
7C3E
1008
1008
1008
1008
1FF8
1008
1008
1008
1008
1008
1008
7C3E
0000
0000
ENDCHAR
STARTCHAR 2730
ENCODING 1054
SWIDTH 96 0
DWIDTH 16 0
BBX 16 16 0 -2
BITMAP
0000
03C0
0C30
1818
1008
300C
2004
2004
2004
300C
1008
1818
0C30
03C0
0000
0000
ENDCHAR
STARTCHAR 2731
ENCODING 1055
SWIDTH 96 0
DWIDTH 16 0
BBX 16 16 0 -2
BITMAP
0000
7FFE
1008
1008
1008
1008
1008
1008
1008
1008
1008
1008
1008
7C3E
0000
0000
ENDCHAR
STARTCHAR 2732
ENCODING 1056
SWIDTH 96 0
DWIDTH 16 0
BBX 16 16 0 -2
BITMAP
0000
1FF0
0408
0404
0404
0404
0408
07F0
0400
0400
0400
0400
0400
1F00
0000
0000
ENDCHAR
STARTCHAR 2733
ENCODING 1057
SWIDTH 96 0
DWIDTH 16 0
BBX 16 16 0 -2
BITMAP
0000
03E0
0C38
1808
1008
3000
2000
2000
2000
3000
1008
1808
0C38
03E0
0000
0000
ENDCHAR
STARTCHAR 2734
ENCODING 1058
SWIDTH 96 0
DWIDTH 16 0
BBX 16 16 0 -2
BITMAP
0000
7FFC
4104
4104
0100
0100
0100
0100
0100
0100
0100
0100
0100
07C0
0000
0000
ENDCHAR
STARTCHAR 2735
ENCODING 1059
SWIDTH 96 0
DWIDTH 16 0
BBX 16 16 0 -2
BITMAP
0000
3E3E
0808
0C18
0410
0630
0220
0360
0140
01C0
0080
0180
1300
1E00
0000
0000
ENDCHAR
STARTCHAR 2736
ENCODING 1060
SWIDTH 96 0
DWIDTH 16 0
BBX 16 16 0 -2
BITMAP
0000
07C0
0100
0FE0
3118
610C
4104
4104
4104
610C
3118
0FE0
0100
07C0
0000
0000
ENDCHAR
STARTCHAR 2737
ENCODING 1061
SWIDTH 96 0
DWIDTH 16 0
BBX 16 16 0 -2
BITMAP
0000
7C7C
1010
1830
0C60
06C0
0380
0100
0380
06C0
0C60
1830
1010
787C
0000
0000
ENDCHAR
STARTCHAR 2738
ENCODING 1062
SWIDTH 96 0
DWIDTH 16 0
BBX 16 16 0 -2
BITMAP
0000
7C7C
1010
1010
1010
1010
1010
1010
1010
1010
1010
1010
1010
7FFE
0002
0002
ENDCHAR
STARTCHAR 2739
ENCODING 1063
SWIDTH 96 0
DWIDTH 16 0
BBX 16 16 0 -2
BITMAP
0000
7C7C
1010
1010
1010
1010
1010
1830
0FD0
0010
0010
0010
0010
007C
0000
0000
ENDCHAR
STARTCHAR 273a
ENCODING 1064
SWIDTH 96 0
DWIDTH 16 0
BBX 16 16 0 -2
BITMAP
0000
F7DE
2108
2108
2108
2108
2108
2108
2108
2108
2108
2108
2108
FFFE
0000
0000
ENDCHAR
STARTCHAR 273b
ENCODING 1065
SWIDTH 96 0
DWIDTH 16 0
BBX 16 16 0 -2
BITMAP
0000
F7DE
2108
2108
2108
2108
2108
2108
2108
2108
2108
2108
2108
FFFF
0001
0001
ENDCHAR
STARTCHAR 273c
ENCODING 1066
SWIDTH 96 0
DWIDTH 16 0
BBX 16 16 0 -2
BITMAP
0000
7F80
4200
4200
0200
0200
03F8
0204
0202
0202
0202
0202
0204
0FF8
0000
0000
ENDCHAR
STARTCHAR 273d
ENCODING 1067
SWIDTH 96 0
DWIDTH 16 0
BBX 16 16 0 -2
BITMAP
0000
F83E
2008
2008
2008
2008
3F08
2088
2048
2048
2048
2048
2088
FF3E
0000
0000
ENDCHAR
STARTCHAR 273e
ENCODING 1068
SWIDTH 96 0
DWIDTH 16 0
BBX 16 16 0 -2
BITMAP
0000
3E00
0800
0800
0800
0800
0FE0
0810
0808
0808
0808
0808
0810
3FE0
0000
0000
ENDCHAR
STARTCHAR 273f
ENCODING 1069
SWIDTH 96 0
DWIDTH 16 0
BBX 16 16 0 -2
BITMAP
0000
07C0
1C30
1018
1008
000C
0714
08E4
0004
000C
1008
1018
1C30
07C0
0000
0000
ENDCHAR
STARTCHAR 2740
ENCODING 1070
SWIDTH 96 0
DWIDTH 16 0
BBX 16 16 0 -2
BITMAP
0000
F870
218C
2104
2306
2202
2202
3E02
2202
2202
2306
2104
218C
F870
0000
0000
ENDCHAR
STARTCHAR 2741
ENCODING 1071
SWIDTH 96 0
DWIDTH 16 0
BBX 16 16 0 -2
BITMAP
0000
0FFC
1010
2010
2010
2010
1010
0FF0
0210
0610
0410
0C10
1810
707C
0000
0000
ENDCHAR
STARTCHAR 2751
ENCODING 1072
SWIDTH 96 0
DWIDTH 16 0
BBX 16 16 0 -2
BITMAP
0000
0000
0000
0000
0000
0000
07E0
0010
0010
07F0
0810
0810
0830
07D8
0000
0000
ENDCHAR
STARTCHAR 2752
ENCODING 1073
SWIDTH 96 0
DWIDTH 16 0
BBX 16 16 0 -2
BITMAP
0000
0010
03E0
0600
0C00
0800
0BC0
0C20
0810
0810
0810
0810
0420
03C0
0000
0000
ENDCHAR
STARTCHAR 2753
ENCODING 1074
SWIDTH 96 0
DWIDTH 16 0
BBX 16 16 0 -2
BITMAP
0000
0000
0000
0000
0000
0000
0FE0
0410
0410
07E0
0410
0410
0410
0FE0
0000
0000
ENDCHAR
STARTCHAR 2754
ENCODING 1075
SWIDTH 96 0
DWIDTH 16 0
BBX 16 16 0 -2
BITMAP
0000
0000
0000
0000
0000
0000
0FF0
0410
0410
0400
0400
0400
0400
0E00
0000
0000
ENDCHAR
STARTCHAR 2755
ENCODING 1076
SWIDTH 96 0
DWIDTH 16 0
BBX 16 16 0 -2
BITMAP
0000
0000
0000
0000
0000
0000
07F0
0220
0220
0220
0220
0620
0420
1FF8
1008
1008
ENDCHAR
STARTCHAR 2756
ENCODING 1077
SWIDTH 96 0
DWIDTH 16 0
BBX 16 16 0 -2
BITMAP
0000
0000
0000
0000
0000
0000
03C0
0420
0810
0FF0
0800
0800
0410
03E0
0000
0000
ENDCHAR
STARTCHAR 2757
ENCODING 1105
SWIDTH 96 0
DWIDTH 16 0
BBX 16 16 0 -2
BITMAP
0000
0000
0000
0660
0660
0000
03C0
0420
0810
0FF0
0800
0800
0410
03E0
0000
0000
ENDCHAR
STARTCHAR 2758
ENCODING 1078
SWIDTH 96 0
DWIDTH 16 0
BBX 16 16 0 -2
BITMAP
0000
0000
0000
0000
0000
0000
3398
1110
0920
07C0
0D60
0920
1930
3398
0000
0000
ENDCHAR
STARTCHAR 2759
ENCODING 1079
SWIDTH 96 0
DWIDTH 16 0
BBX 16 16 0 -2
BITMAP
0000
0000
0000
0000
0000
0000
07E0
0410
0010
01E0
0010
0010
0410
07E0
0000
0000
ENDCHAR
STARTCHAR 275a
ENCODING 1080
SWIDTH 96 0
DWIDTH 16 0
BBX 16 16 0 -2
BITMAP
0000
0000
0000
0000
0000
0000
1C38
0810
0830
08D0
0B10
0C10
0810
1C38
0000
0000
ENDCHAR
STARTCHAR 275b
ENCODING 1081
SWIDTH 96 0
DWIDTH 16 0
BBX 16 16 0 -2
BITMAP
0000
0000
0660
0420
03C0
0000
1C38
0810
0830
08D0
0B10
0C10
0810
1C38
0000
0000
ENDCHAR
STARTCHAR 275c
ENCODING 1082
SWIDTH 96 0
DWIDTH 16 0
BBX 16 16 0 -2
BITMAP
0000
0000
0000
0000
0000
0000
0E70
0490
0500
0700
0480
0440
0420
0E78
0000
0000
ENDCHAR
STARTCHAR 275d
ENCODING 1083
SWIDTH 96 0
DWIDTH 16 0
BBX 16 16 0 -2
BITMAP
0000
0000
0000
0000
0000
0000
07F0
0220
0220
0220
0220
0220
1620
1C70
0000
0000
ENDCHAR
STARTCHAR 275e
ENCODING 1084
SWIDTH 96 0
DWIDTH 16 0
BBX 16 16 0 -2
BITMAP
0000
0000
0000
0000
0000
0000
3838
1450
1450
1290
1290
1110
1110
3838
0000
0000
ENDCHAR
STARTCHAR 275f
ENCODING 1085
SWIDTH 96 0
DWIDTH 16 0
BBX 16 16 0 -2
BITMAP
0000
0000
0000
0000
0000
0000
1C38
0810
0810
0FF0
0810
0810
0810
1C38
0000
0000
ENDCHAR
STARTCHAR 2760
ENCODING 1086
SWIDTH 96 0
DWIDTH 16 0
BBX 16 16 0 -2
BITMAP
0000
0000
0000
0000
0000
0000
03C0
0420
0810
0810
0810
0810
0420
03C0
0000
0000
ENDCHAR
STARTCHAR 2761
ENCODING 1087
SWIDTH 96 0
DWIDTH 16 0
BBX 16 16 0 -2
BITMAP
0000
0000
0000
0000
0000
0000
1FF0
0820
0820
0820
0820
0820
0820
1C70
0000
0000
ENDCHAR
STARTCHAR 2762
ENCODING 1088
SWIDTH 96 0
DWIDTH 16 0
BBX 16 16 0 -2
BITMAP
0000
0000
0000
0000
0000
0000
0DE0
0610
0408
0408
0408
0610
05E0
0400
0400
0E00
ENDCHAR
STARTCHAR 2763
ENCODING 1089
SWIDTH 96 0
DWIDTH 16 0
BBX 16 16 0 -2
BITMAP
0000
0000
0000
0000
0000
0000
03E0
0410
0800
0800
0800
0800
0410
03E0
0000
0000
ENDCHAR
STARTCHAR 2764
ENCODING 1090
SWIDTH 96 0
DWIDTH 16 0
BBX 16 16 0 -2
BITMAP
0000
0000
0000
0000
0000
0000
1FF0
1110
0100
0100
0100
0100
0100
0380
0000
0000
ENDCHAR
STARTCHAR 2765
ENCODING 1091
SWIDTH 96 0
DWIDTH 16 0
BBX 16 16 0 -2
BITMAP
0000
0000
0000
0000
0000
0000
1C38
0810
0C30
0420
0660
0240
02C0
0180
1300
1E00
ENDCHAR
STARTCHAR 2766
ENCODING 1092
SWIDTH 96 0
DWIDTH 16 0
BBX 16 16 0 -2
BITMAP
0000
0300
0100
0100
0100
0100
0D60
1390
2108
2108
2108
2108
1390
0D60
0100
0380
ENDCHAR
STARTCHAR 2767
ENCODING 1093
SWIDTH 96 0
DWIDTH 16 0
BBX 16 16 0 -2
BITMAP
0000
0000
0000
0000
0000
0000
0E70
0420
0240
0180
0180
0240
0420
1E78
0000
0000
ENDCHAR
STARTCHAR 2768
ENCODING 1094
SWIDTH 96 0
DWIDTH 16 0
BBX 16 16 0 -2
BITMAP
0000
0000
0000
0000
0000
0000
1C70
0820
0820
0820
0820
0820
0820
1FF8
0008
0008
ENDCHAR
STARTCHAR 2769
ENCODING 1095
SWIDTH 96 0
DWIDTH 16 0
BBX 16 16 0 -2
BITMAP
0000
0000
0000
0000
0000
0000
1C38
0810
0810
0810
07F0
0010
0010
0038
0000
0000
ENDCHAR
STARTCHAR 276a
ENCODING 1096
SWIDTH 96 0
DWIDTH 16 0
BBX 16 16 0 -2
BITMAP
0000
0000
0000
0000
0000
0000
739C
2108
2108
2108
2108
2108
2108
7FFC
0000
0000
ENDCHAR
STARTCHAR 276b
ENCODING 1097
SWIDTH 96 0
DWIDTH 16 0
BBX 16 16 0 -2
BITMAP
0000
0000
0000
0000
0000
0000
739C
2108
2108
2108
2108
2108
2108
7FFE
0002
0002
ENDCHAR
STARTCHAR 276c
ENCODING 1098
SWIDTH 96 0
DWIDTH 16 0
BBX 16 16 0 -2
BITMAP
0000
0000
0000
0000
0000
0000
3F80
2100
2100
01F8
0104
0104
0104
03F8
0000
0000
ENDCHAR
STARTCHAR 276d
ENCODING 1099
SWIDTH 96 0
DWIDTH 16 0
BBX 16 16 0 -2
BITMAP
0000
0000
0000
0000
0000
0000
381C
1008
1008
1F88
1048
1048
1048
3F9C
0000
0000
ENDCHAR
STARTCHAR 276e
ENCODING 1100
SWIDTH 96 0
DWIDTH 16 0
BBX 16 16 0 -2
BITMAP
0000
0000
0000
0000
0000
0000
0E00
0400
0400
07E0
0410
0410
0410
0FE0
0000
0000
ENDCHAR
STARTCHAR 276f
ENCODING 1101
SWIDTH 96 0
DWIDTH 16 0
BBX 16 16 0 -2
BITMAP
0000
0000
0000
0000
0000
0000
07C0
0820
0010
0330
04D0
0010
0820
07C0
0000
0000
ENDCHAR
STARTCHAR 2770
ENCODING 1102
SWIDTH 96 0
DWIDTH 16 0
BBX 16 16 0 -2
BITMAP
0000
0000
0000
0000
0000
0000
1C70
0888
0904
0F04
0904
0904
0888
1C70
0000
0000
ENDCHAR
STARTCHAR 2771
ENCODING 1103
SWIDTH 96 0
DWIDTH 16 0
BBX 16 16 0 -2
BITMAP
0000
0000
0000
0000
0000
0000
07F0
0820
0820
0820
07E0
0220
0420
1C70
0000
0000
ENDCHAR
STARTCHAR 2821
ENCODING 9472
SWIDTH 96 0
DWIDTH 16 0
BBX 16 16 0 -2
BITMAP
0000
0000
0000
0000
0000
0000
0000
FFFF
0000
0000
0000
0000
0000
0000
0000
0000
ENDCHAR
STARTCHAR 2822
ENCODING 9474
SWIDTH 96 0
DWIDTH 16 0
BBX 16 16 0 -2
BITMAP
0100
0100
0100
0100
0100
0100
0100
0100
0100
0100
0100
0100
0100
0100
0100
0100
ENDCHAR
STARTCHAR 2823
ENCODING 9484
SWIDTH 96 0
DWIDTH 16 0
BBX 16 16 0 -2
BITMAP
0000
0000
0000
0000
0000
0000
0000
01FF
0100
0100
0100
0100
0100
0100
0100
0100
ENDCHAR
STARTCHAR 2824
ENCODING 9488
SWIDTH 96 0
DWIDTH 16 0
BBX 16 16 0 -2
BITMAP
0000
0000
0000
0000
0000
0000
0000
FF00
0100
0100
0100
0100
0100
0100
0100
0100
ENDCHAR
STARTCHAR 2825
ENCODING 9496
SWIDTH 96 0
DWIDTH 16 0
BBX 16 16 0 -2
BITMAP
0100
0100
0100
0100
0100
0100
0100
FF00
0000
0000
0000
0000
0000
0000
0000
0000
ENDCHAR
STARTCHAR 2826
ENCODING 9492
SWIDTH 96 0
DWIDTH 16 0
BBX 16 16 0 -2
BITMAP
0100
0100
0100
0100
0100
0100
0100
01FF
0000
0000
0000
0000
0000
0000
0000
0000
ENDCHAR
STARTCHAR 2827
ENCODING 9500
SWIDTH 96 0
DWIDTH 16 0
BBX 16 16 0 -2
BITMAP
0100
0100
0100
0100
0100
0100
0100
01FF
0100
0100
0100
0100
0100
0100
0100
0100
ENDCHAR
STARTCHAR 2828
ENCODING 9516
SWIDTH 96 0
DWIDTH 16 0
BBX 16 16 0 -2
BITMAP
0000
0000
0000
0000
0000
0000
0000
FFFF
0100
0100
0100
0100
0100
0100
0100
0100
ENDCHAR
STARTCHAR 2829
ENCODING 9508
SWIDTH 96 0
DWIDTH 16 0
BBX 16 16 0 -2
BITMAP
0100
0100
0100
0100
0100
0100
0100
FF00
0100
0100
0100
0100
0100
0100
0100
0100
ENDCHAR
STARTCHAR 282a
ENCODING 9524
SWIDTH 96 0
DWIDTH 16 0
BBX 16 16 0 -2
BITMAP
0100
0100
0100
0100
0100
0100
0100
FFFF
0000
0000
0000
0000
0000
0000
0000
0000
ENDCHAR
STARTCHAR 282b
ENCODING 9532
SWIDTH 96 0
DWIDTH 16 0
BBX 16 16 0 -2
BITMAP
0100
0100
0100
0100
0100
0100
0100
FFFF
0100
0100
0100
0100
0100
0100
0100
0100
ENDCHAR
STARTCHAR 282c
ENCODING 9473
SWIDTH 96 0
DWIDTH 16 0
BBX 16 16 0 -2
BITMAP
0000
0000
0000
0000
0000
0000
0000
FFFF
FFFF
0000
0000
0000
0000
0000
0000
0000
ENDCHAR
STARTCHAR 282d
ENCODING 9475
SWIDTH 96 0
DWIDTH 16 0
BBX 16 16 0 -2
BITMAP
0180
0180
0180
0180
0180
0180
0180
0180
0180
0180
0180
0180
0180
0180
0180
0180
ENDCHAR
STARTCHAR 282e
ENCODING 9487
SWIDTH 96 0
DWIDTH 16 0
BBX 16 16 0 -2
BITMAP
0000
0000
0000
0000
0000
0000
0000
01FF
01FF
0180
0180
0180
0180
0180
0180
0180
ENDCHAR
STARTCHAR 282f
ENCODING 9491
SWIDTH 96 0
DWIDTH 16 0
BBX 16 16 0 -2
BITMAP
0000
0000
0000
0000
0000
0000
0000
FF80
FF80
0180
0180
0180
0180
0180
0180
0180
ENDCHAR
STARTCHAR 2830
ENCODING 9499
SWIDTH 96 0
DWIDTH 16 0
BBX 16 16 0 -2
BITMAP
0180
0180
0180
0180
0180
0180
0180
FF80
FF80
0000
0000
0000
0000
0000
0000
0000
ENDCHAR
STARTCHAR 2831
ENCODING 9495
SWIDTH 96 0
DWIDTH 16 0
BBX 16 16 0 -2
BITMAP
0180
0180
0180
0180
0180
0180
0180
01FF
01FF
0000
0000
0000
0000
0000
0000
0000
ENDCHAR
STARTCHAR 2832
ENCODING 9507
SWIDTH 96 0
DWIDTH 16 0
BBX 16 16 0 -2
BITMAP
0180
0180
0180
0180
0180
0180
0180
01FF
01FF
0180
0180
0180
0180
0180
0180
0180
ENDCHAR
STARTCHAR 2833
ENCODING 9523
SWIDTH 96 0
DWIDTH 16 0
BBX 16 16 0 -2
BITMAP
0000
0000
0000
0000
0000
0000
0000
FFFF
FFFF
0180
0180
0180
0180
0180
0180
0180
ENDCHAR
STARTCHAR 2834
ENCODING 9515
SWIDTH 96 0
DWIDTH 16 0
BBX 16 16 0 -2
BITMAP
0180
0180
0180
0180
0180
0180
0180
FF80
FF80
0180
0180
0180
0180
0180
0180
0180
ENDCHAR
STARTCHAR 2835
ENCODING 9531
SWIDTH 96 0
DWIDTH 16 0
BBX 16 16 0 -2
BITMAP
0180
0180
0180
0180
0180
0180
0180
FFFF
FFFF
0000
0000
0000
0000
0000
0000
0000
ENDCHAR
STARTCHAR 2836
ENCODING 9547
SWIDTH 96 0
DWIDTH 16 0
BBX 16 16 0 -2
BITMAP
0180
0180
0180
0180
0180
0180
0180
FFFF
FFFF
0180
0180
0180
0180
0180
0180
0180
ENDCHAR
STARTCHAR 2837
ENCODING 9504
SWIDTH 96 0
DWIDTH 16 0
BBX 16 16 0 -2
BITMAP
0180
0180
0180
0180
0180
0180
0180
01FF
0180
0180
0180
0180
0180
0180
0180
0180
ENDCHAR
STARTCHAR 2838
ENCODING 9519
SWIDTH 96 0
DWIDTH 16 0
BBX 16 16 0 -2
BITMAP
0000
0000
0000
0000
0000
0000
0000
FFFF
FFFF
0100
0100
0100
0100
0100
0100
0100
ENDCHAR
STARTCHAR 2839
ENCODING 9512
SWIDTH 96 0
DWIDTH 16 0
BBX 16 16 0 -2
BITMAP
0180
0180
0180
0180
0180
0180
0180
FF80
0180
0180
0180
0180
0180
0180
0180
0180
ENDCHAR
STARTCHAR 283a
ENCODING 9527
SWIDTH 96 0
DWIDTH 16 0
BBX 16 16 0 -2
BITMAP
0100
0100
0100
0100
0100
0100
0100
FFFF
FFFF
0000
0000
0000
0000
0000
0000
0000
ENDCHAR
STARTCHAR 283b
ENCODING 9535
SWIDTH 96 0
DWIDTH 16 0
BBX 16 16 0 -2
BITMAP
0100
0100
0100
0100
0100
0100
0100
FFFF
FFFF
0100
0100
0100
0100
0100
0100
0100
ENDCHAR
STARTCHAR 283c
ENCODING 9501
SWIDTH 96 0
DWIDTH 16 0
BBX 16 16 0 -2
BITMAP
0100
0100
0100
0100
0100
0100
0100
01FF
01FF
0100
0100
0100
0100
0100
0100
0100
ENDCHAR
STARTCHAR 283d
ENCODING 9520
SWIDTH 96 0
DWIDTH 16 0
BBX 16 16 0 -2
BITMAP
0000
0000
0000
0000
0000
0000
0000
FFFF
0180
0180
0180
0180
0180
0180
0180
0180
ENDCHAR
STARTCHAR 283e
ENCODING 9509
SWIDTH 96 0
DWIDTH 16 0
BBX 16 16 0 -2
BITMAP
0100
0100
0100
0100
0100
0100
0100
FF00
FF00
0100
0100
0100
0100
0100
0100
0100
ENDCHAR
STARTCHAR 283f
ENCODING 9528
SWIDTH 96 0
DWIDTH 16 0
BBX 16 16 0 -2
BITMAP
0180
0180
0180
0180
0180
0180
0180
FFFF
0000
0000
0000
0000
0000
0000
0000
0000
ENDCHAR
STARTCHAR 2840
ENCODING 9538
SWIDTH 96 0
DWIDTH 16 0
BBX 16 16 0 -2
BITMAP
0180
0180
0180
0180
0180
0180
0180
FFFF
0180
0180
0180
0180
0180
0180
0180
0180
ENDCHAR
STARTCHAR 3021
ENCODING 20124
SWIDTH 96 0
DWIDTH 16 0
BBX 16 16 0 -2
BITMAP
0000
7FFE
0440
0440
0440
3FFC
2444
2444
2444
2444
3FFC
0440
0440
0440
FFFF
0000
ENDCHAR
STARTCHAR 3022
ENCODING 21782
SWIDTH 96 0
DWIDTH 16 0
BBX 16 16 0 -2
BITMAP
0000
0FFF
F090
9090
9090
97FE
9492
9492
9492
97FE
9090
F090
0090
0090
0FFF
0000
ENDCHAR
STARTCHAR 3023
ENCODING 23043
SWIDTH 96 0
DWIDTH 16 0
BBX 16 16 0 -2
BITMAP
2010
2010
20FE
2010
FC10
2410
25FF
6400
4410
4C10
E8FE
1810
1410
3410
6010
C1FF
ENDCHAR
STARTCHAR 3024
ENCODING 38463
SWIDTH 96 0
DWIDTH 16 0
BBX 16 16 0 -2
BITMAP
0000
7DFF
4404
4C04
59E4
5124
4924
4524
4524
4524
45E4
4404
5C04
4004
4004
401C
ENDCHAR
STARTCHAR 3025
ENCODING 21696
SWIDTH 96 0
DWIDTH 16 0
BBX 16 16 0 -2
BITMAP
0100
0100
FFFF
0000
1FF8
1008
1008
1008
1FF8
0642
0C66
382C
E830
0818
0F8C
7807
ENDCHAR
STARTCHAR 3026
ENCODING 24859
SWIDTH 96 0
DWIDTH 16 0
BBX 16 16 0 -2
BITMAP
001C
7FF0
2204
1108
FFFF
8101
948D
3416
67F2
0800
0FF8
3C30
E660
03C0
1E78
F00F
ENDCHAR
STARTCHAR 3027
ENCODING 25384
SWIDTH 96 0
DWIDTH 16 0
BBX 16 16 0 -2
BITMAP
2080
2084
2184
F93E
27E3
2100
2100
23FE
3620
E020
27FF
2050
20D8
218C
2306
6603
ENDCHAR
STARTCHAR 3028
ENCODING 23030
SWIDTH 96 0
DWIDTH 16 0
BBX 16 16 0 -2
BITMAP
2010
2038
2028
206C
FCC6
2583
2400
647C
4C00
4800
E8FE
1882
1482
3482
6082
C0FE
ENDCHAR
STARTCHAR 3029
ENCODING 36898
SWIDTH 96 0
DWIDTH 16 0
BBX 16 16 0 -2
BITMAP
0080
60FC
3104
1688
0070
01DC
0707
F020
11FC
1020
11FC
1020
13FE
3020
6800
C7FF
ENDCHAR
STARTCHAR 302a
ENCODING 33909
SWIDTH 96 0
DWIDTH 16 0
BBX 16 16 0 -2
BITMAP
0420
0420
FFFF
0420
0000
7E44
0429
4812
3FFC
E107
0100
7FFE
0240
0660
1C38
700E
ENDCHAR
STARTCHAR 302b
ENCODING 33564
SWIDTH 96 0
DWIDTH 16 0
BBX 16 16 0 -2
BITMAP
0420
0420
FFFF
0420
0000
FFFF
0440
0440
7FFE
4442
4C42
787E
4002
4002
7FFE
0000
ENDCHAR
STARTCHAR 302c
ENCODING 31312
SWIDTH 96 0
DWIDTH 16 0
BBX 16 16 0 -2
BITMAP
0880
39F0
E220
27FC
2244
FBFC
2244
33FC
6840
67FE
6442
A7FE
2442
27FE
2041
203F
ENDCHAR
STARTCHAR 302d
ENCODING 24746
SWIDTH 96 0
DWIDTH 16 0
BBX 16 16 0 -2
BITMAP
0000
7FFE
0440
0440
3FFC
2444
2444
3FFC
0440
0440
FFFF
0080
24C6
244B
6619
C3F0
ENDCHAR
STARTCHAR 302e
ENCODING 25569
SWIDTH 96 0
DWIDTH 16 0
BBX 16 16 0 -2
BITMAP
2000
23FE
2202
2202
FBFE
2200
22FE
2220
2244
3AFE
E212
2210
26FE
2410
2C10
61FF
ENDCHAR
STARTCHAR 302f
ENCODING 28197
SWIDTH 96 0
DWIDTH 16 0
BBX 16 16 0 -2
BITMAP
0000
63FE
3202
1202
03FE
C200
62FE
2220
0244
12FE
1212
3210
26FE
6410
4C10
C1FF
ENDCHAR
STARTCHAR 3030
ENCODING 26093
SWIDTH 96 0
DWIDTH 16 0
BBX 16 16 0 -2
BITMAP
2000
20FC
2084
2084
FC84
2484
24FC
2484
2484
2484
2484
24FC
2400
6401
4603
C3FE
ENDCHAR
STARTCHAR 3031
ENCODING 33894
SWIDTH 96 0
DWIDTH 16 0
BBX 16 16 0 -2
BITMAP
0420
FFFF
0420
0200
3FF8
0408
FFFF
0000
1FF8
1008
1FF8
0040
3FFC
0840
FFFF
0040
ENDCHAR
STARTCHAR 3032
ENCODING 33446
SWIDTH 96 0
DWIDTH 16 0
BBX 16 16 0 -2
BITMAP
0420
0420
FFFF
0420
0000
7FFE
0000
1FFC
1004
1004
1FFC
1000
3000
2000
6000
C000
ENDCHAR
STARTCHAR 3033
ENCODING 39925
SWIDTH 96 0
DWIDTH 16 0
BBX 16 16 0 -2
BITMAP
2020
3C64
6446
48FA
FE10
53FF
5228
7E44
5393
5220
7EC4
0018
5561
5506
D418
80E0
ENDCHAR
STARTCHAR 3034
ENCODING 26771
SWIDTH 96 0
DWIDTH 16 0
BBX 16 16 0 -2
BITMAP
1020
1020
13FE
FC00
1104
118C
3888
37FF
3420
5020
5020
93FE
1020
1020
1020
1020
ENDCHAR
STARTCHAR 3035
ENCODING 22311
SWIDTH 96 0
DWIDTH 16 0
BBX 16 16 0 -2
BITMAP
0000
3FFE
2000
2040
2040
2040
2040
2FFE
2040
2040
2040
6040
4040
C040
1FFF
0000
ENDCHAR
STARTCHAR 3036
ENCODING 26017
SWIDTH 96 0
DWIDTH 16 0
BBX 16 16 0 -2
BITMAP
1010
1038
FE28
106C
7CC6
4583
4464
7C34
4404
44C4
7C64
1007
FE3C
10E4
1004
1004
ENDCHAR
STARTCHAR 3037
ENCODING 25201
SWIDTH 96 0
DWIDTH 16 0
BBX 16 16 0 -2
BITMAP
2000
27F8
2108
2118
F910
2110
23BC
2284
22C4
3A4C
E268
2238
2610
2438
246C
6DC7
ENDCHAR
STARTCHAR 3038
ENCODING 23451
SWIDTH 96 0
DWIDTH 16 0
BBX 16 16 0 -2
BITMAP
0100
0100
7FFE
4002
5002
1000
1F7C
3144
2344
7A44
CE44
044C
0C40
1841
3063
E03E
ENDCHAR
STARTCHAR 3039
ENCODING 22992
SWIDTH 96 0
DWIDTH 16 0
BBX 16 16 0 -2
BITMAP
2000
20FC
2084
2084
FC84
24FC
2484
6484
4C84
4884
E8FC
1884
1484
3484
6084
C3FF
ENDCHAR
STARTCHAR 303a
ENCODING 34427
SWIDTH 96 0
DWIDTH 16 0
BBX 16 16 0 -2
BITMAP
1010
1010
1010
FE10
93FF
9240
9240
9240
FE40
1040
1040
1240
1240
1F60
F13E
0000
ENDCHAR
STARTCHAR 303b
ENCODING 39156
SWIDTH 96 0
DWIDTH 16 0
BBX 16 16 0 -2
BITMAP
1020
3820
2C64
6646
50C2
FC9F
45F1
7C00
4400
7CFE
4082
4482
4482
5E82
7282
C0FE
ENDCHAR
STARTCHAR 303c
ENCODING 32098
SWIDTH 96 0
DWIDTH 16 0
BBX 16 16 0 -2
BITMAP
1040
3040
60FF
C481
6D81
1879
3049
6449
FE79
1249
1049
5479
5601
D203
9002
100E
ENDCHAR
STARTCHAR 303d
ENCODING 32190
SWIDTH 96 0
DWIDTH 16 0
BBX 16 16 0 -2
BITMAP
1020
3020
61FE
C420
6FFF
1848
30C8
658F
FE40
127C
10C4
558C
5658
D230
90EC
1387
ENDCHAR
STARTCHAR 303e
ENCODING 39822
SWIDTH 96 0
DWIDTH 16 0
BBX 16 16 0 -2
BITMAP
2010
3E10
6210
4410
FF1F
4910
4910
7F10
4910
497E
7F42
0042
5542
5542
D442
807E
ENDCHAR
STARTCHAR 303f
ENCODING 25110
SWIDTH 96 0
DWIDTH 16 0
BBX 16 16 0 -2
BITMAP
0048
004C
0044
FFFF
0040
0040
7E42
4266
4224
422C
7E38
0010
0739
3C6D
E1C7
0702
ENDCHAR
STARTCHAR 3040
ENCODING 31903
SWIDTH 96 0
DWIDTH 16 0
BBX 16 16 0 -2
BITMAP
0000
FFFF
0440
7FFE
4442
4442
7FFE
1108
1918
0910
FFFF
0520
0D30
391C
E107
0100
ENDCHAR
STARTCHAR 3041
ENCODING 34999
SWIDTH 96 0
DWIDTH 16 0
BBX 16 16 0 -2
BITMAP
1010
1038
1028
FC6C
04C6
0D83
1800
127C
3600
7C00
D6FE
1282
1082
1082
1082
10FE
ENDCHAR
STARTCHAR 3042
ENCODING 23433
SWIDTH 96 0
DWIDTH 16 0
BBX 16 16 0 -2
BITMAP
0100
0100
7FFE
4002
4202
0600
0400
FFFF
0808
1818
1030
3E60
03C0
0670
1C1C
7006
ENDCHAR
STARTCHAR 3043
ENCODING 24245
SWIDTH 96 0
DWIDTH 16 0
BBX 16 16 0 -2
BITMAP
0080
0080
7FFF
4100
5FFE
4220
4490
4FFC
788B
4888
4FF8
4888
C888
8FF9
8083
007E
ENDCHAR
STARTCHAR 3044
ENCODING 25353
SWIDTH 96 0
DWIDTH 16 0
BBX 16 16 0 -2
BITMAP
2040
2040
27FE
2402
FC82
2080
2080
2FFF
3904
E30C
2208
27D8
2070
20D8
218C
6706
ENDCHAR
STARTCHAR 3045
ENCODING 26263
SWIDTH 96 0
DWIDTH 16 0
BBX 16 16 0 -2
BITMAP
0020
0020
FBFE
8904
898C
8888
8FFF
F800
8800
89FC
8904
8904
F9FC
0104
0104
01FC
ENDCHAR
STARTCHAR 3046
ENCODING 26696
SWIDTH 96 0
DWIDTH 16 0
BBX 16 16 0 -2
BITMAP
0100
7FFE
4002
0200
FFFF
0810
1E30
03E0
0E38
780C
0100
FFFF
0520
1D38
F10F
0100
ENDCHAR
STARTCHAR 3047
ENCODING 38343
SWIDTH 96 0
DWIDTH 16 0
BBX 16 16 0 -2
BITMAP
0000
7E7E
4242
7E7E
4242
7E7E
4102
4FF2
4422
5FFA
4002
47E2
4422
47E2
4422
47EE
ENDCHAR
STARTCHAR 3048
ENCODING 38797
SWIDTH 96 0
DWIDTH 16 0
BBX 16 16 0 -2
BITMAP
4410
4410
FEFE
4482
44A2
7C20
1020
FEFF
9224
9264
FE4C
10E8
FE38
102C
1066
10C2
ENDCHAR
STARTCHAR 3049
ENCODING 26447
SWIDTH 96 0
DWIDTH 16 0
BBX 16 16 0 -2
BITMAP
0100
0100
0100
FFFF
0540
0D60
1930
311C
E107
0000
3FFC
2004
2004
2004
2004
3FFC
ENDCHAR
STARTCHAR 304a
ENCODING 20197
SWIDTH 96 0
DWIDTH 16 0
BBX 16 16 0 -2
BITMAP
0000
2004
2004
2004
2604
2304
2184
2084
200C
2008
2008
201C
2E36
3862
E0C3
0381
ENDCHAR
STARTCHAR 304b
ENCODING 20234
SWIDTH 96 0
DWIDTH 16 0
BBX 16 16 0 -2
BITMAP
0800
0BFE
1822
1022
3022
27FF
6022
A022
2022
23FE
2020
2020
2060
2040
20C0
2180
ENDCHAR
STARTCHAR 304c
ENCODING 20301
SWIDTH 96 0
DWIDTH 16 0
BBX 16 16 0 -2
BITMAP
0820
0820
1820
13FE
3000
2000
6104
A104
218C
2088
2088
2098
2010
2010
27FF
2000
ENDCHAR
STARTCHAR 304d
ENCODING 20381
SWIDTH 96 0
DWIDTH 16 0
BBX 16 16 0 -2
BITMAP
0820
0820
1820
17FF
3040
2040
60E2
A1A6
232C
2738
2D10
2118
2108
216C
21C6
2703
ENDCHAR
STARTCHAR 304e
ENCODING 20553
SWIDTH 96 0
DWIDTH 16 0
BBX 16 16 0 -2
BITMAP
0840
0BFC
1884
1084
37FF
2000
63FC
A204
23FC
2010
27FE
2110
2110
2FFF
2010
2010
ENDCHAR
STARTCHAR 304f
ENCODING 22258
SWIDTH 96 0
DWIDTH 16 0
BBX 16 16 0 -2
BITMAP
0000
7FFE
4002
4422
4422
5FFA
4422
4422
4422
5FFA
4422
4C22
5822
4002
7FFE
0000
ENDCHAR
STARTCHAR 3050
ENCODING 22839
SWIDTH 96 0
DWIDTH 16 0
BBX 16 16 0 -2
BITMAP
0100
0100
FFFF
0100
7FFC
0104
3FFC
2100
2100
3FFE
0282
06C2
044E
0C60
3838
E00F
ENDCHAR
STARTCHAR 3051
ENCODING 22996
SWIDTH 96 0
DWIDTH 16 0
BBX 16 16 0 -2
BITMAP
0038
3FE0
0100
FFFF
0520
0D30
391C
E107
0100
0200
FFFF
0420
0860
1FC0
0378
7C0E
ENDCHAR
STARTCHAR 3052
ENCODING 23041
SWIDTH 96 0
DWIDTH 16 0
BBX 16 16 0 -2
BITMAP
0048
004C
0044
7FFF
4040
5F40
4044
4464
5FAC
4928
4938
5E10
4339
C56D
98C7
8182
ENDCHAR
STARTCHAR 3053
ENCODING 23561
SWIDTH 96 0
DWIDTH 16 0
BBX 16 16 0 -2
BITMAP
0004
7F04
4104
4104
7F04
407F
4004
5F04
4024
5F34
4414
5504
D504
9504
A504
0C1C
ENDCHAR
STARTCHAR 3054
ENCODING 24799
SWIDTH 96 0
DWIDTH 16 0
BBX 16 16 0 -2
BITMAP
1080
1088
1198
1910
55FF
5310
D510
91FE
1110
1110
1110
11FE
1110
1110
1110
11FF
ENDCHAR
STARTCHAR 3055
ENCODING 24847
SWIDTH 96 0
DWIDTH 16 0
BBX 16 16 0 -2
BITMAP
0100
0100
7FFE
0810
0420
FFFF
0000
1FF8
1008
1FF8
1008
1FF8
0100
2486
6413
C3F1
ENDCHAR
STARTCHAR 3056
ENCODING 24944
SWIDTH 96 0
DWIDTH 16 0
BBX 16 16 0 -2
BITMAP
0004
7F04
4104
7F04
407F
5F04
4024
5F14
4414
D504
9504
2C1C
0100
2486
6413
C3F1
ENDCHAR
STARTCHAR 3057
ENCODING 26131
SWIDTH 96 0
DWIDTH 16 0
BBX 16 16 0 -2
BITMAP
0000
1FF8
1008
1008
1FF8
1008
1008
1FF8
0800
1FFE
3222
E662
0C42
38C6
0384
001C
ENDCHAR
STARTCHAR 3058
ENCODING 26885
SWIDTH 96 0
DWIDTH 16 0
BBX 16 16 0 -2
BITMAP
1020
1020
13FE
FC50
10D8
118C
3800
37FF
3404
51E4
5124
9124
11E4
1004
1004
101C
ENDCHAR
STARTCHAR 3059
ENCODING 28858
SWIDTH 96 0
DWIDTH 16 0
BBX 16 16 0 -2
BITMAP
2200
3200
1200
7FF8
0408
0410
0FFE
0802
1804
3FFF
6001
C011
1489
124B
2242
000E
ENDCHAR
STARTCHAR 305a
ENCODING 30031
SWIDTH 96 0
DWIDTH 16 0
BBX 16 16 0 -2
BITMAP
0000
3FFC
2104
2104
3FFC
2104
2104
3FFC
0000
FFFF
1084
10CC
1068
1730
1C1C
7007
ENDCHAR
STARTCHAR 305b
ENCODING 30064
SWIDTH 96 0
DWIDTH 16 0
BBX 16 16 0 -2
BITMAP
0000
3FFC
2104
2104
3FFC
2104
2104
3FFC
0420
7FFE
0420
0420
FFFF
0810
381C
E007
ENDCHAR
STARTCHAR 305c
ENCODING 31227
SWIDTH 96 0
DWIDTH 16 0
BBX 16 16 0 -2
BITMAP
0620
1C3E
F062
10C6
11AC
FE18
1030
10E8
380F
3419
5233
50EA
9006
100C
1038
11E0
ENDCHAR
STARTCHAR 305d
ENCODING 32173
SWIDTH 96 0
DWIDTH 16 0
BBX 16 16 0 -2
BITMAP
1040
3044
60CC
C488
6DFF
1A88
3088
64FE
FE88
1288
1088
54FE
5688
D288
9088
10FF
ENDCHAR
STARTCHAR 305e
ENCODING 32239
SWIDTH 96 0
DWIDTH 16 0
BBX 16 16 0 -2
BITMAP
1020
30FC
6044
C444
6DFF
1800
30FE
6482
FEFE
1208
10FE
5448
5448
D5FF
9008
1008
ENDCHAR
STARTCHAR 305f
ENCODING 32963
SWIDTH 96 0
DWIDTH 16 0
BBX 16 16 0 -2
BITMAP
7FFE
4102
4102
7FFE
4102
4102
7FFE
0000
3FFC
2004
3FFC
2004
3FFC
2004
2004
201C
ENDCHAR
STARTCHAR 3060
ENCODING 33806
SWIDTH 96 0
DWIDTH 16 0
BBX 16 16 0 -2
BITMAP
0420
FFFF
0420
0078
3FC0
0100
FFFF
0540
3938
E10F
0400
FFFF
0810
3F20
01F8
7E0E
ENDCHAR
STARTCHAR 3061
ENCODING 34915
SWIDTH 96 0
DWIDTH 16 0
BBX 16 16 0 -2
BITMAP
0100
0100
0100
FFFF
0280
0682
0CC6
184C
3878
E820
0830
0810
0818
0B8C
1E06
7003
ENDCHAR
STARTCHAR 3062
ENCODING 35586
SWIDTH 96 0
DWIDTH 16 0
BBX 16 16 0 -2
BITMAP
0000
7CFE
0092
FEFE
0092
7C92
00FE
0000
7CFE
0082
00FE
7C82
44FE
4482
4482
7C86
ENDCHAR
STARTCHAR 3063
ENCODING 36949
SWIDTH 96 0
DWIDTH 16 0
BBX 16 16 0 -2
BITMAP
0040
63FC
3084
1084
07FF
0000
01FC
F104
11FC
1010
13FE
1110
17FF
3010
6810
C7FF
ENDCHAR
STARTCHAR 3064
ENCODING 36986
SWIDTH 96 0
DWIDTH 16 0
BBX 16 16 0 -2
BITMAP
0020
61FC
3124
11FC
0020
07FF
0000
F1FC
1104
11FC
1104
11FC
1104
31FC
6A02
C7FF
ENDCHAR
STARTCHAR 3065
ENCODING 21307
SWIDTH 96 0
DWIDTH 16 0
BBX 16 16 0 -2
BITMAP
0000
7FFE
4400
4400
4FF8
5880
4080
5FFC
4140
4360
4220
4630
4C18
4000
7FFE
0000
ENDCHAR
STARTCHAR 3066
ENCODING 20117
SWIDTH 96 0
DWIDTH 16 0
BBX 16 16 0 -2
BITMAP
0420
0420
0420
0420
7FFE
0420
0420
0420
0420
FFFF
0420
0420
0C20
0820
1820
3020
ENDCHAR
STARTCHAR 3067
ENCODING 20133
SWIDTH 96 0
DWIDTH 16 0
BBX 16 16 0 -2
BITMAP
0100
0100
0100
FFFF
0100
0320
3660
18C8
0D98
0330
0660
1CC0
71B0
0718
1C0C
7006
ENDCHAR
STARTCHAR 3068
ENCODING 22495
SWIDTH 96 0
DWIDTH 16 0
BBX 16 16 0 -2
BITMAP
2028
2024
2024
27FF
F820
2020
27A2
24B2
2496
2494
279C
3808
6399
CE2D
00C7
0302
ENDCHAR
STARTCHAR 3069
ENCODING 32946
SWIDTH 96 0
DWIDTH 16 0
BBX 16 16 0 -2
BITMAP
0100
0100
FFFF
0400
0808
1FFC
7006
0000
1FF8
1008
1FF8
1008
1FF8
1008
1008
1038
ENDCHAR
STARTCHAR 306a
ENCODING 37057
SWIDTH 96 0
DWIDTH 16 0
BBX 16 16 0 -2
BITMAP
0800
083E
FFA2
1026
1024
3F2C
2128
6124
BF22
2122
2122
3F22
2122
212E
2120
2720
ENDCHAR
STARTCHAR 306b
ENCODING 30959
SWIDTH 96 0
DWIDTH 16 0
BBX 16 16 0 -2
BITMAP
0122
FA24
26AD
2122
2225
22AF
77A4
5022
D3FF
5220
5312
5294
7288
0615
0427
0CC2
ENDCHAR
STARTCHAR 306c
ENCODING 19968
SWIDTH 96 0
DWIDTH 16 0
BBX 16 16 0 -2
BITMAP
0000
0000
0000
0000
0000
0000
0000
7FFE
0000
0000
0000
0000
0000
0000
0000
0000
ENDCHAR
STARTCHAR 306d
ENCODING 22769
SWIDTH 96 0
DWIDTH 16 0
BBX 16 16 0 -2
BITMAP
0100
0100
FFFF
0100
0100
3FFC
0000
FFFF
8001
9031
11E0
1F00
1002
1006
1804
0FFC
ENDCHAR
STARTCHAR 306e
ENCODING 28322
SWIDTH 96 0
DWIDTH 16 0
BBX 16 16 0 -2
BITMAP
0204
630C
3108
17FE
0108
C30C
6204
2606
0C03
0000
17FE
3492
2492
6492
4492
CFFF
ENDCHAR
STARTCHAR 306f
ENCODING 36920
SWIDTH 96 0
DWIDTH 16 0
BBX 16 16 0 -2
BITMAP
0080
60FC
3188
1310
07FE
0222
0222
F222
13FE
1090
1190
1111
1311
360F
6800
C7FF
ENDCHAR
STARTCHAR 3070
ENCODING 31282
SWIDTH 96 0
DWIDTH 16 0
BBX 16 16 0 -2
BITMAP
0606
1C3C
F1E0
1000
1122
FDB6
1094
1000
393E
3522
5122
513E
9122
1122
1122
113E
ENDCHAR
STARTCHAR 3071
ENCODING 33576
SWIDTH 96 0
DWIDTH 16 0
BBX 16 16 0 -2
BITMAP
0420
0420
FFFF
0420
0520
6100
31FE
1322
0226
0674
1050
30D8
2088
618C
C306
0603
ENDCHAR
STARTCHAR 3072
ENCODING 33419
SWIDTH 96 0
DWIDTH 16 0
BBX 16 16 0 -2
BITMAP
0420
0420
FFFF
0420
0420
0000
3FFC
0100
0100
FFFF
0100
0100
0100
0100
0100
0700
ENDCHAR
STARTCHAR 3073
ENCODING 39983
SWIDTH 96 0
DWIDTH 16 0
BBX 16 16 0 -2
BITMAP
21EF
3C21
6421
49EF
FD08
5508
55EF
7C21
5529
54A5
7C21
0163
55A5
5529
D463
80C6
ENDCHAR
STARTCHAR 3074
ENCODING 20801
SWIDTH 96 0
DWIDTH 16 0
BBX 16 16 0 -2
BITMAP
0400
0400
0C10
0818
180C
11FE
7F22
0420
0420
0420
0420
0C20
0821
1821
3033
E01E
ENDCHAR
STARTCHAR 3075
ENCODING 21360
SWIDTH 96 0
DWIDTH 16 0
BBX 16 16 0 -2
BITMAP
0300
0E00
78FE
4082
4082
4082
4082
7E82
4082
4082
4082
4082
4082
7E9E
0080
0080
ENDCHAR
STARTCHAR 3076
ENCODING 21693
SWIDTH 96 0
DWIDTH 16 0
BBX 16 16 0 -2
BITMAP
0000
03FE
F202
9222
9222
92FA
9222
9222
9272
9252
F252
028A
0202
0202
03FE
0000
ENDCHAR
STARTCHAR 3077
ENCODING 21729
SWIDTH 96 0
DWIDTH 16 0
BBX 16 16 0 -2
BITMAP
0000
1FF8
1008
1008
1FF8
0000
3FFC
2004
3FFC
2004
3FFC
2004
3FFC
0000
1818
700E
ENDCHAR
STARTCHAR 3078
ENCODING 22240
SWIDTH 96 0
DWIDTH 16 0
BBX 16 16 0 -2
BITMAP
0000
7FFE
4002
4102
4102
5FFA
4102
4382
42C2
4662
4C32
581A
4002
4002
7FFE
0000
ENDCHAR
STARTCHAR 3079
ENCODING 23035
SWIDTH 96 0
DWIDTH 16 0
BBX 16 16 0 -2
BITMAP
2000
23FE
2202
2222
FA22
2AFA
2A22
6A22
4A72
5A52
5252
D28A
3A02
2A02
63FE
C000
ENDCHAR
STARTCHAR 307a
ENCODING 24341
SWIDTH 96 0
DWIDTH 16 0
BBX 16 16 0 -2
BITMAP
0004
FF04
0104
0104
0104
7F04
4004
4004
4004
7F04
0104
0104
0304
0204
0604
3C04
ENDCHAR
STARTCHAR 307b
ENCODING 39154
SWIDTH 96 0
DWIDTH 16 0
BBX 16 16 0 -2
BITMAP
1040
3840
2C40
667F
5041
FCD3
4492
7C10
4410
7C38
4028
4428
446C
5E44
72C6
C183
ENDCHAR
STARTCHAR 307c
ENCODING 28139
SWIDTH 96 0
DWIDTH 16 0
BBX 16 16 0 -2
BITMAP
600E
33F8
1002
0246
C364
6120
201C
01F0
0020
1020
17FF
3020
2020
6020
43FE
C000
ENDCHAR
STARTCHAR 307d
ENCODING 32996
SWIDTH 96 0
DWIDTH 16 0
BBX 16 16 0 -2
BITMAP
2104
2204
2C44
2684
2104
2224
2FF4
2014
27E4
2424
27E4
2424
27E4
6425
4425
C463
ENDCHAR
STARTCHAR 307e
ENCODING 34093
SWIDTH 96 0
DWIDTH 16 0
BBX 16 16 0 -2
BITMAP
0420
FFFF
0420
0000
7830
4848
48B4
5303
50FC
4808
49FE
4800
5BFF
4084
413E
43E3
ENDCHAR
STARTCHAR 3121
ENCODING 38498
SWIDTH 96 0
DWIDTH 16 0
BBX 16 16 0 -2
BITMAP
0020
7820
4BFE
4A02
4A02
51FC
5000
4800
4FFF
4890
4890
4890
5990
4111
4313
460E
ENDCHAR
STARTCHAR 3122
ENCODING 38512
SWIDTH 96 0
DWIDTH 16 0
BBX 16 16 0 -2
BITMAP
0020
7870
48D8
498C
4B76
5603
51FC
4808
4810
49FC
4800
4FFF
5880
4084
413E
43E3
ENDCHAR
STARTCHAR 3123
ENCODING 38560
SWIDTH 96 0
DWIDTH 16 0
BBX 16 16 0 -2
BITMAP
0006
783C
4BE2
4926
4894
51FE
5002
49FE
4802
49FE
4820
4810
5952
4143
4345
423C
ENDCHAR
STARTCHAR 3124
ENCODING 38907
SWIDTH 96 0
DWIDTH 16 0
BBX 16 16 0 -2
BITMAP
1000
10FE
FE82
4482
6CFE
2800
FEFE
0082
7CFE
4482
44FE
7C82
44FE
4444
7CC6
0183
ENDCHAR
STARTCHAR 3125
ENCODING 21515
SWIDTH 96 0
DWIDTH 16 0
BBX 16 16 0 -2
BITMAP
0008
7C08
4408
4408
47FF
4408
4408
4588
44C8
4448
4408
7C08
0008
0008
0008
0038
ENDCHAR
STARTCHAR 3126
ENCODING 21491
SWIDTH 96 0
DWIDTH 16 0
BBX 16 16 0 -2
BITMAP
0200
0200
0200
FFFF
0400
0400
0C00
0800
1FFC
3804
6804
C804
0804
0804
0FFC
0000
ENDCHAR
STARTCHAR 3127
ENCODING 23431
SWIDTH 96 0
DWIDTH 16 0
BBX 16 16 0 -2
BITMAP
0100
0100
7FFE
4002
4002
5FFA
0100
0100
0100
FFFF
0100
0100
0100
0100
0100
0700
ENDCHAR
STARTCHAR 3128
ENCODING 28879
SWIDTH 96 0
DWIDTH 16 0
BBX 16 16 0 -2
BITMAP
0080
0100
1FF8
1008
1008
1008
1FF8
1000
1FFF
1000
1FFE
0022
2932
6D96
4484
001C
ENDCHAR
STARTCHAR 3129
ENCODING 32701
SWIDTH 96 0
DWIDTH 16 0
BBX 16 16 0 -2
BITMAP
0000
FEFE
0202
0202
6262
3232
1212
0202
0E0E
1A1A
3232
6262
C2C2
0202
0202
0E0E
ENDCHAR
STARTCHAR 312a
ENCODING 36802
SWIDTH 96 0
DWIDTH 16 0
BBX 16 16 0 -2
BITMAP
0000
63FE
3020
1020
0020
0020
07FF
F020
1020
1020
1020
1020
1020
30E0
6800
C7FF
ENDCHAR
STARTCHAR 312b
ENCODING 38632
SWIDTH 96 0
DWIDTH 16 0
BBX 16 16 0 -2
BITMAP
0000
FFFF
0100
0100
7FFE
4102
5962
4D32
4512
4102
5962
4D32
4512
4102
4102
400E
ENDCHAR
STARTCHAR 312c
ENCODING 21359
SWIDTH 96 0
DWIDTH 16 0
BBX 16 16 0 -2
BITMAP
0300
0E00
787E
4242
4242
4242
4242
4242
4242
4242
4242
7E42
C44E
0C40
1840
7040
ENDCHAR
STARTCHAR 312d
ENCODING 40284
SWIDTH 96 0
DWIDTH 16 0
BBX 16 16 0 -2
BITMAP
4410
6C20
28FE
FE82
12FE
7E82
50FE
5080
7EFF
1280
12FF
3601
5155
9155
1203
100E
ENDCHAR
STARTCHAR 312e
ENCODING 31418
SWIDTH 96 0
DWIDTH 16 0
BBX 16 16 0 -2
BITMAP
0100
0100
7FFE
4442
587A
0000
10FC
7C84
10FC
1084
FEFC
1084
38FC
2C49
60C9
C387
ENDCHAR
STARTCHAR 312f
ENCODING 19985
SWIDTH 96 0
DWIDTH 16 0
BBX 16 16 0 -2
BITMAP
0000
7FF0
0410
0410
0410
0410
0410
FFFF
0810
0810
0810
0810
0810
0810
FFFF
0000
ENDCHAR
STARTCHAR 3130
ENCODING 30867
SWIDTH 96 0
DWIDTH 16 0
BBX 16 16 0 -2
BITMAP
0024
006C
FE48
10FF
1188
3288
2088
3CFE
6488
A488
2488
24FE
2488
2488
3C88
00FF
ENDCHAR
STARTCHAR 3131
ENCODING 33276
SWIDTH 96 0
DWIDTH 16 0
BBX 16 16 0 -2
BITMAP
0300
0E00
387C
2004
2004
2004
2004
2004
3E7C
2004
2004
2004
2004
2004
3FFC
0000
ENDCHAR
STARTCHAR 3132
ENCODING 28198
SWIDTH 96 0
DWIDTH 16 0
BBX 16 16 0 -2
BITMAP
0000
63FC
3204
1204
027C
C244
6244
27FE
0402
14F2
1492
3492
2492
64F2
4402
C40E
ENDCHAR
STARTCHAR 3133
ENCODING 22040
SWIDTH 96 0
DWIDTH 16 0
BBX 16 16 0 -2
BITMAP
0040
007E
F040
97FF
9441
947A
95C0
9442
943E
9400
F448
0D49
094A
194A
3048
03FF
ENDCHAR
STARTCHAR 3134
ENCODING 21764
SWIDTH 96 0
DWIDTH 16 0
BBX 16 16 0 -2
BITMAP
0000
01FE
F902
8902
89FE
8902
8902
8902
89FE
8902
8902
F902
01FE
0084
0186
0303
ENDCHAR
STARTCHAR 3135
ENCODING 27421
SWIDTH 96 0
DWIDTH 16 0
BBX 16 16 0 -2
BITMAP
2244
F99F
2244
718E
AA55
3FFC
2444
3FFC
0000
7E04
42FF
7E04
4244
7E24
4404
FA1C
ENDCHAR
STARTCHAR 3136
ENCODING 34074
SWIDTH 96 0
DWIDTH 16 0
BBX 16 16 0 -2
BITMAP
0420
0420
FFFF
0420
0004
7F04
4104
7F7F
4004
5F24
4014
5F14
4404
D504
A484
0C1C
ENDCHAR
STARTCHAR 3137
ENCODING 39995
SWIDTH 96 0
DWIDTH 16 0
BBX 16 16 0 -2
BITMAP
207C
3C44
647C
4844
FE7C
5200
52FE
7EAA
52FE
5200
7EFC
0044
556C
5538
D46C
81C7
ENDCHAR
STARTCHAR 3138
ENCODING 23013
SWIDTH 96 0
DWIDTH 16 0
BBX 16 16 0 -2
BITMAP
1022
1022
11FE
1024
FC2C
2428
27FF
2430
6460
4DC6
4B5C
E870
1840
3441
6463
C03E
ENDCHAR
STARTCHAR 3139
ENCODING 21417
SWIDTH 96 0
DWIDTH 16 0
BBX 16 16 0 -2
BITMAP
0000
7FFF
4000
5F7E
5128
5128
5F28
5128
517F
5F08
5018
5218
D238
9F29
B169
00C7
ENDCHAR
STARTCHAR 313a
ENCODING 28006
SWIDTH 96 0
DWIDTH 16 0
BBX 16 16 0 -2
BITMAP
0024
6022
37FF
1020
0020
C3FE
6222
2222
03FE
1222
1222
33FE
2222
6222
4222
C226
ENDCHAR
STARTCHAR 313b
ENCODING 29916
SWIDTH 96 0
DWIDTH 16 0
BBX 16 16 0 -2
BITMAP
000C
0078
3FC8
2008
2108
2108
2108
2108
2108
210C
2104
2124
2124
61F6
4F12
C003
ENDCHAR
STARTCHAR 313c
ENCODING 38287
SWIDTH 96 0
DWIDTH 16 0
BBX 16 16 0 -2
BITMAP
0000
7E7E
4242
7E7E
4242
7E7E
4002
4FF2
4102
4102
47E2
4102
4102
5FFA
4002
400E
ENDCHAR
STARTCHAR 313d
ENCODING 22082
SWIDTH 96 0
DWIDTH 16 0
BBX 16 16 0 -2
BITMAP
0104
0088
07FF
F050
93FE
9252
939E
9202
93FE
9202
93FE
F004
07FF
0104
0084
001C
ENDCHAR
STARTCHAR 313e
ENCODING 20113
SWIDTH 96 0
DWIDTH 16 0
BBX 16 16 0 -2
BITMAP
0000
0000
3FFC
0000
0000
0000
FFFF
0400
0400
0410
0C18
0808
08FC
1F84
7006
0000
ENDCHAR
STARTCHAR 313f
ENCODING 36939
SWIDTH 96 0
DWIDTH 16 0
BBX 16 16 0 -2
BITMAP
0000
67FF
3401
1421
03FE
0020
03FE
F222
13FE
1222
13FE
1020
17FF
3020
6800
C7FF
ENDCHAR
STARTCHAR 3140
ENCODING 38642
SWIDTH 96 0
DWIDTH 16 0
BBX 16 16 0 -2
BITMAP
0000
3FFC
0100
7FFE
4102
5D3A
4102
1D38
0000
3FFC
0000
FFFF
0808
1808
10FC
3F86
ENDCHAR
STARTCHAR 3141
ENCODING 33615
SWIDTH 96 0
DWIDTH 16 0
BBX 16 16 0 -2
BITMAP
0420
0420
FFFF
0420
0420
080C
1838
13E0
3020
7020
D7FF
1020
1020
1020
13FE
1000
ENDCHAR
STARTCHAR 3142
ENCODING 39180
SWIDTH 96 0
DWIDTH 16 0
BBX 16 16 0 -2
BITMAP
0800
1DFF
1644
3344
6844
BE7C
2244
3E44
2244
3E7C
2044
2244
2247
2FFC
3904
6004
ENDCHAR
STARTCHAR 3143
ENCODING 21473
SWIDTH 96 0
DWIDTH 16 0
BBX 16 16 0 -2
BITMAP
0800
0F7E
0822
FFA2
80A2
1C36
4114
9C94
221C
7F08
C188
7F1C
4114
7F36
4122
7F63
ENDCHAR
STARTCHAR 3144
ENCODING 21942
SWIDTH 96 0
DWIDTH 16 0
BBX 16 16 0 -2
BITMAP
2204
330C
1108
FFFF
8001
9FF9
1008
1008
1FF8
0100
0200
3FFC
2004
2004
2004
3FFC
ENDCHAR
STARTCHAR 3145
ENCODING 23344
SWIDTH 96 0
DWIDTH 16 0
BBX 16 16 0 -2
BITMAP
7E7E
4242
7E7E
4242
7E7E
4242
7E7E
2424
4242
0200
FFFF
0410
0860
1FC0
01F8
7E0E
ENDCHAR
STARTCHAR 3146
ENCODING 24433
SWIDTH 96 0
DWIDTH 16 0
BBX 16 16 0 -2
BITMAP
0002
7F06
410C
7F18
4130
7F02
0806
FF8C
0018
7F30
4101
7F03
0806
490C
8898
1830
ENDCHAR
STARTCHAR 3147
ENCODING 26144
SWIDTH 96 0
DWIDTH 16 0
BBX 16 16 0 -2
BITMAP
0020
0020
F820
8BFE
8A22
8A22
8A22
FA22
8A22
8FFF
8850
88D8
F888
018C
0306
0603
ENDCHAR
STARTCHAR 3148
ENCODING 26355
SWIDTH 96 0
DWIDTH 16 0
BBX 16 16 0 -2
BITMAP
0100
0100
7FFE
4102
4102
7FFE
4102
4102
4102
7FFE
0108
0198
00B1
01E1
0F39
F80F
ENDCHAR
STARTCHAR 3149
ENCODING 26628
SWIDTH 96 0
DWIDTH 16 0
BBX 16 16 0 -2
BITMAP
0604
630C
3118
1010
7FFE
4002
4102
0100
FFFF
0540
0D60
0930
1918
310C
E107
0100
ENDCHAR
STARTCHAR 314a
ENCODING 27704
SWIDTH 96 0
DWIDTH 16 0
BBX 16 16 0 -2
BITMAP
0700
01C0
0040
0000
1F80
0086
008C
7CD8
04F0
0CA0
08B0
1898
308C
6086
C083
0780
ENDCHAR
STARTCHAR 314b
ENCODING 27891
SWIDTH 96 0
DWIDTH 16 0
BBX 16 16 0 -2
BITMAP
0380
60E0
3020
1000
07C0
C042
6066
2F6C
0178
0150
2358
2248
664C
4C46
D843
81C0
ENDCHAR
STARTCHAR 314c
ENCODING 27945
SWIDTH 96 0
DWIDTH 16 0
BBX 16 16 0 -2
BITMAP
0040
6040
37FE
1442
0442
C7FE
6442
2442
07FE
1040
1064
302C
2038
6071
41DD
CF07
ENDCHAR
STARTCHAR 314d
ENCODING 29787
SWIDTH 96 0
DWIDTH 16 0
BBX 16 16 0 -2
BITMAP
0088
F888
27FF
2088
2088
2020
FBFE
2222
2222
2222
27FF
2050
38D8
E18C
0306
0603
ENDCHAR
STARTCHAR 314e
ENCODING 30408
SWIDTH 96 0
DWIDTH 16 0
BBX 16 16 0 -2
BITMAP
0000
FFF0
1010
1010
1FDE
1042
3482
2302
6CCE
C000
3FFC
2444
2444
2444
FFFF
0000
ENDCHAR
STARTCHAR 314f
ENCODING 31310
SWIDTH 96 0
DWIDTH 16 0
BBX 16 16 0 -2
BITMAP
4000
46FF
7C10
407E
4142
3F42
007E
0E42
7842
087E
FF42
2842
2E7E
6B24
C866
08C3
ENDCHAR
STARTCHAR 3150
ENCODING 38964
SWIDTH 96 0
DWIDTH 16 0
BBX 16 16 0 -2
BITMAP
4000
46FF
7C10
407E
4142
3F42
007E
7F42
0042
FFFE
0842
2A42
6B7E
4924
C866
18C3
ENDCHAR
STARTCHAR 3151
ENCODING 33521
SWIDTH 96 0
DWIDTH 16 0
BBX 16 16 0 -2
BITMAP
0810
0810
FFFF
0810
0910
0100
3FFC
2104
2104
2104
FFFF
0240
0660
0C30
381C
E007
ENDCHAR
STARTCHAR 3152
ENCODING 34907
SWIDTH 96 0
DWIDTH 16 0
BBX 16 16 0 -2
BITMAP
1100
37EF
6220
C220
0FF0
1000
37EF
6422
E7E2
2042
2FF2
2242
2242
3FFA
2042
2046
ENDCHAR
STARTCHAR 3153
ENCODING 35424
SWIDTH 96 0
DWIDTH 16 0
BBX 16 16 0 -2
BITMAP
00C0
7870
0010
FC00
01E0
7820
0022
03B6
78BC
00A8
00A8
79AC
4924
4B26
4E23
78E0
ENDCHAR
STARTCHAR 3154
ENCODING 37613
SWIDTH 96 0
DWIDTH 16 0
BBX 16 16 0 -2
BITMAP
1082
38C6
2C44
66FE
4282
FC82
1082
1082
FEFE
1048
9448
D448
50C8
1E89
F189
0307
ENDCHAR
STARTCHAR 3155
ENCODING 28082
SWIDTH 96 0
DWIDTH 16 0
BBX 16 16 0 -2
BITMAP
0020
6020
37FF
1090
0090
C19E
6112
2332
052A
1166
1114
311C
2108
611C
4136
C163
ENDCHAR
STARTCHAR 3156
ENCODING 30123
SWIDTH 96 0
DWIDTH 16 0
BBX 16 16 0 -2
BITMAP
0080
0080
3FFF
A000
63F0
2210
2610
2C1F
2000
6FFC
A20C
2318
61B0
40E0
C3B8
1E0F
ENDCHAR
STARTCHAR 3157
ENCODING 30410
SWIDTH 96 0
DWIDTH 16 0
BBX 16 16 0 -2
BITMAP
1008
1818
0C30
0420
FFFF
0420
0C30
1818
300C
E007
1FF8
1248
1248
1248
1248
FFFF
ENDCHAR
STARTCHAR 3158
ENCODING 39365
SWIDTH 96 0
DWIDTH 16 0
BBX 16 16 0 -2
BITMAP
0000
7FBE
4822
4822
7F22
4822
4822
7F3E
4828
4828
7FAC
00A4
AAA4
AAA6
81A2
0343
ENDCHAR
STARTCHAR 3159
ENCODING 24742
SWIDTH 96 0
DWIDTH 16 0
BBX 16 16 0 -2
BITMAP
1102
1186
1084
11FE
5902
5502
5502
D102
91FE
1048
1048
1048
10C8
1089
1189
1307
ENDCHAR
STARTCHAR 315a
ENCODING 35585
SWIDTH 96 0
DWIDTH 16 0
BBX 16 16 0 -2
BITMAP
0000
79FE
0102
FDFE
0102
79FE
0080
00FF
7981
0319
01F1
7901
4909
48FB
4802
780E
ENDCHAR
STARTCHAR 315b
ENCODING 36234
SWIDTH 96 0
DWIDTH 16 0
BBX 16 16 0 -2
BITMAP
1014
1012
7C10
11FF
1110
FF12
1112
1116
5114
5D1C
51C8
531D
5037
7062
DC00
87FF
ENDCHAR
STARTCHAR 315c
ENCODING 38322
SWIDTH 96 0
DWIDTH 16 0
BBX 16 16 0 -2
BITMAP
0000
7E7E
4242
7E7E
4242
7E7E
4422
4242
4FF2
4812
4812
4FF2
4242
464A
5C3A
4006
ENDCHAR
STARTCHAR 315d
ENCODING 27022
SWIDTH 96 0
DWIDTH 16 0
BBX 16 16 0 -2
BITMAP
1000
13FF
1020
FDFE
1102
11FE
3902
35FE
3502
51FE
5040
90FE
1386
10CC
1078
13CF
ENDCHAR
STARTCHAR 315e
ENCODING 21421
SWIDTH 96 0
DWIDTH 16 0
BBX 16 16 0 -2
BITMAP
0000
7FFF
4000
5F0A
5109
5F08
517F
5F08
4008
5F1C
5114
5F14
D114
9F36
9122
1363
ENDCHAR
STARTCHAR 315f
ENCODING 20870
SWIDTH 96 0
DWIDTH 16 0
BBX 16 16 0 -2
BITMAP
0000
7FFE
4102
4102
4102
4102
4102
4102
7FFE
4002
4002
4002
4002
4002
400E
0000
ENDCHAR
STARTCHAR 3160
ENCODING 22290
SWIDTH 96 0
DWIDTH 16 0
BBX 16 16 0 -2
BITMAP
0000
7FFE
4102
4FF2
4102
5FFA
4002
4FF2
4812
4FF2
434A
4532
591A
4102
7FFE
0000
ENDCHAR
STARTCHAR 3161
ENCODING 22576
SWIDTH 96 0
DWIDTH 16 0
BBX 16 16 0 -2
BITMAP
2000
27FF
2400
24FC
2484
FCFC
2484
24FC
2420
25FE
2448
3CD8
E430
05CE
0400
07FF
ENDCHAR
STARTCHAR 3162
ENCODING 22852
SWIDTH 96 0
DWIDTH 16 0
BBX 16 16 0 -2
BITMAP
0200
0200
FFFF
0420
0910
1108
3FFC
E107
2104
3FFC
2104
2104
3FFC
0101
0183
00FE
ENDCHAR
STARTCHAR 3163
ENCODING 23476
SWIDTH 96 0
DWIDTH 16 0
BBX 16 16 0 -2
BITMAP
0100
0100
7FFE
4002
4FF2
0810
0FF0
0810
0FF0
0200
FFFF
0410
0830
1FE0
0338
3C0C
ENDCHAR
STARTCHAR 3164
ENCODING 24310
SWIDTH 96 0
DWIDTH 16 0
BBX 16 16 0 -2
BITMAP
0006
FC1C
09F0
1010
2010
7890
089E
0890
4890
6890
2890
3890
13FF
3800
6E00
C3FF
ENDCHAR
STARTCHAR 3165
ENCODING 24616
SWIDTH 96 0
DWIDTH 16 0
BBX 16 16 0 -2
BITMAP
1000
1F7E
3142
2342
724E
D640
0C41
1863
303E
E000
0180
24C4
2446
640B
4619
C3F0
ENDCHAR
STARTCHAR 3166
ENCODING 25513
SWIDTH 96 0
DWIDTH 16 0
BBX 16 16 0 -2
BITMAP
2080
2080
2FFF
2108
F948
2244
27FE
2A45
2244
3BFC
E244
2244
23FC
2041
2063
603E
ENDCHAR
STARTCHAR 3167
ENCODING 25588
SWIDTH 96 0
DWIDTH 16 0
BBX 16 16 0 -2
BITMAP
200E
27F8
2242
FB66
2124
23FE
2080
27FF
3880
E0FC
2184
230C
26D8
2070
21DC
6707
ENDCHAR
STARTCHAR 3168
ENCODING 27839
SWIDTH 96 0
DWIDTH 16 0
BBX 16 16 0 -2
BITMAP
6108
3108
1108
030C
0204
C606
6C03
2000
03FC
1204
1204
3204
2204
6204
4204
C3FC
ENDCHAR
STARTCHAR 3169
ENCODING 28436
SWIDTH 96 0
DWIDTH 16 0
BBX 16 16 0 -2
BITMAP
0020
6020
37FF
1401
05FD
C020
63FE
2222
0222
13FE
1222
3222
23FE
6104
4306
C603
ENDCHAR
STARTCHAR 316a
ENCODING 28814
SWIDTH 96 0
DWIDTH 16 0
BBX 16 16 0 -2
BITMAP
0100
1104
110C
3398
22C0
0660
1C38
710E
0104
110C
3398
62C0
0660
0C30
381C
E007
ENDCHAR
STARTCHAR 316b
ENCODING 28948
SWIDTH 96 0
DWIDTH 16 0
BBX 16 16 0 -2
BITMAP
1020
1020
107E
1242
56C6
558C
5008
D13F
9121
1121
3921
293F
2D21
6521
4121
C13F
ENDCHAR
STARTCHAR 316c
ENCODING 29017
SWIDTH 96 0
DWIDTH 16 0
BBX 16 16 0 -2
BITMAP
1000
13FF
1050
1450
55FE
5552
5152
D152
91FE
1020
3820
29FE
2C20
6420
43FF
C000
ENDCHAR
STARTCHAR 316d
ENCODING 29141
SWIDTH 96 0
DWIDTH 16 0
BBX 16 16 0 -2
BITMAP
0420
0420
FFFF
0420
07E0
1009
F3CA
124C
1248
1249
73C9
D00F
0000
2444
6666
C223
ENDCHAR
STARTCHAR 316e
ENCODING 29503
SWIDTH 96 0
DWIDTH 16 0
BBX 16 16 0 -2
BITMAP
0820
8820
53FE
2020
27FF
5000
93FE
1202
3202
53FE
9091
119B
170A
110C
31E6
E703
ENDCHAR
STARTCHAR 316f
ENCODING 32257
SWIDTH 96 0
DWIDTH 16 0
BBX 16 16 0 -2
BITMAP
1000
31FC
6004
C5FC
6C04
1BFF
3040
64A2
FD34
1458
1090
5538
5454
D492
9111
1060
ENDCHAR
STARTCHAR 3170
ENCODING 33398
SWIDTH 96 0
DWIDTH 16 0
BBX 16 16 0 -2
BITMAP
1420
7F3E
5522
7F66
55C4
7F7F
0049
FFC9
0049
7F7F
4140
7F40
2240
3641
1441
FFBF
ENDCHAR
STARTCHAR 3171
ENCODING 33489
SWIDTH 96 0
DWIDTH 16 0
BBX 16 16 0 -2
BITMAP
0420
0420
FFFF
0420
0420
1000
1F7E
3142
2342
7A42
CE42
044E
0C40
1841
3063
E03E
ENDCHAR
STARTCHAR 3172
ENCODING 34199
SWIDTH 96 0
DWIDTH 16 0
BBX 16 16 0 -2
BITMAP
0420
FFFF
0420
7FFE
4102
4FF2
4102
5FFA
4002
4FF2
4812
4FF2
431A
5DE2
411A
7FFE
ENDCHAR
STARTCHAR 3173
ENCODING 36960
SWIDTH 96 0
DWIDTH 16 0
BBX 16 16 0 -2
BITMAP
0020
6020
33FE
1020
07FF
0000
03FE
F202
13FE
1063
10E6
11B8
172E
3023
6820
C7FF
ENDCHAR
STARTCHAR 3174
ENCODING 37467
SWIDTH 96 0
DWIDTH 16 0
BBX 16 16 0 -2
BITMAP
1024
3824
2C24
6666
4242
FCC3
1081
1000
FE7E
1042
9442
D442
5042
1E42
7042
C07E
ENDCHAR
STARTCHAR 3175
ENCODING 40219
SWIDTH 96 0
DWIDTH 16 0
BBX 16 16 0 -2
BITMAP
107C
3F44
E241
147F
1900
FFF8
1008
1FF8
1008
1FF8
1000
1FFF
1000
5FFE
C922
8496
ENDCHAR
STARTCHAR 3176
ENCODING 22633
SWIDTH 96 0
DWIDTH 16 0
BBX 16 16 0 -2
BITMAP
0200
2200
27FE
2C00
23FC
FA04
2204
23FC
2000
27FE
2492
3C92
E492
0492
0492
0FFF
ENDCHAR
STARTCHAR 3177
ENCODING 26044
SWIDTH 96 0
DWIDTH 16 0
BBX 16 16 0 -2
BITMAP
1010
1010
1038
FF28
106C
1044
1EC6
13B3
1218
120C
3204
2260
2630
6418
440C
CC04
ENDCHAR
STARTCHAR 3178
ENCODING 27738
SWIDTH 96 0
DWIDTH 16 0
BBX 16 16 0 -2
BITMAP
6000
37FE
1080
0080
0080
CFFF
6100
2100
0100
13FE
1002
3002
2002
6006
4004
C03C
ENDCHAR
STARTCHAR 3179
ENCODING 29989
SWIDTH 96 0
DWIDTH 16 0
BBX 16 16 0 -2
BITMAP
1000
11FE
5122
5122
7DFE
D122
9122
11FE
7C20
13FF
1021
1061
1C41
70C3
C182
070E
ENDCHAR
STARTCHAR 317a
ENCODING 20985
SWIDTH 96 0
DWIDTH 16 0
BBX 16 16 0 -2
BITMAP
0000
7C3E
4422
4422
4422
4422
4422
4422
47E2
4002
4002
4002
4002
4002
7FFE
0000
ENDCHAR
STARTCHAR 317b
ENCODING 22830
SWIDTH 96 0
DWIDTH 16 0
BBX 16 16 0 -2
BITMAP
0100
0100
0100
3FFC
2104
2104
2104
2104
2104
FFFF
0280
06C0
0460
0C30
381C
E007
ENDCHAR
STARTCHAR 317c
ENCODING 22885
SWIDTH 96 0
DWIDTH 16 0
BBX 16 16 0 -2
BITMAP
0100
0200
3FFC
2004
2924
2544
2FF4
2384
2544
2934
2104
2204
FFFF
0660
1C38
700E
ENDCHAR
STARTCHAR 317d
ENCODING 24448
SWIDTH 96 0
DWIDTH 16 0
BBX 16 16 0 -2
BITMAP
08C0
1860
3020
63FE
C820
1820
3020
6020
E3FE
2020
2020
2020
2020
2020
27FF
2000
ENDCHAR
STARTCHAR 317e
ENCODING 24540
SWIDTH 96 0
DWIDTH 16 0
BBX 16 16 0 -2
BITMAP
0080
0080
3FFF
2000
20C0
2060
2130
2110
2500
2504
2506
2D03
6901
4904
C18C
00F8
ENDCHAR
STARTCHAR 3221
ENCODING 25276
SWIDTH 96 0
DWIDTH 16 0
BBX 16 16 0 -2
BITMAP
2000
23FE
2222
2222
FA22
23FE
2222
2222
2222
3A22
E3FE
2020
2020
2020
2020
6020
ENDCHAR
STARTCHAR 3222
ENCODING 26106
SWIDTH 96 0
DWIDTH 16 0
BBX 16 16 0 -2
BITMAP
0000
FBFE
8820
8820
8820
8820
F820
8BFE
8820
8820
8820
8820
F820
0020
07FF
0000
ENDCHAR
STARTCHAR 3223
ENCODING 27178
SWIDTH 96 0
DWIDTH 16 0
BBX 16 16 0 -2
BITMAP
1088
13FE
1088
FC88
17FF
1020
3BFE
3622
3222
53FE
5222
9222
13FE
1104
1306
1603
ENDCHAR
STARTCHAR 3224
ENCODING 27431
SWIDTH 96 0
DWIDTH 16 0
BBX 16 16 0 -2
BITMAP
0040
7E40
4040
407F
54C1
5493
4992
4810
4810
4838
5428
5428
406C
4044
7EC6
0183
ENDCHAR
STARTCHAR 3225
ENCODING 27572
SWIDTH 96 0
DWIDTH 16 0
BBX 16 16 0 -2
BITMAP
0000
7E7C
4044
4044
54C4
5587
4800
48FE
4842
5466
542C
4038
4010
7E38
006C
01C7
ENDCHAR
STARTCHAR 3226
ENCODING 29579
SWIDTH 96 0
DWIDTH 16 0
BBX 16 16 0 -2
BITMAP
0000
7FFE
0100
0100
0100
0100
0100
3FFC
0100
0100
0100
0100
0100
0100
FFFF
0000
ENDCHAR
STARTCHAR 3227
ENCODING 32705
SWIDTH 96 0
DWIDTH 16 0
BBX 16 16 0 -2
BITMAP
0420
0C30
3A1C
E607
0410
0FF8
380C
0000
FEFE
2222
1212
0E0E
3A3A
E2E2
0202
0E0E
ENDCHAR
STARTCHAR 3228
ENCODING 35158
SWIDTH 96 0
DWIDTH 16 0
BBX 16 16 0 -2
BITMAP
2020
2040
23FE
FA02
0AAA
1A22
12FA
3272
6AAA
F222
2A42
27FF
2050
20D8
218C
2707
ENDCHAR
STARTCHAR 3229
ENCODING 40236
SWIDTH 96 0
DWIDTH 16 0
BBX 16 16 0 -2
BITMAP
2204
1108
FFFF
8101
9FF9
1008
1FF8
1008
1FF8
1000
1FFF
1000
1FFE
4922
C492
8006
ENDCHAR
STARTCHAR 322a
ENCODING 40206
SWIDTH 96 0
DWIDTH 16 0
BBX 16 16 0 -2
BITMAP
0020
FC40
81FC
8104
A9FC
A904
91FC
9100
91FF
A900
A9FE
8002
82AA
FAAA
0406
000C
ENDCHAR
STARTCHAR 322b
ENCODING 40644
SWIDTH 96 0
DWIDTH 16 0
BBX 16 16 0 -2
BITMAP
0420
0420
7FFE
0420
0420
FFFF
0100
1FF8
1108
1108
1FF8
1108
1108
1FF8
0810
700E
ENDCHAR
STARTCHAR 322c
ENCODING 23713
SWIDTH 96 0
DWIDTH 16 0
BBX 16 16 0 -2
BITMAP
0000
7FFE
4812
4422
4422
5FFA
4102
4102
4912
4912
4912
4912
4FF2
4002
4002
400E
ENDCHAR
STARTCHAR 322d
ENCODING 27798
SWIDTH 96 0
DWIDTH 16 0
BBX 16 16 0 -2
BITMAP
0020
6020
3020
1020
07FF
C421
6421
2421
0421
1421
17FF
3020
2020
6020
4020
C020
ENDCHAR
STARTCHAR 322e
ENCODING 33659
SWIDTH 96 0
DWIDTH 16 0
BBX 16 16 0 -2
BITMAP
0420
0420
FFFF
0420
0000
8820
5021
2123
5126
9324
3270
5050
90D8
118C
3306
6603
ENDCHAR
STARTCHAR 322f
ENCODING 20740
SWIDTH 96 0
DWIDTH 16 0
BBX 16 16 0 -2
BITMAP
1040
1040
37FE
2108
2090
6FFF
6000
A3FC
2204
23FC
2204
23FC
2040
2522
2509
28F8
ENDCHAR
STARTCHAR 3230
ENCODING 23627
SWIDTH 96 0
DWIDTH 16 0
BBX 16 16 0 -2
BITMAP
0000
3FFE
2002
2002
3FFE
2000
2FFE
2200
2204
247E
2FC2
2040
67FC
4040
C040
1FFF
ENDCHAR
STARTCHAR 3231
ENCODING 25014
SWIDTH 96 0
DWIDTH 16 0
BBX 16 16 0 -2
BITMAP
2040
2040
27FE
2108
B090
AFFF
A800
A3FC
2204
23FC
2204
23FC
2040
2522
2509
28F8
ENDCHAR
STARTCHAR 3232
ENCODING 33222
SWIDTH 96 0
DWIDTH 16 0
BBX 16 16 0 -2
BITMAP
0020
7820
4BFE
4904
4888
7FFF
4800
49FC
4904
79FC
4904
49FC
4820
4952
C945
9A3C
ENDCHAR
STARTCHAR 3233
ENCODING 26742
SWIDTH 96 0
DWIDTH 16 0
BBX 16 16 0 -2
BITMAP
1000
13FE
1004
FCC8
1030
13FE
3A22
3622
53FE
5222
9222
13FE
1222
1222
1222
1226
ENDCHAR
STARTCHAR 3234
ENCODING 29281
SWIDTH 96 0
DWIDTH 16 0
BBX 16 16 0 -2
BITMAP
1020
5020
5020
5020
7C20
D1FE
9020
1020
1020
1C20
F020
1020
1020
1020
13FF
1000
ENDCHAR
STARTCHAR 3235
ENCODING 20057
SWIDTH 96 0
DWIDTH 16 0
BBX 16 16 0 -2
BITMAP
0000
7FF8
0030
0060
00C0
0180
0300
0600
0C00
1800
3002
6002
4006
6004
3FFC
0000
ENDCHAR
STARTCHAR 3236
ENCODING 20474
SWIDTH 96 0
DWIDTH 16 0
BBX 16 16 0 -2
BITMAP
1080
1080
3FFF
2110
2150
6248
67FC
AC46
3445
27FC
2444
2444
27FC
2041
2063
203E
ENDCHAR
STARTCHAR 3237
ENCODING 21368
SWIDTH 96 0
DWIDTH 16 0
BBX 16 16 0 -2
BITMAP
2000
207E
7F42
4842
8842
0842
FF42
0842
4842
4F42
4842
4842
4F4E
7840
C040
0040
ENDCHAR
STARTCHAR 3238
ENCODING 24681
SWIDTH 96 0
DWIDTH 16 0
BBX 16 16 0 -2
BITMAP
0000
3FFC
2104
2104
2FF4
2244
2424
2814
2004
3FFC
0080
24C6
2443
6409
4618
C3F0
ENDCHAR
STARTCHAR 3239
ENCODING 28201
SWIDTH 96 0
DWIDTH 16 0
BBX 16 16 0 -2
BITMAP
0000
63FC
3204
1204
03FC
C204
6204
23FC
0000
17FE
1492
3492
2492
6492
4492
CFFF
ENDCHAR
STARTCHAR 323a
ENCODING 31311
SWIDTH 96 0
DWIDTH 16 0
BBX 16 16 0 -2
BITMAP
0C06
383C
E7E2
2246
2124
FBFE
2002
33FE
2802
6BFE
6000
A020
A2B2
2293
2685
247C
ENDCHAR
STARTCHAR 323b
ENCODING 38899
SWIDTH 96 0
DWIDTH 16 0
BBX 16 16 0 -2
BITMAP
0100
0100
7FFE
0810
0C30
0420
FFFF
0000
1FF8
1008
1008
1FF8
1008
1008
1008
1FF8
ENDCHAR
STARTCHAR 323c
ENCODING 19979
SWIDTH 96 0
DWIDTH 16 0
BBX 16 16 0 -2
BITMAP
0000
FFFF
0100
0100
0100
01C0
0160
0130
0118
0108
0100
0100
0100
0100
0100
0100
ENDCHAR
STARTCHAR 323d
ENCODING 21270
SWIDTH 96 0
DWIDTH 16 0
BBX 16 16 0 -2
BITMAP
0440
0440
0C40
0842
1846
105C
3070
7040
D040
1040
1040
1041
1041
1043
1062
103E
ENDCHAR
STARTCHAR 323e
ENCODING 20206
SWIDTH 96 0
DWIDTH 16 0
BBX 16 16 0 -2
BITMAP
0800
0BFE
1A00
1200
3200
23FC
6284
A28C
22C8
2258
2270
2620
2470
2CD8
218C
2307
ENDCHAR
STARTCHAR 323f
ENCODING 20309
SWIDTH 96 0
DWIDTH 16 0
BBX 16 16 0 -2
BITMAP
0800
0800
1FFF
1004
3004
23C4
6244
A244
2244
2244
2244
23C4
2004
2004
2004
201C
ENDCHAR
STARTCHAR 3240
ENCODING 20285
SWIDTH 96 0
DWIDTH 16 0
BBX 16 16 0 -2
BITMAP
1200
1200
121E
3212
2FD2
6252
6252
A252
2252
2252
2252
2652
2452
24D2
2C9E
2980
ENDCHAR
STARTCHAR 3241
ENCODING 20385
SWIDTH 96 0
DWIDTH 16 0
BBX 16 16 0 -2
BITMAP
0800
0800
1FFF
1090
3090
2090
67FE
A492
2492
2492
2492
2492
2492
2492
27FE
2000
ENDCHAR
STARTCHAR 3242
ENCODING 20339
SWIDTH 96 0
DWIDTH 16 0
BBX 16 16 0 -2
BITMAP
0820
0820
1BFE
1020
3020
2020
67FF
A000
2020
2020
23FE
2020
2020
2020
27FF
2000
ENDCHAR
STARTCHAR 3243
ENCODING 21152
SWIDTH 96 0
DWIDTH 16 0
BBX 16 16 0 -2
BITMAP
1000
1000
103E
1022
FF22
1122
1122
1122
1122
1122
3122
2122
2322
6222
423E
C600
ENDCHAR
STARTCHAR 3244
ENCODING 21487
SWIDTH 96 0
DWIDTH 16 0
BBX 16 16 0 -2
BITMAP
0000
FFFF
0008
0008
1F88
1088
1088
1088
1088
1088
1F88
0008
0008
0008
0008
0038
ENDCHAR
STARTCHAR 3245
ENCODING 22025
SWIDTH 96 0
DWIDTH 16 0
BBX 16 16 0 -2
BITMAP
0100
0100
FFFF
0100
7FFE
0000
1FF8
1008
1FF8
0420
FFFF
1000
7E7E
1242
2242
CE7E
ENDCHAR
STARTCHAR 3246
ENCODING 22799
SWIDTH 96 0
DWIDTH 16 0
BBX 16 16 0 -2
BITMAP
0000
FFFF
0100
1FF8
1008
1FF8
1008
1FF8
1008
1FF8
0400
0FF8
1810
6420
03C0
FC3F
ENDCHAR
STARTCHAR 3247
ENCODING 23233
SWIDTH 96 0
DWIDTH 16 0
BBX 16 16 0 -2
BITMAP
2020
2020
23FE
FA02
2800
29FC
2840
68A2
4B26
5054
F090
1338
2854
2896
4313
8060
ENDCHAR
STARTCHAR 3248
ENCODING 23478
SWIDTH 96 0
DWIDTH 16 0
BBX 16 16 0 -2
BITMAP
0100
0100
7FFE
4002
4002
1FF8
0200
0D06
718C
0698
1CC0
71E0
06B0
1C9C
F187
0700
ENDCHAR
STARTCHAR 3249
ENCODING 23521
SWIDTH 96 0
DWIDTH 16 0
BBX 16 16 0 -2
BITMAP
0100
FFFF
8001
BFFD
0100
1FF8
1008
1FF8
1008
1FF8
1008
FFFF
2004
DFFB
0408
3838
ENDCHAR
STARTCHAR 324a
ENCODING 31185
SWIDTH 96 0
DWIDTH 16 0
BBX 16 16 0 -2
BITMAP
0604
1CC4
F064
1024
1004
FE04
10C4
1064
3824
3404
5207
503C
91E4
1004
1004
1004
ENDCHAR
STARTCHAR 324b
ENCODING 26247
SWIDTH 96 0
DWIDTH 16 0
BBX 16 16 0 -2
BITMAP
0000
07BE
F482
9482
9482
97BE
9400
F47E
97A2
9436
9414
941C
F788
041C
0436
0463
ENDCHAR
STARTCHAR 324c
ENCODING 26524
SWIDTH 96 0
DWIDTH 16 0
BBX 16 16 0 -2
BITMAP
0000
3FFC
2104
2104
3FFC
2104
2104
3FFC
0100
FFFF
0520
0D30
1918
310C
E107
0100
ENDCHAR
STARTCHAR 324d
ENCODING 26550
SWIDTH 96 0
DWIDTH 16 0
BBX 16 16 0 -2
BITMAP
1000
103E
FF22
1122
1122
3122
2122
673E
C000
0100
FFFF
0520
0D30
391C
E107
0100
ENDCHAR
STARTCHAR 324e
ENCODING 27468
SWIDTH 96 0
DWIDTH 16 0
BBX 16 16 0 -2
BITMAP
0040
FF40
0440
747F
54C1
7493
0592
0C10
0010
FF38
0428
7428
546C
7444
04C6
0D83
ENDCHAR
STARTCHAR 324f
ENCODING 27827
SWIDTH 96 0
DWIDTH 16 0
BBX 16 16 0 -2
BITMAP
6000
37FF
1004
0004
03C4
C244
6244
2244
0244
1244
13C4
3004
2004
6004
4004
C01C
ENDCHAR
STARTCHAR 3250
ENCODING 28779
SWIDTH 96 0
DWIDTH 16 0
BBX 16 16 0 -2
BITMAP
0100
0100
0102
1106
1104
110C
3118
2110
6380
0280
06C0
0460
0C30
1818
300C
E007
ENDCHAR
STARTCHAR 3251
ENCODING 29634
SWIDTH 96 0
DWIDTH 16 0
BBX 16 16 0 -2
BITMAP
0000
FBFF
2004
2004
21E4
2124
F924
2124
2124
2124
21E4
2004
3804
E004
0004
001C
ENDCHAR
STARTCHAR 3252
ENCODING 31117
SWIDTH 96 0
DWIDTH 16 0
BBX 16 16 0 -2
BITMAP
1000
10FC
1084
FCBC
04A4
0CA4
08A4
19FE
3102
7D7A
D74A
114A
114A
117A
1102
1106
ENDCHAR
STARTCHAR 3253
ENCODING 31166
SWIDTH 96 0
DWIDTH 16 0
BBX 16 16 0 -2
BITMAP
0018
01F0
3F00
0100
0100
0100
FFFF
0520
0D30
0910
1918
310C
6106
C103
0100
0100
ENDCHAR
STARTCHAR 3254
ENCODING 31292
SWIDTH 96 0
DWIDTH 16 0
BBX 16 16 0 -2
BITMAP
0420
1C20
F3FE
1202
1000
FDFC
1040
10A2
3926
3454
5090
5338
905C
1096
1313
1060
ENDCHAR
STARTCHAR 3255
ENCODING 31623
SWIDTH 96 0
DWIDTH 16 0
BBX 16 16 0 -2
BITMAP
2020
2020
7F7F
4890
8408
7FFE
4102
5FFA
4102
4102
4FF2
4812
4812
4FF2
4002
7FFE
ENDCHAR
STARTCHAR 3256
ENCODING 33457
SWIDTH 96 0
DWIDTH 16 0
BBX 16 16 0 -2
BITMAP
0420
0420
FFFF
0420
0420
0840
0840
1046
305C
5070
9040
1040
1040
1041
1063
103E
ENDCHAR
STARTCHAR 3257
ENCODING 33499
SWIDTH 96 0
DWIDTH 16 0
BBX 16 16 0 -2
BITMAP
0420
0420
FFFF
0420
0420
0000
FFFF
0008
1F88
1088
1088
1088
1F88
0008
0008
0038
ENDCHAR
STARTCHAR 3258
ENCODING 33540
SWIDTH 96 0
DWIDTH 16 0
BBX 16 16 0 -2
BITMAP
0420
0420
FFFF
0420
0420
1000
103E
FF22
1122
1122
3122
2122
2322
6222
423E
CE00
ENDCHAR
STARTCHAR 3259
ENCODING 33655
SWIDTH 96 0
DWIDTH 16 0
BBX 16 16 0 -2
BITMAP
0420
0420
FFFF
0420
0420
1000
17FF
2008
23C8
6248
A248
2248
23C8
2008
2008
2038
ENDCHAR
STARTCHAR 325a
ENCODING 33775
SWIDTH 96 0
DWIDTH 16 0
BBX 16 16 0 -2
BITMAP
0420
0420
FFFF
0420
7FFE
1108
1108
FFFF
1108
1108
7FFE
0100
0100
7FFE
0100
0100
ENDCHAR
STARTCHAR 325b
ENCODING 33747
SWIDTH 96 0
DWIDTH 16 0
BBX 16 16 0 -2
BITMAP
0420
0420
FFFF
0420
3FFC
2104
3FFC
2104
3FFC
0100
FFFF
0520
0D30
391C
E107
0100
ENDCHAR
STARTCHAR 325c
ENCODING 34662
SWIDTH 96 0
DWIDTH 16 0
BBX 16 16 0 -2
BITMAP
0000
23DE
2242
2242
FA42
ABDE
AA00
AA3E
ABD2
FA16
2214
2BDC
2A08
7A1C
CA36
0263
ENDCHAR
STARTCHAR 325d
ENCODING 35506
SWIDTH 96 0
DWIDTH 16 0
BBX 16 16 0 -2
BITMAP
0000
79FE
0122
FD22
01FE
7922
0122
01FE
7820
03FF
00A8
78AC
49A4
4926
4B23
7820
ENDCHAR
STARTCHAR 325e
ENCODING 22057
SWIDTH 96 0
DWIDTH 16 0
BBX 16 16 0 -2
BITMAP
0088
0088
F7FF
9088
93FE
9124
9124
97FF
9124
9124
93FE
F020
0020
07FF
0020
0020
ENDCHAR
STARTCHAR 325f
ENCODING 36008
SWIDTH 96 0
DWIDTH 16 0
BBX 16 16 0 -2
BITMAP
0440
0C46
387C
E840
0842
083E
0000
1FF8
1008
1FF8
1008
1FF8
1008
1FF8
0810
700E
ENDCHAR
STARTCHAR 3260
ENCODING 36838
SWIDTH 96 0
DWIDTH 16 0
BBX 16 16 0 -2
BITMAP
0200
C200
621E
2FD2
0252
0252
0252
E252
2252
2652
2452
24D2
2C9E
6180
5000
CFFF
ENDCHAR
STARTCHAR 3261
ENCODING 36942
SWIDTH 96 0
DWIDTH 16 0
BBX 16 16 0 -2
BITMAP
03FC
6204
327C
1244
0244
0244
07FE
E402
25FA
250A
250A
25FA
2402
6406
5000
CFFF
ENDCHAR
STARTCHAR 3262
ENCODING 38686
SWIDTH 96 0
DWIDTH 16 0
BBX 16 16 0 -2
BITMAP
7FFE
0100
FFFF
8101
BD3D
0100
3D3C
0000
7EFE
4202
7EFE
4000
7CFE
4044
7C38
41C7
ENDCHAR
STARTCHAR 3263
ENCODING 34442
SWIDTH 96 0
DWIDTH 16 0
BBX 16 16 0 -2
BITMAP
1010
1010
1010
FFFF
9244
9244
9244
926C
9228
FE38
1010
1438
1428
1E6C
72C6
C183
ENDCHAR
STARTCHAR 3264
ENCODING 20420
SWIDTH 96 0
DWIDTH 16 0
BBX 16 16 0 -2
BITMAP
10D4
1196
3712
2110
2110
6FFF
6110
A112
2112
21D6
2F14
211C
2109
211D
2137
2762
ENDCHAR
STARTCHAR 3265
ENCODING 23784
SWIDTH 96 0
DWIDTH 16 0
BBX 16 16 0 -2
BITMAP
20D4
2196
2712
2110
A910
AFFF
A910
A912
A912
A9D6
AF14
A91C
F909
011D
0137
0762
ENDCHAR
STARTCHAR 3266
ENCODING 25105
SWIDTH 96 0
DWIDTH 16 0
BBX 16 16 0 -2
BITMAP
0340
0E4C
7846
0842
0840
FFFF
0840
0842
0866
0F2C
F838
0810
0839
086D
08C7
3B82
ENDCHAR
STARTCHAR 3267
ENCODING 29273
SWIDTH 96 0
DWIDTH 16 0
BBX 16 16 0 -2
BITMAP
0000
7FFE
0810
0810
0810
0810
0810
FFFF
0090
0190
0310
0610
0C10
3810
E010
0070
ENDCHAR
STARTCHAR 3268
ENCODING 30011
SWIDTH 96 0
DWIDTH 16 0
BBX 16 16 0 -2
BITMAP
0000
FFFF
0100
0100
4FF2
4912
4912
4912
4FF2
4912
4912
4912
4FF2
4002
7FFE
0000
ENDCHAR
STARTCHAR 3269
ENCODING 33253
SWIDTH 96 0
DWIDTH 16 0
BBX 16 16 0 -2
BITMAP
0010
7F10
4810
4810
4810
7F10
4110
4138
4128
7F28
4828
486C
4844
4844
7FC6
0083
ENDCHAR
STARTCHAR 326a
ENCODING 33469
SWIDTH 96 0
DWIDTH 16 0
BBX 16 16 0 -2
BITMAP
0420
0420
FFFF
0420
0000
7FFE
0810
0810
0810
FFFF
00D0
0190
0710
1C10
F010
0070
ENDCHAR
STARTCHAR 326b
ENCODING 34558
SWIDTH 96 0
DWIDTH 16 0
BBX 16 16 0 -2
BITMAP
2054
2096
2392
F890
A890
ABFF
A890
A892
F892
20D4
2394
2898
2889
788D
C897
03A2
ENDCHAR
STARTCHAR 326c
ENCODING 36032
SWIDTH 96 0
DWIDTH 16 0
BBX 16 16 0 -2
BITMAP
1000
107E
FF42
1142
3142
677E
C000
1FF8
1008
1FF8
1008
1FF8
1008
1FF8
0810
700E
ENDCHAR
STARTCHAR 326d
ENCODING 38597
SWIDTH 96 0
DWIDTH 16 0
BBX 16 16 0 -2
BITMAP
0022
7E26
2424
247F
24C8
2548
2448
FF7E
1448
1448
1448
347E
2448
6448
C448
1C7F
ENDCHAR
STARTCHAR 326e
ENCODING 39187
SWIDTH 96 0
DWIDTH 16 0
BBX 16 16 0 -2
BITMAP
102A
3849
2DC9
6448
D048
7DFF
4448
7C49
4449
7C6A
41CA
484C
4845
5C45
744B
C1D1
ENDCHAR
STARTCHAR 326f
ENCODING 39381
SWIDTH 96 0
DWIDTH 16 0
BBX 16 16 0 -2
BITMAP
1000
FF7F
1141
3141
677F
C000
1FFC
1080
1FF8
1080
1FF8
1080
1FFE
4922
C492
8006
ENDCHAR
STARTCHAR 3270
ENCODING 20171
SWIDTH 96 0
DWIDTH 16 0
BBX 16 16 0 -2
BITMAP
0100
0380
06C0
0C60
1830
381C
E817
0810
0810
0810
0810
0810
1810
1010
3010
6010
ENDCHAR
STARTCHAR 3271
ENCODING 20250
SWIDTH 96 0
DWIDTH 16 0
BBX 16 16 0 -2
BITMAP
0100
0380
06C0
0C70
381C
E007
1FF8
0000
0000
FFFF
0400
0410
0C10
08F8
1F8C
7006
ENDCHAR
STARTCHAR 3272
ENCODING 35299
SWIDTH 96 0
DWIDTH 16 0
BBX 16 16 0 -2
BITMAP
2000
3EFE
6222
4422
FF62
49CE
4900
7F28
4928
497E
7F48
4108
41FF
4108
C108
8708
ENDCHAR
STARTCHAR 3273
ENCODING 22238
SWIDTH 96 0
DWIDTH 16 0
BBX 16 16 0 -2
BITMAP
0000
7FFE
4002
4002
4002
47E2
4422
4422
4422
4422
47E2
4002
4002
4002
7FFE
0000
ENDCHAR
STARTCHAR 3274
ENCODING 22602
SWIDTH 96 0
DWIDTH 16 0
BBX 16 16 0 -2
BITMAP
2020
2040
23FE
2222
FA22
23FE
2222
2222
23FE
2090
3894
6095
C19F
0110
0311
0E0F
ENDCHAR
STARTCHAR 3275
ENCODING 22730
SWIDTH 96 0
DWIDTH 16 0
BBX 16 16 0 -2
BITMAP
2020
2020
27FF
2020
FBFE
2292
2292
23FE
2020
27FF
3890
6199
C30A
0D0C
01E6
0703
ENDCHAR
STARTCHAR 3276
ENCODING 24315
SWIDTH 96 0
DWIDTH 16 0
BBX 16 16 0 -2
BITMAP
0000
FDFE
0902
1102
217A
794A
094A
094A
494A
697A
2902
3902
11FE
3800
6E00
C3FF
ENDCHAR
STARTCHAR 3277
ENCODING 24555
SWIDTH 96 0
DWIDTH 16 0
BBX 16 16 0 -2
BITMAP
1040
1040
1040
13FC
5844
5444
5444
D044
97FF
10A0
10A0
10B0
1190
1118
130C
1607
ENDCHAR
STARTCHAR 3278
ENCODING 24618
SWIDTH 96 0
DWIDTH 16 0
BBX 16 16 0 -2
BITMAP
1000
17FC
1104
118C
58D8
5470
54D8
D18C
9727
1020
13FE
1020
1020
1020
17FF
1000
ENDCHAR
STARTCHAR 3279
ENCODING 24724
SWIDTH 96 0
DWIDTH 16 0
BBX 16 16 0 -2
BITMAP
1100
1100
13FE
1200
5400
59FC
5524
D124
9124
1FFF
1244
1244
1244
13FF
1008
1038
ENDCHAR
STARTCHAR 327a
ENCODING 24674
SWIDTH 96 0
DWIDTH 16 0
BBX 16 16 0 -2
BITMAP
2000
27FF
2400
2420
A422
B4A6
ACA4
A5AC
2528
2420
2470
2450
24D8
288C
2186
2303
ENDCHAR
STARTCHAR 327b
ENCODING 25040
SWIDTH 96 0
DWIDTH 16 0
BBX 16 16 0 -2
BITMAP
2020
2020
27FF
2020
B3FE
AA92
AA92
A3FE
2020
27FF
2090
2199
230A
2D0C
21E6
2703
ENDCHAR
STARTCHAR 327c
ENCODING 25106
SWIDTH 96 0
DWIDTH 16 0
BBX 16 16 0 -2
BITMAP
004C
0046
0042
FFFF
0040
1240
1262
1226
7FAC
1238
1210
3238
2269
62CD
C187
0702
ENDCHAR
STARTCHAR 327d
ENCODING 25296
SWIDTH 96 0
DWIDTH 16 0
BBX 16 16 0 -2
BITMAP
2000
21FC
2104
2104
F904
21FC
2000
2000
3BFE
E042
2042
20C2
2082
2186
2304
661C
ENDCHAR
STARTCHAR 327e
ENCODING 25913
SWIDTH 96 0
DWIDTH 16 0
BBX 16 16 0 -2
BITMAP
0040
0040
FE40
027F
0244
02C4
7EA4
41AC
4028
4038
4010
4238
6228
3E6C
00C6
0183
ENDCHAR
STARTCHAR 3321
ENCODING 39745
SWIDTH 96 0
DWIDTH 16 0
BBX 16 16 0 -2
BITMAP
0804
1064
7F34
4914
4904
7F64
4934
4914
7F07
247C
2504
2544
27C4
6405
4603
C3FE
ENDCHAR
STARTCHAR 3322
ENCODING 26214
SWIDTH 96 0
DWIDTH 16 0
BBX 16 16 0 -2
BITMAP
0100
0100
7BFE
4A00
4C00
49FC
4924
7924
4924
4FFF
4A44
4A44
7A44
03FF
0008
0038
ENDCHAR
STARTCHAR 3323
ENCODING 26800
SWIDTH 96 0
DWIDTH 16 0
BBX 16 16 0 -2
BITMAP
1014
1012
1010
FDFF
1010
1150
3952
3552
33F6
5154
515C
9148
115D
1235
1067
11C2
ENDCHAR
STARTCHAR 3324
ENCODING 28023
SWIDTH 96 0
DWIDTH 16 0
BBX 16 16 0 -2
BITMAP
0100
6100
33FE
1200
0600
C1FC
6124
2124
0124
17FF
1244
3244
2244
63FF
4008
C038
ENDCHAR
STARTCHAR 3325
ENCODING 28784
SWIDTH 96 0
DWIDTH 16 0
BBX 16 16 0 -2
BITMAP
0000
3FFE
2000
2080
2082
2486
248C
2C88
2880
21C0
6140
4360
4230
C618
0C0C
3807
ENDCHAR
STARTCHAR 3326
ENCODING 30028
SWIDTH 96 0
DWIDTH 16 0
BBX 16 16 0 -2
BITMAP
0000
3FFC
2104
2104
3FFC
2104
2104
3FFC
0420
0C30
381C
E817
0810
0810
1810
3010
ENDCHAR
STARTCHAR 3327
ENCODING 30342
SWIDTH 96 0
DWIDTH 16 0
BBX 16 16 0 -2
BITMAP
2040
2046
3E7C
2040
2041
2043
3E7E
E080
0100
1FF8
1008
1008
1FF8
1008
1008
1FF8
ENDCHAR
STARTCHAR 3328
ENCODING 32117
SWIDTH 96 0
DWIDTH 16 0
BBX 16 16 0 -2
BITMAP
1020
3070
6058
C4CC
6D86
1B03
30FC
6400
FC00
15FE
1040
5440
54C4
D484
90BE
11E2
ENDCHAR
STARTCHAR 3329
ENCODING 33445
SWIDTH 96 0
DWIDTH 16 0
BBX 16 16 0 -2
BITMAP
0810
0810
FFFF
0810
0910
0380
06C0
0C70
381C
E817
0810
0810
1810
1010
3010
6010
ENDCHAR
STARTCHAR 332a
ENCODING 34809
SWIDTH 96 0
DWIDTH 16 0
BBX 16 16 0 -2
BITMAP
3C7E
4412
FF32
4966
7F28
493E
7F48
41FF
C708
8108
7FFE
4102
7FFE
0104
07FE
FC03
ENDCHAR
STARTCHAR 332b
ENCODING 38283
SWIDTH 96 0
DWIDTH 16 0
BBX 16 16 0 -2
BITMAP
0000
7E7E
4242
7E7E
4242
7E7E
4002
4FF2
4242
4242
5FFA
4242
4242
4642
4C42
400E
ENDCHAR
STARTCHAR 332c
ENCODING 38542
SWIDTH 96 0
DWIDTH 16 0
BBX 16 16 0 -2
BITMAP
0110
7D13
45DE
4D10
4910
5911
51CF
4B10
4420
45FE
4502
4502
59FE
4102
4102
41FE
ENDCHAR
STARTCHAR 332d
ENCODING 35997
SWIDTH 96 0
DWIDTH 16 0
BBX 16 16 0 -2
BITMAP
0000
1FF8
1008
1008
1FF8
1008
1008
1008
1FF8
1008
1008
1008
1FF8
0810
1818
700E
ENDCHAR
STARTCHAR 332e
ENCODING 20977
SWIDTH 96 0
DWIDTH 16 0
BBX 16 16 0 -2
BITMAP
0800
493C
4924
7F24
0024
FFA4
0024
7F24
4124
4124
7F24
2224
2224
17A5
3C65
E0C3
ENDCHAR
STARTCHAR 332f
ENCODING 21182
SWIDTH 96 0
DWIDTH 16 0
BBX 16 16 0 -2
BITMAP
0810
0810
0810
FF90
107F
3011
6211
3611
0C11
1911
3311
C631
0C23
1A22
3162
C0CE
ENDCHAR
STARTCHAR 3330
ENCODING 22806
SWIDTH 96 0
DWIDTH 16 0
BBX 16 16 0 -2
BITMAP
1020
1020
1F20
1120
3120
2130
6138
D32C
0A26
0623
0420
0C20
1820
3020
6020
C020
ENDCHAR
STARTCHAR 3331
ENCODING 21683
SWIDTH 96 0
DWIDTH 16 0
BBX 16 16 0 -2
BITMAP
0020
0020
F820
8FFF
8840
88C8
8998
8B12
89B6
8864
88CC
F998
0730
006C
01C6
0F03
ENDCHAR
STARTCHAR 3332
ENCODING 23475
SWIDTH 96 0
DWIDTH 16 0
BBX 16 16 0 -2
BITMAP
0100
0100
7FFE
4002
4102
3FFC
0100
3FFC
0100
FFFF
0000
1FF8
1008
1008
1008
1FF8
ENDCHAR
STARTCHAR 3333
ENCODING 23830
SWIDTH 96 0
DWIDTH 16 0
BBX 16 16 0 -2
BITMAP
2082
2082
3FFE
0000
7FFF
4000
4080
4FFC
4080
5FFE
4000
4080
CFFC
8080
BFFF
0000
ENDCHAR
STARTCHAR 3334
ENCODING 24936
SWIDTH 96 0
DWIDTH 16 0
BBX 16 16 0 -2
BITMAP
2000
27BE
2494
2494
A794
B494
AC94
A7BF
2404
2404
248C
248C
24D4
2755
2C25
2043
ENDCHAR
STARTCHAR 3335
ENCODING 27010
SWIDTH 96 0
DWIDTH 16 0
BBX 16 16 0 -2
BITMAP
2000
27BE
2494
2494
FF94
2494
2494
77BF
6C04
6404
A48C
248C
24D4
2755
2C25
2043
ENDCHAR
STARTCHAR 3336
ENCODING 28079
SWIDTH 96 0
DWIDTH 16 0
BBX 16 16 0 -2
BITMAP
0000
67FF
3400
1410
04FE
C410
6410
25FF
0400
0410
24FE
2C10
6810
5810
C1FF
0000
ENDCHAR
STARTCHAR 3337
ENCODING 30861
SWIDTH 96 0
DWIDTH 16 0
BBX 16 16 0 -2
BITMAP
00FC
FE84
1084
10FC
3084
2084
3CFC
6400
67FF
A404
27FF
2484
2444
3C44
0004
001C
ENDCHAR
STARTCHAR 3338
ENCODING 33995
SWIDTH 96 0
DWIDTH 16 0
BBX 16 16 0 -2
BITMAP
0810
0810
FFFF
0810
0100
3FFC
0100
FFFF
0808
1004
7FFA
0000
3FFC
2444
2444
FFFF
ENDCHAR
STARTCHAR 3339
ENCODING 34903
SWIDTH 96 0
DWIDTH 16 0
BBX 16 16 0 -2
BITMAP
1100
311E
2FE0
6100
C100
0FE0
101F
3104
6104
EFE4
2104
2104
2104
21E4
2F04
201C
ENDCHAR
STARTCHAR 333a
ENCODING 35442
SWIDTH 96 0
DWIDTH 16 0
BBX 16 16 0 -2
BITMAP
0010
7C10
0010
FEFF
0020
7C60
00C4
006C
7C18
0032
0066
7CCC
4418
4434
4466
7CC3
ENDCHAR
STARTCHAR 333b
ENCODING 37799
SWIDTH 96 0
DWIDTH 16 0
BBX 16 16 0 -2
BITMAP
1010
3892
2C92
66FE
4000
FDFF
1000
10FE
FE82
1082
94FE
D444
506C
1C28
71FF
C000
ENDCHAR
STARTCHAR 333c
ENCODING 39608
SWIDTH 96 0
DWIDTH 16 0
BBX 16 16 0 -2
BITMAP
0010
7E10
4210
5EFF
5210
5230
FF64
812C
7E18
4232
7E66
42CC
7E18
4234
4266
46C3
ENDCHAR
STARTCHAR 333d
ENCODING 28012
SWIDTH 96 0
DWIDTH 16 0
BBX 16 16 0 -2
BITMAP
0000
63FE
3222
1222
03FE
C222
6222
2222
03FE
1020
3020
23FE
6020
4020
C7FF
0000
ENDCHAR
STARTCHAR 333e
ENCODING 39336
SWIDTH 96 0
DWIDTH 16 0
BBX 16 16 0 -2
BITMAP
083C
FFA4
0847
FFBC
4924
7F18
4064
9FC3
0100
FFFF
0910
3FFC
D00B
1FF8
1008
1FF8
ENDCHAR
STARTCHAR 333f
ENCODING 34521
SWIDTH 96 0
DWIDTH 16 0
BBX 16 16 0 -2
BITMAP
1010
1010
10FE
FE10
9210
9210
93FF
9200
FE10
1010
14FE
1410
1E10
7210
C1FF
0000
ENDCHAR
STARTCHAR 3340
ENCODING 22435
SWIDTH 96 0
DWIDTH 16 0
BBX 16 16 0 -2
BITMAP
2000
23FE
2000
2000
F9FC
2104
2104
21FC
2104
2104
3904
61FC
C000
0000
07FF
0000
ENDCHAR
STARTCHAR 3341
ENCODING 26623
SWIDTH 96 0
DWIDTH 16 0
BBX 16 16 0 -2
BITMAP
1020
1020
1020
FFFF
1020
1020
33FE
3A22
3622
5222
5222
9222
122E
1020
1020
1020
ENDCHAR
STARTCHAR 3342
ENCODING 34510
SWIDTH 96 0
DWIDTH 16 0
BBX 16 16 0 -2
BITMAP
2000
21FF
2100
F900
A9FF
A920
A920
A93E
F922
2122
2922
3B22
6A62
C646
0CC4
019C
ENDCHAR
STARTCHAR 3343
ENCODING 37390
SWIDTH 96 0
DWIDTH 16 0
BBX 16 16 0 -2
BITMAP
1040
3840
2C40
66FE
4082
FD82
1042
1042
FED2
1092
94FA
D58A
5002
1C06
7004
C01C
ENDCHAR
STARTCHAR 3344
ENCODING 21123
SWIDTH 96 0
DWIDTH 16 0
BBX 16 16 0 -2
BITMAP
0802
7F92
0892
FFD2
0892
7F92
0812
7F92
0812
FFD2
4892
7F82
4882
7F82
0002
FFCE
ENDCHAR
STARTCHAR 3345
ENCODING 22151
SWIDTH 96 0
DWIDTH 16 0
BBX 16 16 0 -2
BITMAP
0208
0208
EFBE
A208
A208
A208
BFFF
A514
A514
B5B6
F555
1555
2514
0924
0924
134C
ENDCHAR
STARTCHAR 3346
ENCODING 21508
SWIDTH 96 0
DWIDTH 16 0
BBX 16 16 0 -2
BITMAP
0400
0400
0FF0
1810
3C30
E660
03C0
0660
1C38
F00F
1FF8
1008
1008
1008
1008
1FF8
ENDCHAR
STARTCHAR 3347
ENCODING 24275
SWIDTH 96 0
DWIDTH 16 0
BBX 16 16 0 -2
BITMAP
0080
0080
7FFF
4200
5FDE
4012
4F92
4894
4F94
4012
5F92
4112
C3D2
9E16
8210
0E10
ENDCHAR
STARTCHAR 3348
ENCODING 25313
SWIDTH 96 0
DWIDTH 16 0
BBX 16 16 0 -2
BITMAP
2020
2020
2020
23FF
FA00
2220
2220
2220
3A60
E244
2244
2246
22C2
2682
249F
6DF1
ENDCHAR
STARTCHAR 3349
ENCODING 25785
SWIDTH 96 0
DWIDTH 16 0
BBX 16 16 0 -2
BITMAP
2242
2366
2124
27FF
FC01
25FD
2104
21FC
3904
E1FC
2104
21FC
2090
2091
2193
670E
ENDCHAR
STARTCHAR 334a
ENCODING 26684
SWIDTH 96 0
DWIDTH 16 0
BBX 16 16 0 -2
BITMAP
1040
1040
10FC
FC84
11CC
1358
3830
3478
30CC
5387
50FC
9084
1084
1084
1084
10FC
ENDCHAR
STARTCHAR 334b
ENCODING 26680
SWIDTH 96 0
DWIDTH 16 0
BBX 16 16 0 -2
BITMAP
1020
1020
1020
FFFF
1040
10C0
3188
38D8
3430
5064
50CC
9398
1030
106C
10C6
1383
ENDCHAR
STARTCHAR 334c
ENCODING 27579
SWIDTH 96 0
DWIDTH 16 0
BBX 16 16 0 -2
BITMAP
1000
103C
FF24
1024
1024
7E47
0000
FF7E
8122
BD26
2424
242C
2518
663C
4466
C0C3
ENDCHAR
STARTCHAR 334d
ENCODING 29554
SWIDTH 96 0
DWIDTH 16 0
BBX 16 16 0 -2
BITMAP
0888
8FFF
5088
2110
23FF
5620
9BFE
1220
33FE
5220
93FF
1000
17FE
108C
3070
E78F
ENDCHAR
STARTCHAR 334e
ENCODING 30906
SWIDTH 96 0
DWIDTH 16 0
BBX 16 16 0 -2
BITMAP
0020
0020
FDFF
1121
1165
3048
20FE
3D90
6690
64FE
A490
2490
24FE
2490
3C90
00FF
ENDCHAR
STARTCHAR 334f
ENCODING 31339
SWIDTH 96 0
DWIDTH 16 0
BBX 16 16 0 -2
BITMAP
0444
1BFF
F044
1090
11FF
FF10
11FE
3910
35FE
3510
51FF
5000
93FE
1084
1078
1387
ENDCHAR
STARTCHAR 3350
ENCODING 35226
SWIDTH 96 0
DWIDTH 16 0
BBX 16 16 0 -2
BITMAP
2204
330C
1108
7FFE
4002
5FFA
1008
1FF8
1008
1FF8
1008
1FF8
0420
0C21
3833
E01E
ENDCHAR
STARTCHAR 3351
ENCODING 35282
SWIDTH 96 0
DWIDTH 16 0
BBX 16 16 0 -2
BITMAP
0400
0FF0
1820
3040
DFFC
1084
1084
1FFC
1084
1084
1FFC
1004
3004
2004
6004
C01C
ENDCHAR
STARTCHAR 3352
ENCODING 36203
SWIDTH 96 0
DWIDTH 16 0
BBX 16 16 0 -2
BITMAP
0810
0810
7EFE
0810
0810
0810
FFFF
1428
562A
556A
D4AB
9429
1428
3468
2448
6CD8
ENDCHAR
STARTCHAR 3353
ENCODING 36611
SWIDTH 96 0
DWIDTH 16 0
BBX 16 16 0 -2
BITMAP
1010
1010
FE10
11FF
7C44
54C6
5583
7C44
546C
5428
7C38
1010
FE38
106C
10C6
1183
ENDCHAR
STARTCHAR 3354
ENCODING 37101
SWIDTH 96 0
DWIDTH 16 0
BBX 16 16 0 -2
BITMAP
0800
083E
FFA2
0026
7F24
412C
7F28
0024
FF22
0622
1822
0FA2
F822
082C
0820
3820
ENDCHAR
STARTCHAR 3355
ENCODING 38307
SWIDTH 96 0
DWIDTH 16 0
BBX 16 16 0 -2
BITMAP
0000
7E7E
4242
7E7E
4242
7E7E
4202
47E2
4C42
4382
4662
581A
47E2
4422
47E2
400E
ENDCHAR
STARTCHAR 3356
ENCODING 38548
SWIDTH 96 0
DWIDTH 16 0
BBX 16 16 0 -2
BITMAP
0000
7BFE
4800
49FC
4904
51FC
5000
4BFE
4A52
4A92
4B0E
4A02
5AFA
4222
4222
4226
ENDCHAR
STARTCHAR 3357
ENCODING 38761
SWIDTH 96 0
DWIDTH 16 0
BBX 16 16 0 -2
BITMAP
0820
0820
FFFF
0820
0820
0FE0
0100
3FF8
2108
2108
3FF8
0100
FFFF
0100
0100
0100
ENDCHAR
STARTCHAR 3358
ENCODING 23398
SWIDTH 96 0
DWIDTH 16 0
BBX 16 16 0 -2
BITMAP
2204
330C
1108
7FFE
4002
4002
1FF8
0030
00C0
0100
FFFF
0100
0100
0100
0100
0700
ENDCHAR
STARTCHAR 3359
ENCODING 23731
SWIDTH 96 0
DWIDTH 16 0
BBX 16 16 0 -2
BITMAP
0018
00F0
1F80
1000
1FFE
1010
1010
1010
FFFF
0100
0100
2104
2104
2104
3FFC
0000
ENDCHAR
STARTCHAR 335a
ENCODING 27005
SWIDTH 96 0
DWIDTH 16 0
BBX 16 16 0 -2
BITMAP
0080
6106
37EC
0420
0420
07E0
0420
342C
67E6
0100
FFFF
0540
0D60
3938
E10F
0100
ENDCHAR
STARTCHAR 335b
ENCODING 38989
SWIDTH 96 0
DWIDTH 16 0
BBX 16 16 0 -2
BITMAP
1000
11FF
FE10
82FE
A282
3C82
44FE
A882
1082
28FE
C682
7C82
44FE
4444
7CC6
0183
ENDCHAR
STARTCHAR 335c
ENCODING 38990
SWIDTH 96 0
DWIDTH 16 0
BBX 16 16 0 -2
BITMAP
0000
EEFF
AA10
AA7E
EE42
0042
7C7E
0042
FE42
107E
2042
7C42
047E
0424
0C66
38C3
ENDCHAR
STARTCHAR 335d
ENCODING 25499
SWIDTH 96 0
DWIDTH 16 0
BBX 16 16 0 -2
BITMAP
2084
2084
23E4
2084
F884
27F4
2006
2085
3885
E3E4
2084
2084
2084
20F4
2784
6004
ENDCHAR
STARTCHAR 335e
ENCODING 31520
SWIDTH 96 0
DWIDTH 16 0
BBX 16 16 0 -2
BITMAP
1020
1020
3F7F
4850
8488
0508
0100
7FFE
0000
1008
1818
0810
0830
0020
FFFF
0000
ENDCHAR
STARTCHAR 335f
ENCODING 27179
SWIDTH 96 0
DWIDTH 16 0
BBX 16 16 0 -2
BITMAP
2000
27C0
253E
FD12
27D6
245C
37C8
6D1C
6536
67C3
A020
23FE
2020
2020
27FF
2000
ENDCHAR
STARTCHAR 3360
ENCODING 27263
SWIDTH 96 0
DWIDTH 16 0
BBX 16 16 0 -2
BITMAP
2000
27FF
2000
F9FC
2124
21FC
6124
77FF
6800
A1FC
A124
21FC
2124
21FC
2000
27FF
ENDCHAR
STARTCHAR 3361
ENCODING 26806
SWIDTH 96 0
DWIDTH 16 0
BBX 16 16 0 -2
BITMAP
1000
13FE
1202
FE02
13FE
1200
3A1C
36F0
3220
53FE
5220
93FF
1220
1221
1433
101E
ENDCHAR
STARTCHAR 3362
ENCODING 39949
SWIDTH 96 0
DWIDTH 16 0
BBX 16 16 0 -2
BITMAP
2028
3CE8
6789
48A9
FCAB
57EA
54AA
7C88
55C8
56A8
7C9C
0094
0094
AA96
AAB2
80A3
ENDCHAR
STARTCHAR 3363
ENCODING 28511
SWIDTH 96 0
DWIDTH 16 0
BBX 16 16 0 -2
BITMAP
00C0
639E
3202
1202
03DE
C202
6202
23FE
0100
13FF
1601
3C09
22A5
62A3
4402
C00E
ENDCHAR
STARTCHAR 3364
ENCODING 21106
SWIDTH 96 0
DWIDTH 16 0
BBX 16 16 0 -2
BITMAP
0802
0812
FF92
8092
8892
7F12
0812
7F12
0812
FF92
0012
7F02
4102
4102
4102
7F0E
ENDCHAR
STARTCHAR 3365
ENCODING 21917
SWIDTH 96 0
DWIDTH 16 0
BBX 16 16 0 -2
BITMAP
03FC
0204
F204
93FC
9204
9204
93FC
9100
91FF
9301
F631
0FE1
0201
0213
01F2
000E
ENDCHAR
STARTCHAR 3366
ENCODING 24688
SWIDTH 96 0
DWIDTH 16 0
BBX 16 16 0 -2
BITMAP
1020
1070
1050
18D8
558C
5306
5603
D1FC
9000
1000
11FC
1104
1104
1104
1104
11FC
ENDCHAR
STARTCHAR 3367
ENCODING 25324
SWIDTH 96 0
DWIDTH 16 0
BBX 16 16 0 -2
BITMAP
1006
101C
11F0
1010
FC10
1010
11FF
1010
1C10
F010
10FE
1082
1082
1082
1082
70FE
ENDCHAR
STARTCHAR 3368
ENCODING 27963
SWIDTH 96 0
DWIDTH 16 0
BBX 16 16 0 -2
BITMAP
0006
603C
33E0
1020
0020
C020
67FF
2020
0020
1020
13FE
3202
2202
6202
4202
C3FE
ENDCHAR
STARTCHAR 3369
ENCODING 28167
SWIDTH 96 0
DWIDTH 16 0
BBX 16 16 0 -2
BITMAP
63FC
3204
1204
03FC
0204
C204
63FC
2100
01FF
1301
1631
3FE1
2201
6213
41F2
C00E
ENDCHAR
STARTCHAR 336a
ENCODING 28369
SWIDTH 96 0
DWIDTH 16 0
BBX 16 16 0 -2
BITMAP
61FC
3104
113C
0124
0124
C7FF
6401
2401
01FC
1104
11FC
3104
21FC
6104
4104
C11C
ENDCHAR
STARTCHAR 336b
ENCODING 33883
SWIDTH 96 0
DWIDTH 16 0
BBX 16 16 0 -2
BITMAP
0420
0420
FFFF
0420
1FF8
1008
1FF8
1008
1FF8
0800
1FFE
3002
DF82
1026
0FE4
001C
ENDCHAR
STARTCHAR 336c
ENCODING 35088
SWIDTH 96 0
DWIDTH 16 0
BBX 16 16 0 -2
BITMAP
21FC
2104
2104
F9FC
0904
1904
11FC
3480
68FF
B181
2B31
25E1
2101
2113
20F2
200E
ENDCHAR
STARTCHAR 336d
ENCODING 36676
SWIDTH 96 0
DWIDTH 16 0
BBX 16 16 0 -2
BITMAP
1010
1010
FFFF
1101
7D11
54FE
5410
7CFE
5410
55FF
7C00
10FE
FE82
1082
1082
10FE
ENDCHAR
STARTCHAR 336e
ENCODING 19988
SWIDTH 96 0
DWIDTH 16 0
BBX 16 16 0 -2
BITMAP
0000
1FF8
1008
1008
1008
1FF8
1008
1008
1008
1FF8
1008
1008
1008
1008
FFFF
0000
ENDCHAR
STARTCHAR 336f
ENCODING 39993
SWIDTH 96 0
DWIDTH 16 0
BBX 16 16 0 -2
BITMAP
2000
3DE0
655E
494A
FDEA
552E
55E4
7D4E
555A
55E3
7C10
00FE
AA10
AA10
81FF
0000
ENDCHAR
STARTCHAR 3370
ENCODING 21494
SWIDTH 96 0
DWIDTH 16 0
BBX 16 16 0 -2
BITMAP
0020
0020
F820
8820
8820
8820
8BFF
8820
8820
8820
8820
F820
0020
0020
0020
0020
ENDCHAR
STARTCHAR 3371
ENCODING 26907
SWIDTH 96 0
DWIDTH 16 0
BBX 16 16 0 -2
BITMAP
1088
1088
13FF
FC88
1088
1050
38D0
3493
3196
539C
5690
9090
1090
1091
1093
108E
ENDCHAR
STARTCHAR 3372
ENCODING 27194
SWIDTH 96 0
DWIDTH 16 0
BBX 16 16 0 -2
BITMAP
2088
2088
27FF
F888
23FE
2124
6124
77FF
6924
A124
A3FE
2020
27FF
2020
2020
2020
ENDCHAR
STARTCHAR 3373
ENCODING 38788
SWIDTH 96 0
DWIDTH 16 0
BBX 16 16 0 -2
BITMAP
4440
4440
FE40
44FE
4482
7DF2
1012
FE12
92F2
9286
FE84
109C
FE80
1081
10C3
107E
ENDCHAR
STARTCHAR 3374
ENCODING 26666
SWIDTH 96 0
DWIDTH 16 0
BBX 16 16 0 -2
BITMAP
1020
1120
1120
FD20
13FE
1A20
3420
3020
37FF
50A8
50A8
91AC
1124
1326
1623
1020
ENDCHAR
STARTCHAR 3375
ENCODING 20828
SWIDTH 96 0
DWIDTH 16 0
BBX 16 16 0 -2
BITMAP
0880
190E
77E2
4422
4422
47E2
4422
4422
77EE
0000
0440
0440
0C40
1841
3063
E03E
ENDCHAR
STARTCHAR 3376
ENCODING 31427
SWIDTH 96 0
DWIDTH 16 0
BBX 16 16 0 -2
BITMAP
0100
7FFE
4912
F7DF
0100
FFFF
2104
3FFC
2104
7FFE
4102
7FFE
4102
7FFE
0101
00FF
ENDCHAR
STARTCHAR 3377
ENCODING 33970
SWIDTH 96 0
DWIDTH 16 0
BBX 16 16 0 -2
BITMAP
0420
0420
FFFF
0424
6022
37FF
1020
C3FE
6222
23FE
0222
13FE
3222
2222
6222
C226
ENDCHAR
STARTCHAR 3378
ENCODING 37340
SWIDTH 96 0
DWIDTH 16 0
BBX 16 16 0 -2
BITMAP
0240
0660
1C38
766E
03C0
0660
1C38
F7EF
0100
0100
7FFE
1108
1918
0910
FFFF
0000
ENDCHAR
STARTCHAR 3379
ENCODING 37772
SWIDTH 96 0
DWIDTH 16 0
BBX 16 16 0 -2
BITMAP
1084
3848
2FFF
6450
41FE
FC52
1052
13FF
FC52
1052
95FE
D458
50D4
1D56
F253
0050
ENDCHAR
STARTCHAR 337a
ENCODING 22107
SWIDTH 96 0
DWIDTH 16 0
BBX 16 16 0 -2
BITMAP
0020
0120
F13E
9120
9120
97FF
9202
92AA
9222
92FA
9222
F272
02AA
0222
0202
03FE
ENDCHAR
STARTCHAR 337b
ENCODING 40232
SWIDTH 96 0
DWIDTH 16 0
BBX 16 16 0 -2
BITMAP
0010
FE20
92FE
9282
92FE
FE82
92FE
9280
92FF
FE80
10FF
1001
1155
1355
1203
1006
ENDCHAR
STARTCHAR 337c
ENCODING 26658
SWIDTH 96 0
DWIDTH 16 0
BBX 16 16 0 -2
BITMAP
1000
13FF
1010
FC30
1020
11FE
3902
3502
3502
5102
51FE
9102
1102
1102
1102
11FE
ENDCHAR
STARTCHAR 337d
ENCODING 33541
SWIDTH 96 0
DWIDTH 16 0
BBX 16 16 0 -2
BITMAP
0420
0420
FFFF
0420
3FF8
0030
0440
0280
FFFF
0282
0684
0C80
1880
3080
E080
0380
ENDCHAR
STARTCHAR 337e
ENCODING 33841
SWIDTH 96 0
DWIDTH 16 0
BBX 16 16 0 -2
BITMAP
0810
0810
FFFF
0810
0100
7FFE
4002
5FFA
0000
1FF8
1008
1FF8
1008
1FF8
0000
FFFF
ENDCHAR
STARTCHAR 3421
ENCODING 31909
SWIDTH 96 0
DWIDTH 16 0
BBX 16 16 0 -2
BITMAP
0000
F11E
1542
1542
1542
F11E
8FF0
8110
F39E
1382
1542
1542
1922
3106
2104
E01C
ENDCHAR
STARTCHAR 3422
ENCODING 21000
SWIDTH 96 0
DWIDTH 16 0
BBX 16 16 0 -2
BITMAP
0102
0112
0112
0112
6312
3212
1A12
0E12
0412
0E12
0B12
1902
1182
3082
6002
C00E
ENDCHAR
STARTCHAR 3423
ENCODING 33477
SWIDTH 96 0
DWIDTH 16 0
BBX 16 16 0 -2
BITMAP
0420
0420
FFFF
0420
0420
0102
6122
3322
1A22
0E22
0422
0E22
1B02
3182
6082
C00E
ENDCHAR
STARTCHAR 3424
ENCODING 29926
SWIDTH 96 0
DWIDTH 16 0
BBX 16 16 0 -2
BITMAP
0000
FFFF
0400
0400
0400
0FE0
0820
0820
0A20
0B20
1920
1020
1020
13A1
3E33
E01E
ENDCHAR
STARTCHAR 3425
ENCODING 20094
SWIDTH 96 0
DWIDTH 16 0
BBX 16 16 0 -2
BITMAP
1040
1040
FE40
10FF
7D80
4700
44FE
7C0C
4418
4430
7C60
1040
FEC0
1081
10C3
107E
ENDCHAR
STARTCHAR 3426
ENCODING 20355
SWIDTH 96 0
DWIDTH 16 0
BBX 16 16 0 -2
BITMAP
0800
0BFE
1A02
1202
3202
23FE
6000
A124
2124
2124
2124
2124
2124
2325
2225
2603
ENDCHAR
STARTCHAR 3427
ENCODING 20896
SWIDTH 96 0
DWIDTH 16 0
BBX 16 16 0 -2
BITMAP
0000
7FFE
4002
4002
7E04
0004
00FF
FF04
2444
2464
2424
2404
2404
641D
4603
C3FE
ENDCHAR
STARTCHAR 3428
ENCODING 23506
SWIDTH 96 0
DWIDTH 16 0
BBX 16 16 0 -2
BITMAP
0100
0100
7FFE
4002
4422
3FFC
0420
3FFC
0420
FFFF
0810
3BDC
E067
0F00
01E0
0030
ENDCHAR
STARTCHAR 3429
ENCODING 21002
SWIDTH 96 0
DWIDTH 16 0
BBX 16 16 0 -2
BITMAP
0002
7F22
0822
0822
0822
0822
FFA2
0822
0822
0822
0822
0802
0802
0802
0802
080E
ENDCHAR
STARTCHAR 342a
ENCODING 21208
SWIDTH 96 0
DWIDTH 16 0
BBX 16 16 0 -2
BITMAP
2210
2210
FF90
2210
3E7F
2211
3E11
2211
FF91
5411
5431
5721
6023
4062
7F42
00CE
ENDCHAR
STARTCHAR 342b
ENCODING 21223
SWIDTH 96 0
DWIDTH 16 0
BBX 16 16 0 -2
BITMAP
2010
2010
7F90
4810
887F
7F91
1211
2411
7F91
A431
3F21
2421
3F63
2442
3FC2
008E
ENDCHAR
STARTCHAR 342c
ENCODING 24059
SWIDTH 96 0
DWIDTH 16 0
BBX 16 16 0 -2
BITMAP
1108
1918
0910
3FFC
0240
0420
FFFF
0810
1FF8
302C
E027
0FE0
0800
0804
0C0C
07F8
ENDCHAR
STARTCHAR 342d
ENCODING 21914
SWIDTH 96 0
DWIDTH 16 0
BBX 16 16 0 -2
BITMAP
0100
01F8
F308
9210
97FE
9252
9252
9252
929E
9302
9222
F7FF
0050
00D8
018C
0707
ENDCHAR
STARTCHAR 342e
ENCODING 22570
SWIDTH 96 0
DWIDTH 16 0
BBX 16 16 0 -2
BITMAP
2104
2104
27FF
2104
F9FC
2104
21FC
2104
2104
27FF
2248
3A48
E28F
0300
0200
03FF
ENDCHAR
STARTCHAR 342f
ENCODING 23014
SWIDTH 96 0
DWIDTH 16 0
BBX 16 16 0 -2
BITMAP
0200
0200
7FFE
0410
0820
1FE0
013C
7E06
1010
FFFF
2222
4646
7474
1C1C
3636
E2E3
ENDCHAR
STARTCHAR 3430
ENCODING 23436
SWIDTH 96 0
DWIDTH 16 0
BBX 16 16 0 -2
BITMAP
0100
0100
7FFE
4002
4002
1FF8
0000
0000
FFFF
0420
0420
0C20
0820
1821
3033
E01E
ENDCHAR
STARTCHAR 3431
ENCODING 23448
SWIDTH 96 0
DWIDTH 16 0
BBX 16 16 0 -2
BITMAP
0100
0100
FFFF
8001
8001
1FF8
1008
1008
1FF8
1000
1000
1FFC
1004
1004
1004
1FFC
ENDCHAR
STARTCHAR 3432
ENCODING 23515
SWIDTH 96 0
DWIDTH 16 0
BBX 16 16 0 -2
BITMAP
0100
0100
FFFF
8421
BFFD
0420
1FF8
1008
1FF8
1008
1FF8
1008
1FF8
0421
1C23
F01E
ENDCHAR
STARTCHAR 3433
ENCODING 24178
SWIDTH 96 0
DWIDTH 16 0
BBX 16 16 0 -2
BITMAP
0000
7FFC
0100
0100
0100
0100
0100
FFFF
0100
0100
0100
0100
0100
0100
0100
0100
ENDCHAR
STARTCHAR 3434
ENCODING 24185
SWIDTH 96 0
DWIDTH 16 0
BBX 16 16 0 -2
BITMAP
1010
1038
FE28
106C
7CC6
4583
447C
7C10
4410
4410
7DFF
1010
FE10
1010
1010
1010
ENDCHAR
STARTCHAR 3435
ENCODING 24739
SWIDTH 96 0
DWIDTH 16 0
BBX 16 16 0 -2
BITMAP
0100
3FFC
2104
2104
3FFC
0100
3FFC
2104
2104
3FFC
0100
0040
2466
242B
6619
C3F0
ENDCHAR
STARTCHAR 3436
ENCODING 24863
SWIDTH 96 0
DWIDTH 16 0
BBX 16 16 0 -2
BITMAP
0048
0044
7FFF
4040
5F64
402C
5F38
5110
5F39
C0CD
8007
0180
24C6
244B
6619
C3F0
ENDCHAR
STARTCHAR 3437
ENCODING 24931
SWIDTH 96 0
DWIDTH 16 0
BBX 16 16 0 -2
BITMAP
2000
23FE
2222
27FF
B222
ABFE
A000
A3FE
2202
23FE
2202
23FE
2202
23FE
2104
2603
ENDCHAR
STARTCHAR 3438
ENCODING 25022
SWIDTH 96 0
DWIDTH 16 0
BBX 16 16 0 -2
BITMAP
2014
2012
27FF
2410
A5FA
B40A
ADEE
A524
25ED
2417
2802
2040
2566
2523
2D09
28F8
ENDCHAR
STARTCHAR 3439
ENCODING 25563
SWIDTH 96 0
DWIDTH 16 0
BBX 16 16 0 -2
BITMAP
2100
21F8
2308
FA10
27FE
2252
2252
2252
3A9E
E302
2222
27FF
2050
20D8
218C
6707
ENDCHAR
STARTCHAR 343a
ENCODING 25954
SWIDTH 96 0
DWIDTH 16 0
BBX 16 16 0 -2
BITMAP
0020
7F20
0820
087F
FFC4
2244
22E4
3E2C
2228
2238
3E10
2238
2228
3E6C
E246
02C3
ENDCHAR
STARTCHAR 343b
ENCODING 26577
SWIDTH 96 0
DWIDTH 16 0
BBX 16 16 0 -2
BITMAP
1084
1084
1084
FC84
13FF
1084
3884
3484
3484
50FC
5084
9084
1084
1084
1084
10FC
ENDCHAR
STARTCHAR 343c
ENCODING 26707
SWIDTH 96 0
DWIDTH 16 0
BBX 16 16 0 -2
BITMAP
1000
13FE
1000
FC00
11FC
1104
3904
35FC
3504
5104
5104
91FC
1000
1000
17FF
1000
ENDCHAR
STARTCHAR 343d
ENCODING 26874
SWIDTH 96 0
DWIDTH 16 0
BBX 16 16 0 -2
BITMAP
1020
1020
13FF
FE01
1201
10FC
3884
3484
34FC
5080
5080
90FE
1082
1082
1082
10FE
ENDCHAR
STARTCHAR 343e
ENCODING 27454
SWIDTH 96 0
DWIDTH 16 0
BBX 16 16 0 -2
BITMAP
1020
1020
FF20
107F
1041
7E53
00D2
7E10
0010
FF38
1028
5428
526C
9244
10C6
3183
ENDCHAR
STARTCHAR 343f
ENCODING 27475
SWIDTH 96 0
DWIDTH 16 0
BBX 16 16 0 -2
BITMAP
2020
2020
7F20
D03F
1061
FF53
24D2
2810
7F10
C838
7E28
4828
7E6C
4844
7FC6
0083
ENDCHAR
STARTCHAR 3440
ENCODING 27735
SWIDTH 96 0
DWIDTH 16 0
BBX 16 16 0 -2
BITMAP
0000
63FE
3020
1020
0020
C020
6020
27FF
0020
1020
3020
2020
6020
4020
C020
0020
ENDCHAR
STARTCHAR 3441
ENCODING 28450
SWIDTH 96 0
DWIDTH 16 0
BBX 16 16 0 -2
BITMAP
0088
67FF
3088
1000
03FE
C222
6222
23FE
0020
13FE
1020
37FF
2050
60D8
418C
C707
ENDCHAR
STARTCHAR 3442
ENCODING 28567
SWIDTH 96 0
DWIDTH 16 0
BBX 16 16 0 -2
BITMAP
0000
67DF
3451
17DF
0451
C7DF
6401
24F9
0489
1489
14F9
3489
2489
64F9
4401
C407
ENDCHAR
STARTCHAR 3443
ENCODING 28485
SWIDTH 96 0
DWIDTH 16 0
BBX 16 16 0 -2
BITMAP
0100
6100
33FE
1240
0FFF
C088
6110
23FE
0620
13FE
1220
3220
23FE
6220
4220
C3FF
ENDCHAR
STARTCHAR 3444
ENCODING 29872
SWIDTH 96 0
DWIDTH 16 0
BBX 16 16 0 -2
BITMAP
0000
03FE
FA92
2292
23FE
2000
27FF
F800
23FE
2202
23FE
2061
38B2
E12C
0623
0020
ENDCHAR
STARTCHAR 3445
ENCODING 29976
SWIDTH 96 0
DWIDTH 16 0
BBX 16 16 0 -2
BITMAP
0810
0810
0810
0810
FFFF
0810
0810
0810
0810
0FF0
0810
0810
0810
0810
0810
0FF0
ENDCHAR
STARTCHAR 3446
ENCODING 30435
SWIDTH 96 0
DWIDTH 16 0
BBX 16 16 0 -2
BITMAP
0020
7F20
4820
7E7F
4240
42C0
7E3E
4800
7F00
0000
3FFC
2444
2444
2444
FFFF
0000
ENDCHAR
STARTCHAR 3447
ENCODING 30475
SWIDTH 96 0
DWIDTH 16 0
BBX 16 16 0 -2
BITMAP
0018
01F0
3F00
0100
7FFE
0200
FFFF
0400
0FFC
1804
2FFC
C804
0FFC
0804
0804
0FFC
ENDCHAR
STARTCHAR 3448
ENCODING 31487
SWIDTH 96 0
DWIDTH 16 0
BBX 16 16 0 -2
BITMAP
1020
1020
3F7F
4890
8408
0000
3FFC
0100
0100
0100
FFFF
0100
0100
0100
0100
0100
ENDCHAR
STARTCHAR 3449
ENCODING 31649
SWIDTH 96 0
DWIDTH 16 0
BBX 16 16 0 -2
BITMAP
1020
1020
3F7F
4890
8408
0100
7FFE
4002
4FF2
0810
0FF0
0800
0FF8
0808
0808
0FF8
ENDCHAR
STARTCHAR 344a
ENCODING 31777
SWIDTH 96 0
DWIDTH 16 0
BBX 16 16 0 -2
BITMAP
2040
3E7F
4890
8408
7E7E
4242
7E7E
4242
7E7E
4002
47E2
4422
47E2
4422
47E2
400E
ENDCHAR
STARTCHAR 344b
ENCODING 32233
SWIDTH 96 0
DWIDTH 16 0
BBX 16 16 0 -2
BITMAP
1006
303C
23E2
C926
5894
33FF
2040
4BFF
FC40
147C
1044
58EC
55A8
D038
906C
11C7
ENDCHAR
STARTCHAR 344c
ENCODING 32566
SWIDTH 96 0
DWIDTH 16 0
BBX 16 16 0 -2
BITMAP
0800
0800
1FFC
3100
6100
0100
0100
FFFF
0100
0100
2104
2104
2104
2104
2104
3FFC
ENDCHAR
STARTCHAR 344d
ENCODING 32752
SWIDTH 96 0
DWIDTH 16 0
BBX 16 16 0 -2
BITMAP
2020
2070
F8D8
218C
FF07
8800
8BDE
F842
8A52
894A
F842
20C6
F94A
2252
2042
21CE
ENDCHAR
STARTCHAR 344e
ENCODING 32925
SWIDTH 96 0
DWIDTH 16 0
BBX 16 16 0 -2
BITMAP
0000
7CFE
4410
4410
4410
7C10
4410
45FF
4410
7C10
4410
4410
4410
4410
C410
9C10
ENDCHAR
STARTCHAR 344f
ENCODING 33382
SWIDTH 96 0
DWIDTH 16 0
BBX 16 16 0 -2
BITMAP
0804
11F4
7D44
454F
55F8
5510
45F0
FF4F
4540
55F0
5400
54FE
54AA
44AA
C4AA
8DFF
ENDCHAR
STARTCHAR 3450
ENCODING 33694
SWIDTH 96 0
DWIDTH 16 0
BBX 16 16 0 -2
BITMAP
0810
0810
FFFF
0810
0100
7FFE
4002
5FFA
0000
0000
FFFF
0440
0C40
1841
3063
E03E
ENDCHAR
STARTCHAR 3451
ENCODING 35251
SWIDTH 96 0
DWIDTH 16 0
BBX 16 16 0 -2
BITMAP
2000
20FE
7E82
D082
10FE
FF82
2482
28FE
7E82
C882
7EFE
4828
7E68
4849
7EC9
0187
ENDCHAR
STARTCHAR 3452
ENCODING 35532
SWIDTH 96 0
DWIDTH 16 0
BBX 16 16 0 -2
BITMAP
0020
7820
03FF
FC20
01FC
7924
0124
01FC
7924
0124
01FC
78A8
48AC
49A6
4B23
7820
ENDCHAR
STARTCHAR 3453
ENCODING 36011
SWIDTH 96 0
DWIDTH 16 0
BBX 16 16 0 -2
BITMAP
0000
1FF8
1108
FFFF
1108
1FF8
0000
1FF8
1008
1FF8
1008
1FF8
1008
1FF8
0810
700E
ENDCHAR
STARTCHAR 3454
ENCODING 36996
SWIDTH 96 0
DWIDTH 16 0
BBX 16 16 0 -2
BITMAP
0000
67FE
3492
17FE
0000
0FFF
0000
F3FC
1204
13FC
10C2
1164
1658
3046
6840
C7FF
ENDCHAR
STARTCHAR 3455
ENCODING 37969
SWIDTH 96 0
DWIDTH 16 0
BBX 16 16 0 -2
BITMAP
1004
39F4
2D44
654F
41F8
FD10
11F0
114F
FD40
11F0
9400
D4FE
54AA
10AA
1CAA
F1FF
ENDCHAR
STARTCHAR 3456
ENCODING 38291
SWIDTH 96 0
DWIDTH 16 0
BBX 16 16 0 -2
BITMAP
0000
7E7E
4242
7E7E
4242
7E7E
4002
47E2
4422
4422
47E2
4422
4422
47E2
4002
400E
ENDCHAR
STARTCHAR 3457
ENCODING 38289
SWIDTH 96 0
DWIDTH 16 0
BBX 16 16 0 -2
BITMAP
0000
7E7E
4242
7E7E
4242
7E7E
4102
4102
4FF2
4102
4382
4342
4522
4912
4102
400E
ENDCHAR
STARTCHAR 3458
ENCODING 38306
SWIDTH 96 0
DWIDTH 16 0
BBX 16 16 0 -2
BITMAP
0000
7E7E
4242
7E7E
4242
7E7E
4422
4242
4FF2
4102
4102
5FFA
4242
4662
4C32
400E
ENDCHAR
STARTCHAR 3459
ENCODING 38501
SWIDTH 96 0
DWIDTH 16 0
BBX 16 16 0 -2
BITMAP
0040
7C40
44FC
4C84
498C
5B18
5010
493E
4522
4522
4522
453E
5D22
4122
4122
413E
ENDCHAR
STARTCHAR 345a
ENCODING 38867
SWIDTH 96 0
DWIDTH 16 0
BBX 16 16 0 -2
BITMAP
1010
10FC
FE24
1024
7DFF
4400
44FE
7C82
44FE
4408
7CFE
1048
FE48
11FF
1008
1008
ENDCHAR
STARTCHAR 345b
ENCODING 39208
SWIDTH 96 0
DWIDTH 16 0
BBX 16 16 0 -2
BITMAP
1010
3810
2DFF
6501
5101
FC7C
4444
7C44
447C
7C40
4040
447E
4442
5E42
7242
C07E
ENDCHAR
STARTCHAR 345c
ENCODING 33304
SWIDTH 96 0
DWIDTH 16 0
BBX 16 16 0 -2
BITMAP
1010
3810
2DFF
6701
4101
FC7C
1044
1044
FE7C
1040
1040
7C7E
4442
4442
4442
7C7E
ENDCHAR
STARTCHAR 345d
ENCODING 20024
SWIDTH 96 0
DWIDTH 16 0
BBX 16 16 0 -2
BITMAP
0200
0200
0200
0200
7FF0
0210
0210
3210
1A10
0E10
0410
0E10
0B10
1911
3013
E00E
ENDCHAR
STARTCHAR 345e
ENCODING 21547
SWIDTH 96 0
DWIDTH 16 0
BBX 16 16 0 -2
BITMAP
0100
0380
06C0
0C70
381C
E7E7
0000
1FF8
0010
0020
0040
1FF8
1008
1008
1008
1FF8
ENDCHAR
STARTCHAR 345f
ENCODING 23736
SWIDTH 96 0
DWIDTH 16 0
BBX 16 16 0 -2
BITMAP
0080
2082
2082
3FFE
0000
3FFF
2000
27FC
2040
2040
3FFF
2040
6040
4040
C040
0040
ENDCHAR
STARTCHAR 3460
ENCODING 24012
SWIDTH 96 0
DWIDTH 16 0
BBX 16 16 0 -2
BITMAP
2082
2082
3FFE
1104
7FFF
4010
5F10
443F
7FA4
5164
5F14
511C
5F08
D11C
9F36
3163
ENDCHAR
STARTCHAR 3461
ENCODING 29609
SWIDTH 96 0
DWIDTH 16 0
BBX 16 16 0 -2
BITMAP
0000
F9FE
2000
2000
2000
2000
FBFF
2048
2048
2048
2048
3848
E0C8
0089
0189
0307
ENDCHAR
STARTCHAR 3462
ENCODING 30284
SWIDTH 96 0
DWIDTH 16 0
BBX 16 16 0 -2
BITMAP
0040
0040
3FFF
2000
A3F8
6208
23F8
2000
6F1E
A912
2F1E
2000
6040
4842
C842
0FFE
ENDCHAR
STARTCHAR 3463
ENCODING 30524
SWIDTH 96 0
DWIDTH 16 0
BBX 16 16 0 -2
BITMAP
0000
79FC
4904
4904
49FC
7904
4904
49FC
4921
7933
4916
491C
4908
790C
01E6
0703
ENDCHAR
STARTCHAR 3464
ENCODING 23721
SWIDTH 96 0
DWIDTH 16 0
BBX 16 16 0 -2
BITMAP
0100
2104
2104
2104
3FFC
0000
0000
FFFF
0400
0800
1FFC
2804
C804
0804
0804
0FFC
ENDCHAR
STARTCHAR 3465
ENCODING 32747
SWIDTH 96 0
DWIDTH 16 0
BBX 16 16 0 -2
BITMAP
0000
F7BE
1080
9480
5280
1080
52FF
8494
1014
7F14
4114
4114
7F14
4135
4125
7F63
ENDCHAR
STARTCHAR 3466
ENCODING 36107
SWIDTH 96 0
DWIDTH 16 0
BBX 16 16 0 -2
BITMAP
7FFF
4488
49FF
5B10
6DFE
4910
49FE
4910
47FF
4404
47FC
4404
47FC
C404
87FC
1C07
ENDCHAR
STARTCHAR 3467
ENCODING 38593
SWIDTH 96 0
DWIDTH 16 0
BBX 16 16 0 -2
BITMAP
0000
3FFF
2000
2244
2248
24FF
2590
2E90
34FE
2490
2490
24FE
6490
4490
C4FF
0400
ENDCHAR
STARTCHAR 3468
ENCODING 38929
SWIDTH 96 0
DWIDTH 16 0
BBX 16 16 0 -2
BITMAP
0000
7DFF
0010
00FE
0082
FE82
28FE
2882
2882
28FE
2882
2A82
6CFE
4844
C0C6
0183
ENDCHAR
STARTCHAR 3469
ENCODING 38996
SWIDTH 96 0
DWIDTH 16 0
BBX 16 16 0 -2
BITMAP
0800
08FF
7F10
227E
1442
7F42
447E
4C42
5A42
467E
4C42
5942
437E
C624
8C66
38C3
ENDCHAR
STARTCHAR 346a
ENCODING 39000
SWIDTH 96 0
DWIDTH 16 0
BBX 16 16 0 -2
BITMAP
0000
7F7F
4408
5F3E
5122
5122
5F3E
5122
5122
5F3E
4422
5522
D53E
B594
A4B6
0C63
ENDCHAR
STARTCHAR 346b
ENCODING 20225
SWIDTH 96 0
DWIDTH 16 0
BBX 16 16 0 -2
BITMAP
0100
0380
02C0
0660
0C30
189C
3087
E880
08F8
0880
0880
0880
0880
0880
FFFF
0000
ENDCHAR
STARTCHAR 346c
ENCODING 20238
SWIDTH 96 0
DWIDTH 16 0
BBX 16 16 0 -2
BITMAP
0820
0820
1820
17FF
3020
3020
53FC
9104
118C
10D8
1070
1020
1070
10D8
118C
1707
ENDCHAR
STARTCHAR 346d
ENCODING 21361
SWIDTH 96 0
DWIDTH 16 0
BBX 16 16 0 -2
BITMAP
0800
0FF0
1820
2040
FFFF
2000
2000
27F8
2408
2408
2408
2438
6400
4402
C606
03FC
ENDCHAR
STARTCHAR 346e
ENCODING 21916
SWIDTH 96 0
DWIDTH 16 0
BBX 16 16 0 -2
BITMAP
0100
7FFE
0100
3FFC
0000
1FF8
1008
1FF8
0810
0420
FFFF
0000
1FF8
1008
1008
1FF8
ENDCHAR
STARTCHAR 346f
ENCODING 22120
SWIDTH 96 0
DWIDTH 16 0
BBX 16 16 0 -2
BITMAP
0000
7E7E
4242
4242
4242
7E7E
0100
FFFF
0420
1818
E007
7E7E
4242
4242
4242
7E7E
ENDCHAR
STARTCHAR 3470
ENCODING 22522
SWIDTH 96 0
DWIDTH 16 0
BBX 16 16 0 -2
BITMAP
0810
0810
7FFE
0810
0FF0
0810
0FF0
0810
FFFF
0810
1108
2FF4
C103
0100
FFFF
0000
ENDCHAR
STARTCHAR 3471
ENCODING 22855
SWIDTH 96 0
DWIDTH 16 0
BBX 16 16 0 -2
BITMAP
0100
0100
7FFE
0240
0420
1818
0000
FFFF
0008
1F88
1088
1088
1088
1F88
0008
0038
ENDCHAR
STARTCHAR 3472
ENCODING 23305
SWIDTH 96 0
DWIDTH 16 0
BBX 16 16 0 -2
BITMAP
2010
21FF
2010
FCFE
2400
24FE
2482
64FE
4C44
4828
E9FF
1800
14FE
3482
6082
C0FE
ENDCHAR
STARTCHAR 3473
ENCODING 23492
SWIDTH 96 0
DWIDTH 16 0
BBX 16 16 0 -2
BITMAP
0100
0100
7FFE
4002
4102
3FFC
0240
0C30
0000
FFFF
0008
1F88
1088
1088
1F88
0038
ENDCHAR
STARTCHAR 3474
ENCODING 23696
SWIDTH 96 0
DWIDTH 16 0
BBX 16 16 0 -2
BITMAP
0020
2020
27FF
A820
A820
ABFC
A904
A98C
A888
A8D8
A870
F820
0070
00D8
018C
0707
ENDCHAR
STARTCHAR 3475
ENCODING 24076
SWIDTH 96 0
DWIDTH 16 0
BBX 16 16 0 -2
BITMAP
1C0C
0738
01E0
0F38
7A0C
0200
FFFF
0440
0840
1FFE
2842
C842
0842
0842
084E
0040
ENDCHAR
STARTCHAR 3476
ENCODING 24190
SWIDTH 96 0
DWIDTH 16 0
BBX 16 16 0 -2
BITMAP
1088
3098
64B2
2894
1088
1492
3EBF
6289
0084
3FFF
2040
3864
2C28
6431
40DB
C30E
ENDCHAR
STARTCHAR 3477
ENCODING 24524
SWIDTH 96 0
DWIDTH 16 0
BBX 16 16 0 -2
BITMAP
0000
3FF8
0008
0008
3FF8
2000
2002
3006
1FFC
0000
0180
24C6
2443
6409
4618
C3F0
ENDCHAR
STARTCHAR 3478
ENCODING 25582
SWIDTH 96 0
DWIDTH 16 0
BBX 16 16 0 -2
BITMAP
2000
27FF
2401
2421
FBFE
2020
23FE
2222
3BFE
E222
2222
23FE
2020
27FF
2020
6020
ENDCHAR
STARTCHAR 3479
ENCODING 26426
SWIDTH 96 0
DWIDTH 16 0
BBX 16 16 0 -2
BITMAP
1000
10F8
1088
FE88
1088
1088
3888
3488
3488
5088
5088
9088
1188
1109
1309
1607
ENDCHAR
STARTCHAR 347a
ENCODING 26071
SWIDTH 96 0
DWIDTH 16 0
BBX 16 16 0 -2
BITMAP
1080
1080
11FF
FD00
2244
21FF
3C44
247C
2444
247C
2444
25FF
6400
4C44
48C6
D983
ENDCHAR
STARTCHAR 347b
ENCODING 26082
SWIDTH 96 0
DWIDTH 16 0
BBX 16 16 0 -2
BITMAP
0000
7EFE
4248
4248
7E48
4248
4248
7FFF
4008
4018
4418
4438
5E28
7269
C0C9
0187
ENDCHAR
STARTCHAR 347c
ENCODING 26399
SWIDTH 96 0
DWIDTH 16 0
BBX 16 16 0 -2
BITMAP
2200
223E
FFA2
2222
2222
3E3E
2222
2222
3E22
223E
2222
FFA2
0022
2662
6342
C0CE
ENDCHAR
STARTCHAR 347d
ENCODING 26827
SWIDTH 96 0
DWIDTH 16 0
BBX 16 16 0 -2
BITMAP
1084
1084
13FF
FC84
1084
10FC
3884
3484
34FC
5084
5084
93FF
1000
1084
1186
1303
ENDCHAR
STARTCHAR 347e
ENCODING 26820
SWIDTH 96 0
DWIDTH 16 0
BBX 16 16 0 -2
BITMAP
0100
FFFF
0410
0808
3FF4
0000
1108
FFFF
1108
1FF8
0100
FFFF
0520
1D38
F10F
0100
ENDCHAR
STARTCHAR 3521
ENCODING 27231
SWIDTH 96 0
DWIDTH 16 0
BBX 16 16 0 -2
BITMAP
2122
2224
26AD
F922
2225
22AF
67A4
7022
6BFF
AA20
A212
2314
2288
2695
2427
2CC2
ENDCHAR
STARTCHAR 3522
ENCODING 24112
SWIDTH 96 0
DWIDTH 16 0
BBX 16 16 0 -2
BITMAP
1000
11FC
5004
51FC
5004
51FC
5000
57FF
5421
5421
13FE
1222
3222
2222
6226
C020
ENDCHAR
STARTCHAR 3523
ENCODING 27589
SWIDTH 96 0
DWIDTH 16 0
BBX 16 16 0 -2
BITMAP
0800
083C
7F24
2224
1424
FFA4
1047
2900
CA7E
1422
2636
CD1C
1488
241C
C436
18E3
ENDCHAR
STARTCHAR 3524
ENCODING 27671
SWIDTH 96 0
DWIDTH 16 0
BBX 16 16 0 -2
BITMAP
1000
1000
3FFE
2000
6FF8
C000
3FF8
0008
0048
18C8
0D88
0708
0D8D
18C5
3047
E002
ENDCHAR
STARTCHAR 3525
ENCODING 27773
SWIDTH 96 0
DWIDTH 16 0
BBX 16 16 0 -2
BITMAP
0200
6200
37FE
1400
0DF8
C000
67F8
2008
0008
1008
1008
3008
200D
6005
4007
C002
ENDCHAR
STARTCHAR 3526
ENCODING 30079
SWIDTH 96 0
DWIDTH 16 0
BBX 16 16 0 -2
BITMAP
1088
3098
64B2
2894
1088
2492
7EBF
0289
FFFF
0040
7F62
4924
7F28
4911
7F2D
00C7
ENDCHAR
STARTCHAR 3527
ENCODING 31048
SWIDTH 96 0
DWIDTH 16 0
BBX 16 16 0 -2
BITMAP
1006
101C
10F0
FC80
0480
0CFF
0888
1888
3088
7C88
D688
1088
1188
1108
1308
1008
ENDCHAR
STARTCHAR 3528
ENCODING 23395
SWIDTH 96 0
DWIDTH 16 0
BBX 16 16 0 -2
BITMAP
0018
00F0
3F80
0100
FFFF
0520
0D30
391C
E007
1FF0
0060
0180
FFFF
0100
0100
0700
ENDCHAR
STARTCHAR 3529
ENCODING 31232
SWIDTH 96 0
DWIDTH 16 0
BBX 16 16 0 -2
BITMAP
04C4
1C6C
F038
106C
11C6
FC20
13FF
3840
3490
31FE
5292
5492
9092
1092
1096
1010
ENDCHAR
STARTCHAR 352a
ENCODING 32000
SWIDTH 96 0
DWIDTH 16 0
BBX 16 16 0 -2
BITMAP
1000
30FE
6002
C402
6C02
1802
30FE
6480
FE80
1280
1080
5480
5681
D2C3
907E
1000
ENDCHAR
STARTCHAR 352b
ENCODING 24509
SWIDTH 96 0
DWIDTH 16 0
BBX 16 16 0 -2
BITMAP
1108
3548
2548
655F
C7D2
1132
320A
268A
610E
E244
27C4
2104
254E
254A
295B
2111
ENDCHAR
STARTCHAR 352c
ENCODING 35215
SWIDTH 96 0
DWIDTH 16 0
BBX 16 16 0 -2
BITMAP
1000
10FE
1082
FE82
10FE
1082
1082
FEFE
1082
1082
38FE
2C48
6648
40C9
C189
0307
ENDCHAR
STARTCHAR 352d
ENCODING 35352
SWIDTH 96 0
DWIDTH 16 0
BBX 16 16 0 -2
BITMAP
0000
7CFE
0002
FE02
0002
7C02
0002
00FE
7C80
0080
0080
7C80
4480
4481
44C3
7C7E
ENDCHAR
STARTCHAR 352e
ENCODING 36020
SWIDTH 96 0
DWIDTH 16 0
BBX 16 16 0 -2
BITMAP
0100
1FF8
1108
1FF8
0100
FFFF
0000
1FF8
1008
1FF8
1008
1FF8
1008
1FF8
0810
700E
ENDCHAR
STARTCHAR 352f
ENCODING 36215
SWIDTH 96 0
DWIDTH 16 0
BBX 16 16 0 -2
BITMAP
0800
087E
7F02
0802
0802
0802
FF7E
0840
4840
4F40
4841
4863
683E
5800
CE00
83FF
ENDCHAR
STARTCHAR 3530
ENCODING 36556
SWIDTH 96 0
DWIDTH 16 0
BBX 16 16 0 -2
BITMAP
0820
0820
FFA0
0820
7FFC
4924
4924
7F24
4924
4924
7F24
0824
FFA4
0865
0845
08C3
ENDCHAR
STARTCHAR 3531
ENCODING 36637
SWIDTH 96 0
DWIDTH 16 0
BBX 16 16 0 -2
BITMAP
1000
11FF
9501
D511
54FE
1010
10FE
FE92
28FE
2892
2892
2AFE
6C10
49FF
C010
0010
ENDCHAR
STARTCHAR 3532
ENCODING 39138
SWIDTH 96 0
DWIDTH 16 0
BBX 16 16 0 -2
BITMAP
0800
1C7C
1644
3344
2844
7E44
A244
3E44
2244
3E44
2044
2444
2444
26C5
3A85
6183
ENDCHAR
STARTCHAR 3533
ENCODING 39438
SWIDTH 96 0
DWIDTH 16 0
BBX 16 16 0 -2
BITMAP
0010
7F10
48FF
4810
7E28
4844
4800
7EFF
4802
483A
7FAA
00AA
AABA
AA82
8182
030E
ENDCHAR
STARTCHAR 3534
ENCODING 39740
SWIDTH 96 0
DWIDTH 16 0
BBX 16 16 0 -2
BITMAP
0100
0200
3FFC
2104
2104
3FFC
2104
2104
3FFC
0490
0494
0CA6
08BA
1881
30C3
E07E
ENDCHAR
STARTCHAR 3535
ENCODING 20096
SWIDTH 96 0
DWIDTH 16 0
BBX 16 16 0 -2
BITMAP
0400
0FE0
1040
3FF8
D108
1FF8
1108
1FF8
0100
3FFC
2104
3FFC
2104
3FFD
0101
00FF
ENDCHAR
STARTCHAR 3536
ENCODING 20605
SWIDTH 96 0
DWIDTH 16 0
BBX 16 16 0 -2
BITMAP
0A20
0920
1820
17FC
3044
2048
60FE
A182
2104
23FF
2601
2C09
22A5
22A3
2402
200E
ENDCHAR
STARTCHAR 3537
ENCODING 20736
SWIDTH 96 0
DWIDTH 16 0
BBX 16 16 0 -2
BITMAP
1208
1110
37FE
2040
23FC
6040
6FFF
A004
2792
2110
2FFF
2112
2194
2F09
2115
2763
ENDCHAR
STARTCHAR 3538
ENCODING 22931
SWIDTH 96 0
DWIDTH 16 0
BBX 16 16 0 -2
BITMAP
2010
2010
21FF
2010
FC10
24FE
2442
6446
4464
4C2C
E838
1810
1438
326C
60C6
C183
ENDCHAR
STARTCHAR 3539
ENCODING 23452
SWIDTH 96 0
DWIDTH 16 0
BBX 16 16 0 -2
BITMAP
0100
0100
7FFE
4002
4002
0FF0
0810
0810
0FF0
0810
0810
0FF0
0810
0810
FFFF
0000
ENDCHAR
STARTCHAR 353a
ENCODING 25135
SWIDTH 96 0
DWIDTH 16 0
BBX 16 16 0 -2
BITMAP
0814
0F12
0810
7F93
489E
4E70
7892
4F92
4016
4A14
6A9C
5B08
4A1C
4A15
8FB7
3862
ENDCHAR
STARTCHAR 353b
ENCODING 25216
SWIDTH 96 0
DWIDTH 16 0
BBX 16 16 0 -2
BITMAP
2020
2020
2020
27FF
F820
2020
23FC
2104
398C
E0D8
2070
2020
2070
20D8
218C
6707
ENDCHAR
STARTCHAR 353c
ENCODING 25836
SWIDTH 96 0
DWIDTH 16 0
BBX 16 16 0 -2
BITMAP
2400
24BF
2702
2414
F488
23BF
2409
278A
2A28
F22E
2FA8
2228
2328
22B8
246C
68C7
ENDCHAR
STARTCHAR 353d
ENCODING 27450
SWIDTH 96 0
DWIDTH 16 0
BBX 16 16 0 -2
BITMAP
2220
2220
FFA0
223F
2261
3E53
22D2
2210
3E10
2210
2238
FFA8
002C
2664
6346
C0C3
ENDCHAR
STARTCHAR 353e
ENCODING 29344
SWIDTH 96 0
DWIDTH 16 0
BBX 16 16 0 -2
BITMAP
1104
5088
53FE
5020
7DFC
D020
97FF
1004
1392
1910
77FF
D112
11D4
1709
1115
1323
ENDCHAR
STARTCHAR 353f
ENCODING 30097
SWIDTH 96 0
DWIDTH 16 0
BBX 16 16 0 -2
BITMAP
4000
4EFE
7804
4028
4210
3EFF
2012
3E14
4850
885E
7F50
0850
1CD0
36B0
619C
C307
ENDCHAR
STARTCHAR 3540
ENCODING 31047
SWIDTH 96 0
DWIDTH 16 0
BBX 16 16 0 -2
BITMAP
1006
101C
11F0
FD10
0510
0D10
0910
19FF
3110
7D18
D708
1108
110C
1105
11E7
1702
ENDCHAR
STARTCHAR 3541
ENCODING 32681
SWIDTH 96 0
DWIDTH 16 0
BBX 16 16 0 -2
BITMAP
0810
0420
7FFE
0100
3FFC
0100
FFFF
0008
7E44
0840
FFFF
0844
0F28
F811
086D
3987
ENDCHAR
STARTCHAR 3542
ENCODING 34811
SWIDTH 96 0
DWIDTH 16 0
BBX 16 16 0 -2
BITMAP
2104
2088
23FE
F820
A9FC
A820
ABFF
A804
FBD2
2090
23FF
2892
28D4
3B89
E895
01A3
ENDCHAR
STARTCHAR 3543
ENCODING 35516
SWIDTH 96 0
DWIDTH 16 0
BBX 16 16 0 -2
BITMAP
0020
7820
01FE
FD02
0102
78FC
0084
0084
78FC
0084
0084
78FC
4884
4884
4884
7BFF
ENDCHAR
STARTCHAR 3544
ENCODING 35696
SWIDTH 96 0
DWIDTH 16 0
BBX 16 16 0 -2
BITMAP
0104
7888
03FE
FC20
01FC
7820
03FF
0004
7BD2
0090
03FF
7892
48D4
4B89
4895
79A3
ENDCHAR
STARTCHAR 3545
ENCODING 25516
SWIDTH 96 0
DWIDTH 16 0
BBX 16 16 0 -2
BITMAP
2100
2100
2100
23FF
FA01
2441
2249
2151
37FD
E0C1
21F1
2159
2349
2643
2042
600E
ENDCHAR
STARTCHAR 3546
ENCODING 33738
SWIDTH 96 0
DWIDTH 16 0
BBX 16 16 0 -2
BITMAP
0420
0420
FFFF
0420
1000
1FFE
3002
6922
C542
3FFA
0302
07C2
0D62
1936
6104
001C
ENDCHAR
STARTCHAR 3547
ENCODING 38816
SWIDTH 96 0
DWIDTH 16 0
BBX 16 16 0 -2
BITMAP
2880
2880
FEFF
2901
2A21
3925
10A9
7DFD
5421
5471
7C69
10A5
FEA1
1123
1022
100E
ENDCHAR
STARTCHAR 3548
ENCODING 21513
SWIDTH 96 0
DWIDTH 16 0
BBX 16 16 0 -2
BITMAP
0100
0100
0100
FFFF
0100
0100
0100
7FFE
0000
0000
1FF8
1008
1008
1008
1008
1FF8
ENDCHAR
STARTCHAR 3549
ENCODING 21507
SWIDTH 96 0
DWIDTH 16 0
BBX 16 16 0 -2
BITMAP
0100
0100
F100
93FF
9200
9600
9DFC
9018
9030
9060
90C0
9180
F300
0201
0303
01FE
ENDCHAR
STARTCHAR 354a
ENCODING 21931
SWIDTH 96 0
DWIDTH 16 0
BBX 16 16 0 -2
BITMAP
0200
0FBE
E212
A212
AF92
A212
A232
A3A2
AE6E
A000
E080
1FFF
0110
0318
060C
1C07
ENDCHAR
STARTCHAR 354b
ENCODING 26708
SWIDTH 96 0
DWIDTH 16 0
BBX 16 16 0 -2
BITMAP
1010
1010
1010
FDFF
1010
1010
3810
34FE
3400
5000
50FE
9082
1082
1082
1082
10FE
ENDCHAR
STARTCHAR 354c
ENCODING 27224
SWIDTH 96 0
DWIDTH 16 0
BBX 16 16 0 -2
BITMAP
1000
11FE
1044
FC28
13FF
1852
3494
3130
33FF
5249
5289
937F
1249
1249
1279
1203
ENDCHAR
STARTCHAR 354d
ENCODING 35440
SWIDTH 96 0
DWIDTH 16 0
BBX 16 16 0 -2
BITMAP
0010
7810
0010
FDFF
0010
7810
0010
00FE
7800
0000
00FE
7882
4882
4882
4882
78FE
ENDCHAR
STARTCHAR 354e
ENCODING 30759
SWIDTH 96 0
DWIDTH 16 0
BBX 16 16 0 -2
BITMAP
0010
FE10
1010
1010
101F
3010
2010
3C10
6410
64FE
A482
2482
2482
2482
3C82
00FE
ENDCHAR
STARTCHAR 354f
ENCODING 26485
SWIDTH 96 0
DWIDTH 16 0
BBX 16 16 0 -2
BITMAP
1040
1040
1040
FCFE
1090
1190
3810
3410
35FF
5010
5010
9010
1010
1010
1010
1010
ENDCHAR
STARTCHAR 3550
ENCODING 40653
SWIDTH 96 0
DWIDTH 16 0
BBX 16 16 0 -2
BITMAP
0018
00F0
3F80
0100
FFFF
0520
1918
E387
0EE0
3838
E10F
1930
07C0
1938
E107
0700
ENDCHAR
STARTCHAR 3551
ENCODING 21364
SWIDTH 96 0
DWIDTH 16 0
BBX 16 16 0 -2
BITMAP
0800
083E
7F22
0822
0822
0822
0822
FFA2
1022
3222
2322
6122
4FAE
F8A0
0020
0020
ENDCHAR
STARTCHAR 3552
ENCODING 23458
SWIDTH 96 0
DWIDTH 16 0
BBX 16 16 0 -2
BITMAP
0100
0100
7FFE
4402
47F2
0820
1440
6380
06E0
1C38
F00F
1FF8
1008
1008
1008
1FF8
ENDCHAR
STARTCHAR 3553
ENCODING 33050
SWIDTH 96 0
DWIDTH 16 0
BBX 16 16 0 -2
BITMAP
0080
788F
4889
4BE9
4889
7889
4889
4FF9
4909
7909
4B29
4A29
4AE9
4FAB
C808
9808
ENDCHAR
STARTCHAR 3554
ENCODING 34384
SWIDTH 96 0
DWIDTH 16 0
BBX 16 16 0 -2
BITMAP
0080
00FE
0080
3FFF
2001
2102
21F8
2F00
2102
20FE
2000
27FE
6400
47FE
C400
07FE
ENDCHAR
STARTCHAR 3555
ENCODING 36870
SWIDTH 96 0
DWIDTH 16 0
BBX 16 16 0 -2
BITMAP
0104
618C
3088
17FF
0020
0222
0222
F222
1222
13FE
1020
1060
10C0
3180
6800
C7FF
ENDCHAR
STARTCHAR 3556
ENCODING 19992
SWIDTH 96 0
DWIDTH 16 0
BBX 16 16 0 -2
BITMAP
0018
00F0
1F80
1000
1000
1000
1FFE
1010
1010
1010
1010
1010
1010
1010
FFFF
0000
ENDCHAR
STARTCHAR 3557
ENCODING 20037
SWIDTH 96 0
DWIDTH 16 0
BBX 16 16 0 -2
BITMAP
0200
0200
07E0
0420
0C20
1860
3040
60C0
0080
01C0
0340
0660
0C30
1818
300C
E007
ENDCHAR
STARTCHAR 3558
ENCODING 20167
SWIDTH 96 0
DWIDTH 16 0
BBX 16 16 0 -2
BITMAP
0880
0880
1880
1080
37F8
2088
6088
A088
2088
2088
2088
2188
2108
2309
2609
2C07
ENDCHAR
STARTCHAR 3559
ENCODING 20241
SWIDTH 96 0
DWIDTH 16 0
BBX 16 16 0 -2
BITMAP
0840
0840
1840
1040
3FFF
2150
6150
A150
2358
2248
264C
2C46
3843
2040
2040
2040
ENDCHAR
STARTCHAR 355a
ENCODING 21450
SWIDTH 96 0
DWIDTH 16 0
BBX 16 16 0 -2
BITMAP
0000
7FF0
0410
0430
0420
0E7C
0A04
0B0C
0908
1998
10F0
1060
30F0
2198
630C
CE07
ENDCHAR
STARTCHAR 355b
ENCODING 21560
SWIDTH 96 0
DWIDTH 16 0
BBX 16 16 0 -2
BITMAP
0000
03FC
F884
888C
8888
889E
8882
89C6
8944
896C
8B38
FA10
0638
0C6C
18C6
0383
ENDCHAR
STARTCHAR 355c
ENCODING 23470
SWIDTH 96 0
DWIDTH 16 0
BBX 16 16 0 -2
BITMAP
0100
0100
7FFE
4002
4002
1FF8
1008
1008
1FF8
0100
0200
3FFC
2004
2004
2004
3FFC
ENDCHAR
STARTCHAR 355d
ENCODING 24339
SWIDTH 96 0
DWIDTH 16 0
BBX 16 16 0 -2
BITMAP
0000
7FFC
0004
0004
0004
3FFC
2000
2000
2000
3FFE
0002
0002
0006
0004
000C
0078
ENDCHAR
STARTCHAR 355e
ENCODING 24613
SWIDTH 96 0
DWIDTH 16 0
BBX 16 16 0 -2
BITMAP
0400
0FF0
1820
3040
FFFC
0004
0004
3FFC
0004
0004
3FFC
0080
24C6
244B
6619
C3F0
ENDCHAR
STARTCHAR 355f
ENCODING 25937
SWIDTH 96 0
DWIDTH 16 0
BBX 16 16 0 -2
BITMAP
0A20
0920
0820
FF3F
0824
4964
6B44
2AEC
0828
0838
1E10
3B10
6938
C86C
08C6
3983
ENDCHAR
STARTCHAR 3560
ENCODING 26429
SWIDTH 96 0
DWIDTH 16 0
BBX 16 16 0 -2
BITMAP
1000
13FF
1020
FC20
1060
1040
38FE
3402
3402
5002
5002
9006
1004
1004
100C
1038
ENDCHAR
STARTCHAR 3561
ENCODING 27714
SWIDTH 96 0
DWIDTH 16 0
BBX 16 16 0 -2
BITMAP
0130
0118
0108
FFFF
0100
2104
310C
1918
09B0
01C0
0560
0D30
1918
710C
C107
0700
ENDCHAR
STARTCHAR 3562
ENCODING 27762
SWIDTH 96 0
DWIDTH 16 0
BBX 16 16 0 -2
BITMAP
0000
67FC
3084
108C
0088
C09E
6082
21C6
0144
116C
1138
3310
2238
666C
4CC6
C183
ENDCHAR
STARTCHAR 3563
ENCODING 27875
SWIDTH 96 0
DWIDTH 16 0
BBX 16 16 0 -2
BITMAP
0020
6020
3020
13FE
0000
C104
6104
2104
018C
1088
1088
3098
2010
6010
47FF
C000
ENDCHAR
STARTCHAR 3564
ENCODING 28792
SWIDTH 96 0
DWIDTH 16 0
BBX 16 16 0 -2
BITMAP
0400
0FE0
1860
70C0
01E0
0730
1C1C
F007
0100
1104
310C
6398
06C0
0C60
3838
E00F
ENDCHAR
STARTCHAR 3565
ENCODING 29699
SWIDTH 96 0
DWIDTH 16 0
BBX 16 16 0 -2
BITMAP
0024
0026
F822
27FF
2020
2222
2326
F92C
2020
2030
20B8
21AC
3B26
E623
0020
00E0
ENDCHAR
STARTCHAR 3566
ENCODING 31350
SWIDTH 96 0
DWIDTH 16 0
BBX 16 16 0 -2
BITMAP
0100
0100
7FFE
4442
4C42
1840
707E
0200
0200
7FF0
0210
0610
0410
0C11
1813
700E
ENDCHAR
STARTCHAR 3567
ENCODING 31406
SWIDTH 96 0
DWIDTH 16 0
BBX 16 16 0 -2
BITMAP
0100
0100
7FFE
4422
183F
E400
3F7E
2102
3F7E
2140
3F7E
2102
FF02
0902
3106
C71C
ENDCHAR
STARTCHAR 3568
ENCODING 31496
SWIDTH 96 0
DWIDTH 16 0
BBX 16 16 0 -2
BITMAP
1020
1020
3F7F
6890
C408
0000
7FF8
0410
043E
0E0C
0B18
19B0
30E0
61B0
C71C
1C07
ENDCHAR
STARTCHAR 3569
ENCODING 32026
SWIDTH 96 0
DWIDTH 16 0
BBX 16 16 0 -2
BITMAP
1000
31FC
6044
C44C
6C48
185E
3042
64E2
FEA6
12B4
109C
5988
551C
D334
9066
10C3
ENDCHAR
STARTCHAR 356a
ENCODING 31998
SWIDTH 96 0
DWIDTH 16 0
BBX 16 16 0 -2
BITMAP
1004
3044
6044
C444
6C44
1844
3044
6444
FE44
1247
107C
55C4
5604
D204
9004
1004
ENDCHAR
STARTCHAR 356b
ENCODING 32102
SWIDTH 96 0
DWIDTH 16 0
BBX 16 16 0 -2
BITMAP
1010
3038
6028
C46C
6CC6
1983
3000
647C
FE00
1200
10FE
5482
5682
D282
9082
10FE
ENDCHAR
STARTCHAR 356c
ENCODING 26087
SWIDTH 96 0
DWIDTH 16 0
BBX 16 16 0 -2
BITMAP
0000
43FE
4202
4202
4202
4202
4202
43FE
4202
4202
4202
4202
4202
4202
43FE
0000
ENDCHAR
STARTCHAR 356d
ENCODING 29275
SWIDTH 96 0
DWIDTH 16 0
BBX 16 16 0 -2
BITMAP
0100
1100
1100
1100
3FFC
6100
C100
0100
0100
FFFF
0100
0100
0100
0100
0100
0100
ENDCHAR
STARTCHAR 356e
ENCODING 21435
SWIDTH 96 0
DWIDTH 16 0
BBX 16 16 0 -2
BITMAP
0100
0100
0100
3FFC
0100
0100
0100
0100
FFFF
0200
0610
0418
0C08
08FC
1F84
7006
ENDCHAR
STARTCHAR 356f
ENCODING 23621
SWIDTH 96 0
DWIDTH 16 0
BBX 16 16 0 -2
BITMAP
0000
3FFE
2002
2002
3FFE
2040
2040
3FFF
2040
2040
2FFE
2802
6802
4802
C802
0FFE
ENDCHAR
STARTCHAR 3570
ENCODING 24040
SWIDTH 96 0
DWIDTH 16 0
BBX 16 16 0 -2
BITMAP
0000
3FFE
2000
2000
2000
3FFC
2004
2004
2004
3FFC
2000
2000
2000
2000
3FFE
0000
ENDCHAR
STARTCHAR 3571
ENCODING 25298
SWIDTH 96 0
DWIDTH 16 0
BBX 16 16 0 -2
BITMAP
1000
11FF
1100
1100
FD00
11FE
1102
1102
1D02
F1FE
1100
1100
1100
1100
11FF
7000
ENDCHAR
STARTCHAR 3572
ENCODING 25312
SWIDTH 96 0
DWIDTH 16 0
BBX 16 16 0 -2
BITMAP
2400
243C
27A4
24A4
F4A4
2CA4
29A4
2524
2524
3724
E225
2225
2743
2580
2CE0
683F
ENDCHAR
STARTCHAR 3573
ENCODING 25369
SWIDTH 96 0
DWIDTH 16 0
BBX 16 16 0 -2
BITMAP
2204
330C
1108
FFFF
0420
0C30
381C
E0E7
0F80
0100
3FFC
0100
FFFF
0100
0100
0700
ENDCHAR
STARTCHAR 3574
ENCODING 28192
SWIDTH 96 0
DWIDTH 16 0
BBX 16 16 0 -2
BITMAP
0000
33FE
1A00
C3FC
6204
0204
1BFC
7200
C3FF
0100
FFFF
0540
0D60
3938
E10F
0100
ENDCHAR
STARTCHAR 3575
ENCODING 34394
SWIDTH 96 0
DWIDTH 16 0
BBX 16 16 0 -2
BITMAP
0080
00FE
0080
3FFF
2101
21FA
2F00
2102
20FE
2000
2110
2912
6D16
4514
C110
1FFF
ENDCHAR
STARTCHAR 3576
ENCODING 35377
SWIDTH 96 0
DWIDTH 16 0
BBX 16 16 0 -2
BITMAP
0040
7C40
0040
FEFE
0090
7D10
0010
0010
7DFF
0010
0010
7C10
4410
4410
4410
7C10
ENDCHAR
STARTCHAR 3577
ENCODING 36317
SWIDTH 96 0
DWIDTH 16 0
BBX 16 16 0 -2
BITMAP
0000
7CFF
4480
4480
4480
44FE
7C82
1082
5082
5CFE
5080
5080
5080
5C80
70FF
C000
ENDCHAR
STARTCHAR 3578
ENCODING 37624
SWIDTH 96 0
DWIDTH 16 0
BBX 16 16 0 -2
BITMAP
1000
38FE
2C82
6682
40FE
FC88
1088
10FF
FE88
1088
94BE
D4A2
51A2
1D22
7322
C03E
ENDCHAR
STARTCHAR 3579
ENCODING 28417
SWIDTH 96 0
DWIDTH 16 0
BBX 16 16 0 -2
BITMAP
0080
6080
31FC
1308
0610
C3FE
6222
2222
03FE
1222
1222
33FE
2000
6292
46DB
CC49
ENDCHAR
STARTCHAR 357a
ENCODING 31142
SWIDTH 96 0
DWIDTH 16 0
BBX 16 16 0 -2
BITMAP
1400
27DE
4912
97D2
2112
65D2
A512
27D6
2C10
0000
3FFC
0000
FFFF
0080
308C
E387
ENDCHAR
STARTCHAR 357b
ENCODING 39770
SWIDTH 96 0
DWIDTH 16 0
BBX 16 16 0 -2
BITMAP
0400
0400
0FF0
1820
3040
FFFC
2104
2104
3FFC
2104
2104
3FFC
0000
2444
6666
C223
ENDCHAR
STARTCHAR 357c
ENCODING 20136
SWIDTH 96 0
DWIDTH 16 0
BBX 16 16 0 -2
BITMAP
0100
0100
FFFF
0000
1FF8
1008
1FF8
0000
7FFE
000C
0030
01C0
0100
0100
0100
0700
ENDCHAR
STARTCHAR 357d
ENCODING 20139
SWIDTH 96 0
DWIDTH 16 0
BBX 16 16 0 -2
BITMAP
0100
0100
FFFF
0000
1FF8
1008
1FF8
0000
3FFC
0018
0060
0180
FFFF
0100
0100
0700
ENDCHAR
STARTCHAR 357e
ENCODING 20140
SWIDTH 96 0
DWIDTH 16 0
BBX 16 16 0 -2
BITMAP
0100
0100
0100
FFFF
0000
1FF8
1008
1008
1008
1FF8
0100
0910
1918
310C
E107
0700
ENDCHAR
STARTCHAR 3621
ENCODING 20379
SWIDTH 96 0
DWIDTH 16 0
BBX 16 16 0 -2
BITMAP
1108
1108
3108
2108
27FE
6108
6108
A108
2108
2108
2FFF
2000
2108
230C
2606
2C03
ENDCHAR
STARTCHAR 3622
ENCODING 20384
SWIDTH 96 0
DWIDTH 16 0
BBX 16 16 0 -2
BITMAP
1040
1040
37FE
2040
2444
664C
6248
A248
2040
2FFF
20A0
21B0
2118
230C
2606
2C03
ENDCHAR
STARTCHAR 3623
ENCODING 20689
SWIDTH 96 0
DWIDTH 16 0
BBX 16 16 0 -2
BITMAP
101C
13F0
3040
2FFF
2108
63FC
6D0B
A1F8
2000
27FE
2402
25FA
250A
25FA
2402
240E
ENDCHAR
STARTCHAR 3624
ENCODING 20807
SWIDTH 96 0
DWIDTH 16 0
BBX 16 16 0 -2
BITMAP
0010
2C34
2664
2344
21C4
2364
2634
2C14
2004
3FFC
0420
0420
0C20
1821
3033
E01E
ENDCHAR
STARTCHAR 3625
ENCODING 31478
SWIDTH 96 0
DWIDTH 16 0
BBX 16 16 0 -2
BITMAP
0810
0810
FFFF
4242
2424
FFFF
0000
7E7E
4242
4242
7E7E
2428
2428
6569
4649
C4C7
ENDCHAR
STARTCHAR 3626
ENCODING 20849
SWIDTH 96 0
DWIDTH 16 0
BBX 16 16 0 -2
BITMAP
0810
0810
0810
0810
7FFE
0810
0810
0810
0810
0810
FFFF
0000
0810
1818
300C
E007
ENDCHAR
STARTCHAR 3627
ENCODING 20982
SWIDTH 96 0
DWIDTH 16 0
BBX 16 16 0 -2
BITMAP
0000
0008
581A
4C12
4632
4362
41C2
41C2
4362
4632
4C1A
580A
4002
4002
7FFE
0000
ENDCHAR
STARTCHAR 3628
ENCODING 21332
SWIDTH 96 0
DWIDTH 16 0
BBX 16 16 0 -2
BITMAP
2040
2040
23FC
2044
20C4
F98C
2318
2000
2208
2FFF
2249
2249
2249
2659
24D3
2DB6
ENDCHAR
STARTCHAR 3629
ENCODING 21281
SWIDTH 96 0
DWIDTH 16 0
BBX 16 16 0 -2
BITMAP
0000
7FFE
4000
4000
4FF8
4080
4080
47F0
4080
4080
4080
5FFC
4000
4000
7FFE
0000
ENDCHAR
STARTCHAR 362a
ENCODING 21375
SWIDTH 96 0
DWIDTH 16 0
BBX 16 16 0 -2
BITMAP
1800
73EF
4229
4A29
4BE9
4A29
4A29
4BE9
4A09
4A09
7A09
CA49
1A49
33EB
6628
C008
ENDCHAR
STARTCHAR 362b
ENCODING 21483
SWIDTH 96 0
DWIDTH 16 0
BBX 16 16 0 -2
BITMAP
0004
0004
7C44
4444
4444
4444
4444
4444
4444
4444
4447
7C7C
01C4
0004
0004
0004
ENDCHAR
STARTCHAR 362c
ENCODING 21932
SWIDTH 96 0
DWIDTH 16 0
BBX 16 16 0 -2
BITMAP
0078
3FC0
0200
FFFF
0420
0FF0
342C
C7E3
0000
7FFE
4002
4FF2
4812
4FF2
4002
400E
ENDCHAR
STARTCHAR 362d
ENCODING 22659
SWIDTH 96 0
DWIDTH 16 0
BBX 16 16 0 -2
BITMAP
2020
2020
27FF
2104
F888
27FF
2000
23FE
2202
23FE
2202
3BFE
E088
0189
0309
0E07
ENDCHAR
STARTCHAR 362e
ENCODING 23777
SWIDTH 96 0
DWIDTH 16 0
BBX 16 16 0 -2
BITMAP
0020
2020
23FE
A820
AA22
AB26
A924
A924
A820
AFFF
A850
F8D8
0088
018C
0306
0603
ENDCHAR
STARTCHAR 362f
ENCODING 24375
SWIDTH 96 0
DWIDTH 16 0
BBX 16 16 0 -2
BITMAP
0080
F884
0984
093E
0BE3
7820
43FE
4222
4222
7A22
0BFE
0820
0822
1822
10FF
7781
ENDCHAR
STARTCHAR 3630
ENCODING 24394
SWIDTH 96 0
DWIDTH 16 0
BBX 16 16 0 -2
BITMAP
0000
F7FF
1000
13FE
1222
73FE
4222
47FF
4000
73FE
1222
13FE
1222
33FE
2000
E7FF
ENDCHAR
STARTCHAR 3631
ENCODING 24623
SWIDTH 96 0
DWIDTH 16 0
BBX 16 16 0 -2
BITMAP
1020
1020
1020
13FE
5820
5420
D420
9020
17FF
1040
1040
10C4
1084
10BE
11E2
1303
ENDCHAR
STARTCHAR 3632
ENCODING 24656
SWIDTH 96 0
DWIDTH 16 0
BBX 16 16 0 -2
BITMAP
01F8
F908
2108
21C8
2168
2128
3909
E309
0607
0000
0180
24C4
2446
640B
4619
C3F0
ENDCHAR
STARTCHAR 3633
ENCODING 24685
SWIDTH 96 0
DWIDTH 16 0
BBX 16 16 0 -2
BITMAP
0420
0420
7FFE
0420
0420
0420
FFFF
0810
1108
2104
C103
110C
1166
3132
6110
0700
ENDCHAR
STARTCHAR 3634
ENCODING 25375
SWIDTH 96 0
DWIDTH 16 0
BBX 16 16 0 -2
BITMAP
2020
2020
23FE
2020
FA22
2326
2124
2124
3820
E7FF
2050
20D8
2088
218C
2306
6603
ENDCHAR
STARTCHAR 3635
ENCODING 25945
SWIDTH 96 0
DWIDTH 16 0
BBX 16 16 0 -2
BITMAP
08A0
08A0
7F20
097F
0A44
FF44
04A4
7E2C
1228
2438
C810
0F38
F828
086C
08C6
3983
ENDCHAR
STARTCHAR 3636
ENCODING 27211
SWIDTH 96 0
DWIDTH 16 0
BBX 16 16 0 -2
BITMAP
201C
23F0
2040
27FF
F888
21FC
268B
70F8
6800
ABFE
A202
22FA
228A
22FA
2202
2206
ENDCHAR
STARTCHAR 3637
ENCODING 27841
SWIDTH 96 0
DWIDTH 16 0
BBX 16 16 0 -2
BITMAP
0000
63FC
3204
1204
0204
C204
6204
23FC
0090
0090
1090
3090
2190
6111
4313
CE0E
ENDCHAR
STARTCHAR 3638
ENCODING 29378
SWIDTH 96 0
DWIDTH 16 0
BBX 16 16 0 -2
BITMAP
0800
8BFE
5020
2020
2020
5020
9020
11FC
3020
3020
5020
9020
1020
1020
37FF
E000
ENDCHAR
STARTCHAR 3639
ENCODING 29421
SWIDTH 96 0
DWIDTH 16 0
BBX 16 16 0 -2
BITMAP
0820
8820
53FE
2020
5222
9326
1924
2924
2820
4FFF
8850
08D8
0888
098C
1B06
7603
ENDCHAR
STARTCHAR 363a
ENCODING 30703
SWIDTH 96 0
DWIDTH 16 0
BBX 16 16 0 -2
BITMAP
401C
43F0
7840
A7FF
A088
21FC
268B
F8F8
2000
23FE
7202
52FA
5A8A
CAFA
8202
0206
ENDCHAR
STARTCHAR 363b
ENCODING 33016
SWIDTH 96 0
DWIDTH 16 0
BBX 16 16 0 -2
BITMAP
7880
4880
49FF
4901
7B01
4851
4955
4925
4925
7955
4955
4905
49FD
4803
C802
980E
ENDCHAR
STARTCHAR 363c
ENCODING 33029
SWIDTH 96 0
DWIDTH 16 0
BBX 16 16 0 -2
BITMAP
0080
3FFC
0304
3C38
1008
FE7F
2211
CC66
0000
3FFC
2004
3FFC
2004
3FFC
2004
201C
ENDCHAR
STARTCHAR 363d
ENCODING 33288
SWIDTH 96 0
DWIDTH 16 0
BBX 16 16 0 -2
BITMAP
0800
1FF0
681E
4812
4BD2
781E
4BD2
4A52
7A5E
4BD2
4812
4812
FFFF
0810
381C
E007
ENDCHAR
STARTCHAR 363e
ENCODING 34126
SWIDTH 96 0
DWIDTH 16 0
BBX 16 16 0 -2
BITMAP
0420
FFFF
0420
1FF8
0200
FFFF
0420
0FF0
342C
C7E3
0000
7FFE
4002
47E2
4422
47E6
ENDCHAR
STARTCHAR 363f
ENCODING 37111
SWIDTH 96 0
DWIDTH 16 0
BBX 16 16 0 -2
BITMAP
2000
67DF
4451
C453
97D2
5456
3454
27D2
6411
4411
F491
1491
35D1
2757
6C10
C010
ENDCHAR
STARTCHAR 3640
ENCODING 37857
SWIDTH 96 0
DWIDTH 16 0
BBX 16 16 0 -2
BITMAP
1010
3810
2DFF
6482
4044
FDFF
1000
10FE
FE82
10FE
9482
D4FE
5048
1C49
70C9
C387
ENDCHAR
STARTCHAR 3641
ENCODING 38911
SWIDTH 96 0
DWIDTH 16 0
BBX 16 16 0 -2
BITMAP
23EF
CA29
53EA
222A
FBE9
1249
23EB
C628
0100
7FFE
0420
FFFF
1008
1FF8
1008
1FF8
ENDCHAR
STARTCHAR 3642
ENCODING 39255
SWIDTH 96 0
DWIDTH 16 0
BBX 16 16 0 -2
BITMAP
23EF
CA29
53EA
222A
FBE9
1249
23EB
C628
0180
0FF0
F81F
0FF0
0810
0FF4
08C8
7F3E
ENDCHAR
STARTCHAR 3643
ENCODING 39514
SWIDTH 96 0
DWIDTH 16 0
BBX 16 16 0 -2
BITMAP
2420
FFBF
2424
7F54
4108
BD14
2523
3FF8
1080
1FF8
1080
1FF8
1080
5FFE
C922
8496
ENDCHAR
STARTCHAR 3644
ENCODING 20208
SWIDTH 96 0
DWIDTH 16 0
BBX 16 16 0 -2
BITMAP
10C0
1180
373F
2421
2421
6421
6421
A421
2421
2421
2421
25A1
2727
2C20
2020
2020
ENDCHAR
STARTCHAR 3645
ENCODING 20957
SWIDTH 96 0
DWIDTH 16 0
BBX 16 16 0 -2
BITMAP
0800
09BE
CF02
6824
2898
0788
087F
0F89
2A0A
3228
2FAE
6228
4528
44B8
C86C
10C7
ENDCHAR
STARTCHAR 3646
ENCODING 23597
SWIDTH 96 0
DWIDTH 16 0
BBX 16 16 0 -2
BITMAP
0100
0100
7FFE
0100
1108
1008
FFFF
1008
1008
0000
7FFE
0420
0420
0C21
1833
F01E
ENDCHAR
STARTCHAR 3647
ENCODING 26241
SWIDTH 96 0
DWIDTH 16 0
BBX 16 16 0 -2
BITMAP
0020
0020
F3FE
9020
9124
9104
97FF
F104
9104
9000
93FE
9088
F088
0189
0309
0E07
ENDCHAR
STARTCHAR 3648
ENCODING 26989
SWIDTH 96 0
DWIDTH 16 0
BBX 16 16 0 -2
BITMAP
2244
324C
1248
FFFF
0810
0420
7FFE
0100
3FFC
0100
FFFF
0520
0D30
391C
E107
0100
ENDCHAR
STARTCHAR 3649
ENCODING 23616
SWIDTH 96 0
DWIDTH 16 0
BBX 16 16 0 -2
BITMAP
0000
3FFC
2004
2004
3FFC
2000
2000
3FFE
2002
27F2
2412
6412
47F2
C006
0004
001C
ENDCHAR
STARTCHAR 364a
ENCODING 26354
SWIDTH 96 0
DWIDTH 16 0
BBX 16 16 0 -2
BITMAP
0440
0440
0440
0440
7FFE
4442
4442
4442
4442
7FFE
4442
4442
4442
4442
7FFE
0000
ENDCHAR
STARTCHAR 364b
ENCODING 26997
SWIDTH 96 0
DWIDTH 16 0
BBX 16 16 0 -2
BITMAP
2000
27FE
2080
F880
21E0
2020
373E
6D22
652A
A524
A76A
2051
21C0
2000
2FFF
2000
ENDCHAR
STARTCHAR 364c
ENCODING 29577
SWIDTH 96 0
DWIDTH 16 0
BBX 16 16 0 -2
BITMAP
0000
7FFE
0100
0100
0100
0100
0100
3FFC
0100
0100
0118
010C
0104
0100
FFFF
0000
ENDCHAR
STARTCHAR 364d
ENCODING 26704
SWIDTH 96 0
DWIDTH 16 0
BBX 16 16 0 -2
BITMAP
1000
13FE
1202
FE02
12FA
1202
3A02
36FA
328A
528A
528A
92FA
1202
1202
1202
120E
ENDCHAR
STARTCHAR 364e
ENCODING 31873
SWIDTH 96 0
DWIDTH 16 0
BBX 16 16 0 -2
BITMAP
1006
921C
D6F0
5410
1010
FC10
1010
11FF
3810
3410
5210
5010
9010
1010
1010
1010
ENDCHAR
STARTCHAR 364f
ENCODING 20677
SWIDTH 96 0
DWIDTH 16 0
BBX 16 16 0 -2
BITMAP
1088
1088
37FF
2088
2000
63FE
6222
A222
23FE
2020
23FE
2020
23FE
2020
2020
27FF
ENDCHAR
STARTCHAR 3650
ENCODING 21220
SWIDTH 96 0
DWIDTH 16 0
BBX 16 16 0 -2
BITMAP
2210
2210
FF90
2210
00FF
7F11
4911
4911
7F11
0811
7F31
0821
7F23
0862
0F42
F8CE
ENDCHAR
STARTCHAR 3651
ENCODING 22343
SWIDTH 96 0
DWIDTH 16 0
BBX 16 16 0 -2
BITMAP
0100
2100
2100
23FE
FA02
2602
21E2
2002
2002
2032
38E2
E382
0006
0004
000C
0038
ENDCHAR
STARTCHAR 3652
ENCODING 24062
SWIDTH 96 0
DWIDTH 16 0
BBX 16 16 0 -2
BITMAP
0100
0100
0100
0100
7FFE
4102
4102
4102
4102
4102
4102
4102
410E
0100
0100
0100
ENDCHAR
STARTCHAR 3653
ENCODING 37670
SWIDTH 96 0
DWIDTH 16 0
BBX 16 16 0 -2
BITMAP
1010
3820
2CFE
6682
40FE
FC82
1082
10FE
FE10
11FF
9511
D511
5111
1D17
7010
C010
ENDCHAR
STARTCHAR 3654
ENCODING 26020
SWIDTH 96 0
DWIDTH 16 0
BBX 16 16 0 -2
BITMAP
000C
0078
3FC0
2000
2000
3FFF
2040
2040
2040
2040
2040
2040
6040
4040
C040
0040
ENDCHAR
STARTCHAR 3655
ENCODING 27427
SWIDTH 96 0
DWIDTH 16 0
BBX 16 16 0 -2
BITMAP
0640
1C40
7040
407F
40C1
7E93
4992
4810
4810
4838
4828
4828
486C
C844
88C6
0983
ENDCHAR
STARTCHAR 3656
ENCODING 27453
SWIDTH 96 0
DWIDTH 16 0
BBX 16 16 0 -2
BITMAP
1040
3840
2C40
667F
40C1
FC93
1192
1010
FE10
1038
9428
D428
506C
1E44
70C6
C183
ENDCHAR
STARTCHAR 3657
ENCODING 29748
SWIDTH 96 0
DWIDTH 16 0
BBX 16 16 0 -2
BITMAP
0000
FE7F
1008
7C3E
1008
1E08
F17F
0380
0EE0
3838
E7CF
0000
1FF8
0030
0060
00C0
ENDCHAR
STARTCHAR 3658
ENCODING 31105
SWIDTH 96 0
DWIDTH 16 0
BBX 16 16 0 -2
BITMAP
0810
0810
FEFF
2854
2C54
6AD6
C993
0000
3FFC
0000
FFFF
0100
1108
310C
E107
0700
ENDCHAR
STARTCHAR 3659
ENCODING 31165
SWIDTH 96 0
DWIDTH 16 0
BBX 16 16 0 -2
BITMAP
0100
0380
0EE0
393C
E7E7
1248
1188
1248
1FF8
0200
7FFE
4402
4C22
49F2
5F12
400E
ENDCHAR
STARTCHAR 365a
ENCODING 31563
SWIDTH 96 0
DWIDTH 16 0
BBX 16 16 0 -2
BITMAP
2040
2040
7EFF
4890
8508
0020
3E20
22FE
2222
3E22
2222
2222
3E22
2262
6242
C6CE
ENDCHAR
STARTCHAR 365b
ENCODING 32202
SWIDTH 96 0
DWIDTH 16 0
BBX 16 16 0 -2
BITMAP
0000
7F7E
4802
7E26
4214
7E08
4814
7F63
0100
0A20
0444
7FFE
0102
0910
391C
E107
ENDCHAR
STARTCHAR 365c
ENCODING 33465
SWIDTH 96 0
DWIDTH 16 0
BBX 16 16 0 -2
BITMAP
0420
0420
FFFF
0420
001C
3FF0
2000
2000
3FFF
2040
2040
2040
6040
4040
C040
0040
ENDCHAR
STARTCHAR 365d
ENCODING 33740
SWIDTH 96 0
DWIDTH 16 0
BBX 16 16 0 -2
BITMAP
0420
0420
FFFF
0420
0000
7FFE
4002
4FE2
4102
5FFA
4542
4522
4912
4102
4002
7FFE
ENDCHAR
STARTCHAR 365e
ENCODING 34943
SWIDTH 96 0
DWIDTH 16 0
BBX 16 16 0 -2
BITMAP
1010
1038
1028
FC6C
0444
0CC6
19BB
1000
3600
787C
D404
1204
100C
1008
1018
1010
ENDCHAR
STARTCHAR 365f
ENCODING 35167
SWIDTH 96 0
DWIDTH 16 0
BBX 16 16 0 -2
BITMAP
2088
2088
27FF
F888
09DC
1AAA
1489
2000
69FC
B000
2BFE
2020
2124
2326
2623
2060
ENDCHAR
STARTCHAR 3660
ENCODING 35641
SWIDTH 96 0
DWIDTH 16 0
BBX 16 16 0 -2
BITMAP
0044
7844
01FF
FC44
0000
78FE
0092
0092
78FE
0010
00FE
7810
48FE
4810
4810
79FF
ENDCHAR
STARTCHAR 3661
ENCODING 36817
SWIDTH 96 0
DWIDTH 16 0
BBX 16 16 0 -2
BITMAP
000C
6038
31E0
1100
0100
01FF
0108
F108
1108
1108
1308
1208
1608
3008
6800
C7FF
ENDCHAR
STARTCHAR 3662
ENCODING 37329
SWIDTH 96 0
DWIDTH 16 0
BBX 16 16 0 -2
BITMAP
0100
0380
06C0
0C60
1830
301C
EFF7
0100
0100
7FFE
0100
2104
310C
1918
0910
FFFF
ENDCHAR
STARTCHAR 3663
ENCODING 21535
SWIDTH 96 0
DWIDTH 16 0
BBX 16 16 0 -2
BITMAP
0020
0070
F850
88D8
898C
8B06
8EFB
8800
8800
89FC
8804
F80C
0008
0018
0010
0030
ENDCHAR
STARTCHAR 3664
ENCODING 37504
SWIDTH 96 0
DWIDTH 16 0
BBX 16 16 0 -2
BITMAP
1000
38FE
2C82
6682
42FE
FC82
1082
10FE
FE91
1093
9496
D498
5088
1E8C
70F6
C383
ENDCHAR
STARTCHAR 3665
ENCODING 20061
SWIDTH 96 0
DWIDTH 16 0
BBX 16 16 0 -2
BITMAP
0400
0400
0400
0400
FFE0
0420
0420
0420
0420
0420
0420
0C20
0820
1821
3033
E01E
ENDCHAR
STARTCHAR 3666
ENCODING 20534
SWIDTH 96 0
DWIDTH 16 0
BBX 16 16 0 -2
BITMAP
0800
0BFC
1A04
1204
33FC
2204
6204
A3FC
2204
2204
23FC
2000
2FFF
2108
230C
2606
ENDCHAR
STARTCHAR 3667
ENCODING 21477
SWIDTH 96 0
DWIDTH 16 0
BBX 16 16 0 -2
BITMAP
0400
0C00
0800
1FFE
3002
6002
CFC2
0842
0842
0842
0842
0FC2
0002
0006
0004
001C
ENDCHAR
STARTCHAR 3668
ENCODING 21306
SWIDTH 96 0
DWIDTH 16 0
BBX 16 16 0 -2
BITMAP
0000
7FFE
4000
4008
4C18
4610
4330
41E0
40C0
41E0
4330
4618
5C08
4000
7FFE
0000
ENDCHAR
STARTCHAR 3669
ENCODING 29399
SWIDTH 96 0
DWIDTH 16 0
BBX 16 16 0 -2
BITMAP
0900
8900
5100
23FE
5202
9602
19F2
2912
2912
4912
8912
09F2
0802
0802
1806
701C
ENDCHAR
STARTCHAR 366a
ENCODING 29590
SWIDTH 96 0
DWIDTH 16 0
BBX 16 16 0 -2
BITMAP
0080
0080
F8F8
2088
2188
2108
2318
F810
2030
2020
2070
2050
38D8
E18C
0306
0603
ENDCHAR
STARTCHAR 366b
ENCODING 30697
SWIDTH 96 0
DWIDTH 16 0
BBX 16 16 0 -2
BITMAP
2000
20FF
2080
7E80
5080
D0FE
1082
FF82
1082
10FE
3880
2C80
6680
4280
C0FF
0000
ENDCHAR
STARTCHAR 366c
ENCODING 33510
SWIDTH 96 0
DWIDTH 16 0
BBX 16 16 0 -2
BITMAP
0810
0810
FFFF
0810
0810
0100
0100
FFFF
0100
0100
1FF8
1008
1008
1008
1008
1FF8
ENDCHAR
STARTCHAR 366d
ENCODING 36527
SWIDTH 96 0
DWIDTH 16 0
BBX 16 16 0 -2
BITMAP
0800
10FF
7E80
4280
42A2
7EB6
4294
429C
7E88
4288
429C
FE94
0AB6
12A2
2280
CEFF
ENDCHAR
STARTCHAR 366e
ENCODING 39366
SWIDTH 96 0
DWIDTH 16 0
BBX 16 16 0 -2
BITMAP
0000
7FBF
4420
4420
7F2A
442A
442A
7F24
4424
4424
7FAA
00AA
AAAA
AAA0
81A0
073F
ENDCHAR
STARTCHAR 366f
ENCODING 39368
SWIDTH 96 0
DWIDTH 16 0
BBX 16 16 0 -2
BITMAP
0006
7F8C
4438
4420
7F20
443F
4424
7F24
4424
4424
7FA4
00A4
AAA4
AAA4
81A4
077F
ENDCHAR
STARTCHAR 3670
ENCODING 39378
SWIDTH 96 0
DWIDTH 16 0
BBX 16 16 0 -2
BITMAP
0020
7F20
443F
4461
7F41
44FD
4425
7F25
4425
4425
7FBD
0081
AA81
AA83
8182
070E
ENDCHAR
STARTCHAR 3671
ENCODING 20855
SWIDTH 96 0
DWIDTH 16 0
BBX 16 16 0 -2
BITMAP
0000
1FF8
1008
1008
1FF8
1008
1008
1FF8
1008
1008
1FF8
0000
FFFF
0810
1818
700E
ENDCHAR
STARTCHAR 3672
ENCODING 24858
SWIDTH 96 0
DWIDTH 16 0
BBX 16 16 0 -2
BITMAP
3FFC
2104
3FFC
2104
3FFC
0100
7FFE
4112
41FA
5F0A
4006
0180
24C6
244B
6619
C3F0
ENDCHAR
STARTCHAR 3673
ENCODING 34398
SWIDTH 96 0
DWIDTH 16 0
BBX 16 16 0 -2
BITMAP
0100
01FC
0100
3FFE
2102
2FF8
2102
20FE
2000
2BF8
2A08
2FFC
6004
5FFF
C208
0C06
ENDCHAR
STARTCHAR 3674
ENCODING 21936
SWIDTH 96 0
DWIDTH 16 0
BBX 16 16 0 -2
BITMAP
0020
0070
F8D8
898C
8F27
89FC
8904
89FC
8904
89FD
8923
F936
0118
010C
01E6
0703
ENDCHAR
STARTCHAR 3675
ENCODING 31354
SWIDTH 96 0
DWIDTH 16 0
BBX 16 16 0 -2
BITMAP
0100
0100
7FFE
4002
4442
0440
0C40
187E
7000
0000
3FFC
0100
0100
0100
FFFF
0000
ENDCHAR
STARTCHAR 3676
ENCODING 20598
SWIDTH 96 0
DWIDTH 16 0
BBX 16 16 0 -2
BITMAP
0800
0BFE
1A22
1222
33FE
2222
6222
A3FE
2020
27FF
2421
2429
243D
25E5
2401
2407
ENDCHAR
STARTCHAR 3677
ENCODING 23507
SWIDTH 96 0
DWIDTH 16 0
BBX 16 16 0 -2
BITMAP
0100
0100
7FFE
4002
5FFA
1108
1FF8
1108
1FF8
0100
7FFE
4102
4122
43F2
5E12
4006
ENDCHAR
STARTCHAR 3678
ENCODING 36935
SWIDTH 96 0
DWIDTH 16 0
BBX 16 16 0 -2
BITMAP
0000
63FC
3244
13FC
0244
0244
03FC
E040
27FE
2442
2452
247A
25CA
6406
5000
CFFF
ENDCHAR
STARTCHAR 3679
ENCODING 38533
SWIDTH 96 0
DWIDTH 16 0
BBX 16 16 0 -2
BITMAP
0000
7DFE
4522
4D22
59FE
5122
5122
49FE
4820
4BFF
4A21
4A29
5A3D
42E5
4201
4207
ENDCHAR
STARTCHAR 367a
ENCODING 20018
SWIDTH 96 0
DWIDTH 16 0
BBX 16 16 0 -2
BITMAP
0100
0100
3FFC
2104
2104
2104
3FFC
0100
7FFE
4102
4102
4102
7FFE
0100
0100
0100
ENDCHAR
STARTCHAR 367b
ENCODING 27355
SWIDTH 96 0
DWIDTH 16 0
BBX 16 16 0 -2
BITMAP
2210
2210
27DF
F528
2884
2000
67DF
7451
6FD1
A451
A7D1
2411
2491
27D7
2C50
2010
ENDCHAR
STARTCHAR 367c
ENCODING 37351
SWIDTH 96 0
DWIDTH 16 0
BBX 16 16 0 -2
BITMAP
1002
3892
2C92
6692
4292
FC92
1092
1092
FE92
1092
9492
D492
5092
1F82
F102
0302
ENDCHAR
STARTCHAR 367d
ENCODING 23633
SWIDTH 96 0
DWIDTH 16 0
BBX 16 16 0 -2
BITMAP
0000
3FFE
2002
2002
3FFE
2000
2444
2248
27FE
2402
27FE
2402
67FE
4402
C402
040E
ENDCHAR
STARTCHAR 367e
ENCODING 23624
SWIDTH 96 0
DWIDTH 16 0
BBX 16 16 0 -2
BITMAP
0000
3FFE
2002
2002
3FFE
2000
2040
2444
2444
2444
27FC
2040
6842
4842
C842
0FFE
ENDCHAR
STARTCHAR 3721
ENCODING 25496
SWIDTH 96 0
DWIDTH 16 0
BBX 16 16 0 -2
BITMAP
2000
23FE
2202
2202
FBFE
2200
2210
2292
3A92
E2FE
2210
2210
2692
2492
2C92
60FE
ENDCHAR
STARTCHAR 3722
ENCODING 31391
SWIDTH 96 0
DWIDTH 16 0
BBX 16 16 0 -2
BITMAP
0100
0100
7FFE
4422
583F
E000
3FFE
2002
3FFE
2000
2444
2444
67FC
4842
C842
0FFE
ENDCHAR
STARTCHAR 3723
ENCODING 27795
SWIDTH 96 0
DWIDTH 16 0
BBX 16 16 0 -2
BITMAP
0100
0106
FD8C
05D8
0D60
1930
311C
E707
0000
3FFC
2004
2004
3FFC
2004
2004
3FFC
ENDCHAR
STARTCHAR 3724
ENCODING 38772
SWIDTH 96 0
DWIDTH 16 0
BBX 16 16 0 -2
BITMAP
2228
2228
FFA8
2268
2249
3E4B
08CE
7F48
4948
4948
7F48
0848
FFC8
0849
0849
0847
ENDCHAR
STARTCHAR 3725
ENCODING 36705
SWIDTH 96 0
DWIDTH 16 0
BBX 16 16 0 -2
BITMAP
2104
47C8
9112
67CC
5549
F7DF
2544
B7CD
A915
A7C5
2104
0000
3FFC
2004
2004
3FFC
ENDCHAR
STARTCHAR 3726
ENCODING 31402
SWIDTH 96 0
DWIDTH 16 0
BBX 16 16 0 -2
BITMAP
0100
0100
7FFE
4442
4C42
F87F
0000
6020
33FE
C020
67FF
0000
1020
33FE
6020
C7FF
ENDCHAR
STARTCHAR 3727
ENCODING 29066
SWIDTH 96 0
DWIDTH 16 0
BBX 16 16 0 -2
BITMAP
2040
4246
FF7C
0140
7E41
423F
7E00
4246
7E7C
4240
4241
463F
0000
2444
6666
C223
ENDCHAR
STARTCHAR 3728
ENCODING 38536
SWIDTH 96 0
DWIDTH 16 0
BBX 16 16 0 -2
BITMAP
0000
79FC
4924
4924
59FC
5124
5124
49FC
4800
4FFF
4920
4932
5914
4118
41CC
4707
ENDCHAR
STARTCHAR 3729
ENCODING 31874
SWIDTH 96 0
DWIDTH 16 0
BBX 16 16 0 -2
BITMAP
0200
07E0
1C40
70C0
0360
0E30
381C
E107
1108
0910
FFFF
0540
0D70
391C
E107
0100
ENDCHAR
STARTCHAR 372a
ENCODING 26647
SWIDTH 96 0
DWIDTH 16 0
BBX 16 16 0 -2
BITMAP
0000
FFFF
0440
0440
7FFE
4442
4442
7FFE
0100
FFFF
0520
0D30
1918
310C
E107
0100
ENDCHAR
STARTCHAR 372b
ENCODING 32368
SWIDTH 96 0
DWIDTH 16 0
BBX 16 16 0 -2
BITMAP
107C
3044
6044
C47C
6C00
19EF
3129
6529
FDEF
1410
51FF
5854
D454
90D6
1193
1010
ENDCHAR
STARTCHAR 372c
ENCODING 26705
SWIDTH 96 0
DWIDTH 16 0
BBX 16 16 0 -2
BITMAP
1FF0
0460
0380
1C78
0000
7E7E
2424
1818
E667
0100
FFFF
0520
0D30
391C
E107
0100
ENDCHAR
STARTCHAR 372d
ENCODING 37740
SWIDTH 96 0
DWIDTH 16 0
BBX 16 16 0 -2
BITMAP
1024
38E4
2F84
6495
4095
FFF5
1095
11C4
FDA4
12A4
948E
D48A
508A
1C8A
709B
C091
ENDCHAR
STARTCHAR 372e
ENCODING 21234
SWIDTH 96 0
DWIDTH 16 0
BBX 16 16 0 -2
BITMAP
0310
7E10
0810
FF90
087F
7F11
4911
7F11
4911
7F31
0823
7F22
0866
FF80
4422
8211
ENDCHAR
STARTCHAR 372f
ENCODING 21531
SWIDTH 96 0
DWIDTH 16 0
BBX 16 16 0 -2
BITMAP
0000
3FFC
0204
0204
FFFF
0204
0204
3FFC
0400
0800
1FFE
2802
C802
0802
0802
0FFE
ENDCHAR
STARTCHAR 3730
ENCODING 34219
SWIDTH 96 0
DWIDTH 16 0
BBX 16 16 0 -2
BITMAP
0810
FFFF
0810
3FF8
0100
FFFF
2104
3FFC
2104
3FFC
0100
7FFE
0100
FFFF
4842
8421
ENDCHAR
STARTCHAR 3731
ENCODING 35347
SWIDTH 96 0
DWIDTH 16 0
BBX 16 16 0 -2
BITMAP
0002
7C82
0092
FE92
0092
7C92
0092
0092
7C92
0092
0092
7C92
4492
4482
4482
7D02
ENDCHAR
STARTCHAR 3732
ENCODING 32676
SWIDTH 96 0
DWIDTH 16 0
BBX 16 16 0 -2
BITMAP
0041
7E63
1222
127F
FF08
1208
1208
7E3E
2008
2008
7E08
A27F
2208
2208
2208
3E08
ENDCHAR
STARTCHAR 3733
ENCODING 36557
SWIDTH 96 0
DWIDTH 16 0
BBX 16 16 0 -2
BITMAP
0000
7FFE
4002
4102
3FFC
0100
3FFC
2104
3FFC
2104
2104
3FFC
0100
FFFF
0100
0100
ENDCHAR
STARTCHAR 3734
ENCODING 37089
SWIDTH 96 0
DWIDTH 16 0
BBX 16 16 0 -2
BITMAP
0000
7F3F
1121
1123
FFE2
1126
1124
7F22
2021
2021
7F21
A121
2127
2120
2120
3F20
ENDCHAR
STARTCHAR 3735
ENCODING 21350
SWIDTH 96 0
DWIDTH 16 0
BBX 16 16 0 -2
BITMAP
0810
0810
7F10
0810
0810
0810
FF9C
0016
0813
0810
7F10
0810
0810
0B90
3E10
E010
ENDCHAR
STARTCHAR 3736
ENCODING 34952
SWIDTH 96 0
DWIDTH 16 0
BBX 16 16 0 -2
BITMAP
0800
083E
FF22
1122
1122
3122
673E
C000
0100
FFFF
0484
18CC
E868
0830
0F1C
7807
ENDCHAR
STARTCHAR 3737
ENCODING 31041
SWIDTH 96 0
DWIDTH 16 0
BBX 16 16 0 -2
BITMAP
1000
107E
1042
FE46
0244
064C
0C48
1844
3042
7C42
D642
1242
1042
104E
1040
1040
ENDCHAR
STARTCHAR 3738
ENCODING 20418
SWIDTH 96 0
DWIDTH 16 0
BBX 16 16 0 -2
BITMAP
0806
083C
1FE0
1080
3188
2318
61B0
A062
20C2
2FFF
2041
2248
224C
2646
2C43
2040
ENDCHAR
STARTCHAR 3739
ENCODING 20670
SWIDTH 96 0
DWIDTH 16 0
BBX 16 16 0 -2
BITMAP
1000
11FF
3010
2820
28FE
6A82
6C82
A8FE
2882
2882
2AFE
2A82
2682
20FE
2044
2183
ENDCHAR
STARTCHAR 373a
ENCODING 21009
SWIDTH 96 0
DWIDTH 16 0
BBX 16 16 0 -2
BITMAP
0002
FFA2
2222
2222
2222
2222
FFA2
2222
2222
2222
2222
2202
2202
6202
4202
C20E
ENDCHAR
STARTCHAR 373b
ENCODING 20804
SWIDTH 96 0
DWIDTH 16 0
BBX 16 16 0 -2
BITMAP
0000
3FF8
2008
2008
2008
2008
2008
2008
3FF8
0440
0440
0C40
0840
1841
3063
E03E
ENDCHAR
STARTCHAR 373c
ENCODING 21843
SWIDTH 96 0
DWIDTH 16 0
BBX 16 16 0 -2
BITMAP
0020
FF20
007F
7E44
42CC
4228
7E38
406C
40C6
C003
9FF8
1008
1008
1008
1008
1FF8
ENDCHAR
STARTCHAR 373d
ENCODING 22317
SWIDTH 96 0
DWIDTH 16 0
BBX 16 16 0 -2
BITMAP
0100
0100
3FFC
0100
0100
0100
7FFE
0000
0100
0100
3FFC
0100
0100
0100
FFFF
0000
ENDCHAR
STARTCHAR 373e
ENCODING 29674
SWIDTH 96 0
DWIDTH 16 0
BBX 16 16 0 -2
BITMAP
0020
F820
23FE
2020
2020
2020
FBFF
2000
2020
2020
23FE
2020
3820
E020
07FF
0000
ENDCHAR
STARTCHAR 373f
ENCODING 22411
SWIDTH 96 0
DWIDTH 16 0
BBX 16 16 0 -2
BITMAP
0002
FFA2
2222
2222
2222
FFA2
2222
2202
6202
C00E
0100
3FFC
0100
0100
FFFF
0000
ENDCHAR
STARTCHAR 3740
ENCODING 22865
SWIDTH 96 0
DWIDTH 16 0
BBX 16 16 0 -2
BITMAP
0800
0800
FF7E
0812
7F12
0832
0822
3F66
E0CC
0100
0100
FFFF
0240
0660
1C38
F00F
ENDCHAR
STARTCHAR 3741
ENCODING 24418
SWIDTH 96 0
DWIDTH 16 0
BBX 16 16 0 -2
BITMAP
0002
FF86
220C
2218
2230
2202
FF86
220C
2218
2230
2201
2203
6206
420C
4218
C270
ENDCHAR
STARTCHAR 3742
ENCODING 24452
SWIDTH 96 0
DWIDTH 16 0
BBX 16 16 0 -2
BITMAP
1000
37FC
6104
C18C
00D8
1070
31DC
6707
E020
2020
23FE
2020
2020
2020
27FF
2000
ENDCHAR
STARTCHAR 3743
ENCODING 24693
SWIDTH 96 0
DWIDTH 16 0
BBX 16 16 0 -2
BITMAP
0100
0100
FFFF
0100
3FFC
2104
2104
3FFC
2104
2104
3FFC
0080
24C6
244B
6619
C3F0
ENDCHAR
ENDFONT
